<svg width="262" height="164" viewBox="0 0 262 164" fill="none" xmlns="http://www.w3.org/2000/svg">
<path d="M70.7845 70.3916H79.5533L82.784 82.6106H82.9917C83.1532 81.5962 83.2916 80.5126 83.5916 79.5213L86.2454 70.3916H94.9219L98.7756 93.6308H90.5375L89.3837 80.9046H89.2222C89.0606 81.6654 88.9222 82.4723 88.6684 83.21L85.2762 93.6308H80.2918L77.2457 83.7864C76.9919 82.7951 76.7842 81.8729 76.715 80.8815H76.4381C76.3689 81.8037 76.3227 82.772 76.2304 83.6942L75.2381 93.6308H67L70.7845 70.3916Z" fill="white"/>
<path d="M105.765 93.6311H96.7422L104.911 70.3919H114.349L122.726 93.6311H113.68L112.895 90.7262H106.457L105.765 93.6311ZM111.395 85.2161L110.403 81.1124C110.149 80.121 109.988 79.1066 109.849 78.1153H109.549L108.003 85.2161H111.395ZM145.871 79.9366C145.802 83.7406 145.802 86.8991 143.033 89.8732C140.54 92.5475 136.71 94 133.064 94C125.91 94 120.118 89.6196 120.118 82.1499C120.118 74.5648 125.749 70 133.133 70C137.217 70 142.802 72.0058 144.648 75.9712L136.687 78.8761C136.041 77.7003 134.818 77.0778 133.456 77.0778C130.41 77.0778 128.726 79.6599 128.726 82.4726C128.726 85.0317 130.341 87.4294 133.11 87.4294C134.448 87.4294 136.156 86.8069 136.571 85.4006H132.718V79.9366H145.871ZM146.517 70.3919H154.709L162.37 83.2795H162.624C162.278 81.3429 161.909 79.3372 161.909 77.3545V70.3919H170.055V93.6311H161.909L154.409 81.4121H154.155C154.432 83.0259 154.686 84.5245 154.686 86.0692V93.6311H146.54V70.3919H146.517Z" fill="white"/>
<path d="M178.226 93.6308H169.203L177.349 70.3916H186.787L195.141 93.6308H186.118L185.333 90.7259H178.895L178.226 93.6308ZM183.856 85.2158L182.864 81.1121C182.61 80.1207 182.472 79.1063 182.31 78.1149H181.987L180.441 85.2158H183.856Z" fill="white"/>
</svg>
