<svg width="262" height="164" viewBox="0 0 262 164" fill="none" xmlns="http://www.w3.org/2000/svg">
<g clip-path="url(#clip0_194_43)">
<path fill-rule="evenodd" clip-rule="evenodd" d="M103.298 90.3652H108.492L111.955 93.8539L115.416 90.3652H120.61V101.046H115.005V97.122L111.955 100.199L108.903 97.1231V101.047H103.297V90.3663L103.298 90.3652ZM141.376 90.3652H146.845L153.003 94.969V90.3652H158.607V101.046H153.097L146.98 96.4834V101.046H141.376V90.3652Z" fill="white"/>
<path fill-rule="evenodd" clip-rule="evenodd" d="M96.9492 97.2708C96.9492 78.3164 112.194 62.9521 131 62.9521C149.807 62.9521 165.051 78.3164 165.051 97.2697C165.051 98.5459 164.982 99.8066 164.846 101.045H161.022C161.174 99.8077 161.253 98.5481 161.253 97.2697C161.253 80.4308 147.708 66.7805 131 66.7805C114.291 66.7805 100.748 80.4308 100.748 97.2697C100.748 98.5481 100.825 99.8077 100.978 101.045H97.1526C97.0169 99.7917 96.949 98.5317 96.9492 97.2708Z" fill="white"/>
<path fill-rule="evenodd" clip-rule="evenodd" d="M128.101 90.3652H133.918L140.817 101.046H134.99L134.242 99.8827H127.778L127.03 101.046H121.203L128.101 90.3652ZM131.01 94.8212L129.711 96.844H132.309L131.01 94.8212Z" fill="white"/>
<path fill-rule="evenodd" clip-rule="evenodd" d="M161.863 100.294C161.959 99.2995 162.006 98.2924 162.006 97.2733C162.006 80.0152 148.124 66.0264 131.001 66.0264C113.877 66.0264 99.9961 80.0152 99.9961 97.2733C99.9961 98.2924 100.044 99.2995 100.139 100.294L100.673 100.779C100.543 99.6147 100.477 98.4445 100.478 97.2733C100.478 80.2833 114.143 66.5117 131.001 66.5117C147.86 66.5117 161.525 80.2833 161.525 97.2733C161.525 98.4579 161.459 99.6281 161.33 100.779L161.863 100.294Z" fill="white"/>
<path d="M108.38 90.6367H103.566V100.775H108.632V96.467L111.954 99.8145L115.276 96.467V100.775H120.341V90.6367H115.527L111.955 94.239L108.38 90.6367ZM146.755 90.6367H141.644V100.775H146.71V95.9442L153.184 100.775H158.336V90.6367H153.271V95.5096L146.755 90.6367Z" fill="white"/>
<path fill-rule="evenodd" clip-rule="evenodd" d="M132.809 97.1155H129.219L131.013 94.3206L132.809 97.1155ZM133.776 90.6367H128.25L121.703 100.775H126.887L127.635 99.6104H134.392L135.139 100.775H140.323L133.776 90.6367Z" fill="white"/>
<path fill-rule="evenodd" clip-rule="evenodd" d="M131.01 93.4297V94.3209C130.356 95.725 129.757 96.657 129.216 97.1158L128.332 97.6011L131.01 93.4297Z" fill="white"/>
<path fill-rule="evenodd" clip-rule="evenodd" d="M97.832 100.291H100.14L100.674 100.776H97.3945L97.832 100.291ZM161.859 100.291H164.167L164.604 100.776H161.325L161.859 100.291ZM103.566 90.6367L104.046 91.122V100.291H108.151L108.631 100.776H103.566V90.6367ZM108.151 95.2967L111.954 99.1284L115.755 95.2967V100.291H119.86L120.34 100.776H115.275V96.467L111.953 99.8134L108.631 96.4659L108.151 95.2967ZM111.954 94.2379L115.527 90.6367L115.727 91.122L111.953 94.9239V94.239L111.954 94.2379ZM131.01 93.4294L133.688 97.5997L132.805 97.1144L131.01 94.3206V93.4294ZM141.644 90.6367L142.125 91.122V100.291H146.228L146.709 100.776H141.644V90.6367ZM146.228 94.9824L153.343 100.291H157.855L158.336 100.776H153.186L146.71 95.9453L146.229 94.9835L146.228 94.9824ZM153.27 90.6367L153.751 91.122V96.4714L153.27 95.5096V90.6367Z" fill="white"/>
<path fill-rule="evenodd" clip-rule="evenodd" d="M164.609 100.778C164.727 99.6257 164.786 98.4566 164.786 97.2731C164.786 78.4687 149.661 63.2246 131.003 63.2246C112.344 63.2257 97.2188 78.4698 97.2188 97.2742C97.2188 98.4577 97.2792 99.6268 97.3957 100.779L97.8332 100.294C97.7445 99.2899 97.7002 98.2823 97.7002 97.2742C97.7002 78.7367 112.609 63.7099 131.003 63.7099C149.396 63.7099 164.306 78.7367 164.306 97.2731C164.306 98.2815 164.262 99.2895 164.174 100.294L164.609 100.778Z" fill="white"/>
<path d="M127.372 99.1262H134.653L135.401 100.291H139.436L140.323 100.776H135.139L134.392 99.6104H127.634L126.887 100.775H121.703L128.25 90.6367L128.511 91.122L122.59 100.291H126.626L127.372 99.1262Z" fill="white"/>
<path fill-rule="evenodd" clip-rule="evenodd" d="M108.181 91.124H104.047V100.294H108.151V95.2998L111.955 99.1315L115.757 95.2987V100.294H119.861V91.124H115.727L111.953 94.927L108.181 91.124Z" fill="white"/>
<path fill-rule="evenodd" clip-rule="evenodd" d="M131.002 63.71C112.608 63.71 97.6992 78.7367 97.6992 97.2731C97.6988 98.2816 97.7428 99.2896 97.8311 100.294H100.14C100.044 99.29 99.9964 98.2818 99.9967 97.2731C99.9967 80.0151 113.878 66.0262 131.002 66.0262C148.125 66.0262 162.006 80.0151 162.006 97.2731C162.006 98.2923 161.959 99.2993 161.863 100.294H164.172C164.261 99.2896 164.305 98.2816 164.305 97.2731C164.305 78.7367 149.395 63.71 131.002 63.71Z" fill="white"/>
<path fill-rule="evenodd" clip-rule="evenodd" d="M146.6 91.124H142.129V100.294H146.232V94.9855L153.348 100.294H157.86V91.124H153.756V96.4745L146.6 91.124Z" fill="white"/>
<path d="M133.692 97.6028H128.335L131.013 93.4314L133.692 97.6028ZM133.515 91.124H128.51L122.59 100.294H126.625L127.373 99.1282H134.653L135.4 100.294H139.436L133.515 91.124Z" fill="white"/>
</g>
<defs>
<clipPath id="clip0_194_43">
<rect width="70" height="40" fill="white" transform="translate(96 62)"/>
</clipPath>
</defs>
</svg>
