<svg width="262" height="164" viewBox="0 0 262 164" fill="none" xmlns="http://www.w3.org/2000/svg">
<g clip-path="url(#clip0_194_249)">
<mask id="mask0_194_249" style="mask-type:luminance" maskUnits="userSpaceOnUse" x="73" y="62" width="116" height="40">
<path d="M189 62H73V102H189V62Z" fill="white"/>
</mask>
<g mask="url(#mask0_194_249)">
<path d="M119.256 77.3065H113.1V77.4659C113.061 78.1962 112.887 78.913 112.589 79.5805C112.589 79.5805 107.114 93.5664 106.905 94.1069C106.68 93.5758 100.466 78.9849 100.466 78.9849L100.362 78.7522C100.148 78.3539 100.02 77.9152 99.9855 77.4643V77.3374L99.8642 77.3047H93.1776V77.6135L93.2561 77.6515C94.5267 78.1145 94.7123 79.8071 94.7123 80.7775L94.7099 95.4062C94.7099 97.1029 94.5267 98.9975 93.1576 100.202L93.1172 100.245V100.523H99.0474V100.217L98.9728 100.181C97.6758 99.6037 97.5671 98.1353 97.5671 96.7364V96.3086L97.5695 95.8964C97.5695 95.8964 97.5772 82.6047 97.5772 81.491C98.0095 82.5281 103.966 96.6812 103.966 96.6812C104.834 98.6929 105.353 99.6412 107.077 100.952L107.206 101.05C107.206 101.05 114.399 82.6399 114.842 81.4984C114.842 82.6974 114.837 97.6755 114.837 97.6755C114.837 98.757 114.673 99.8072 113.497 100.18L113.408 100.206V100.523H120.075V100.23L120.022 100.192C118.866 99.4356 118.206 98.1147 118.295 96.7348V79.5894C118.295 79.2059 118.369 77.9206 119.292 77.6523L119.377 77.622V77.306H119.256V77.3065Z" fill="white"/>
<path d="M124.078 89.8377C124.076 83.4323 129.262 78.2379 135.662 78.2358C138.841 78.2348 141.88 79.5401 144.068 81.8465C140.136 75.8231 132.069 74.131 126.05 78.0668C120.032 82.0027 118.341 90.0765 122.274 96.0999C125.524 101.078 131.73 103.222 137.356 101.31C136.801 101.396 136.241 101.442 135.679 101.445C129.275 101.447 124.081 96.2529 124.079 89.843C124.079 89.8419 124.079 89.8407 124.079 89.8396" fill="white"/>
<path d="M136.477 79.656C132.597 79.3034 128.859 81.2067 126.859 84.5526C130.047 80.8528 135.628 80.4401 139.325 83.6306C143.022 86.8212 143.434 92.4067 140.246 96.1066C138.381 98.2716 135.585 99.4008 132.74 99.138C132.081 99.0769 131.432 98.9401 130.804 98.7307C135.751 101.36 141.891 99.4781 144.518 94.5271C147.145 89.5762 145.265 83.4311 140.318 80.8018C139.126 80.1686 137.821 79.7795 136.477 79.6576" fill="white"/>
<path d="M158.265 87.0018C160.455 85.9579 161.536 84.4808 161.536 82.4881C161.536 79.2472 158.762 77.3066 154.124 77.3066H145.734V77.6154L145.811 77.6535C147.328 78.2125 147.293 80.2876 147.274 81.8053L147.269 82.319V95.4751L147.274 95.9532C147.292 97.5005 147.314 99.6117 145.811 100.183L145.737 100.212V100.526H152.195C154.655 100.535 157.195 100.538 159.479 99.4308C162.068 98.1923 163.731 95.7523 163.731 93.2083C163.731 90.1751 161.643 87.8322 158.268 87.0024M151.069 79.9482C151.27 79.9282 153.299 79.7131 153.299 79.7131C154.443 79.5855 155.588 79.9363 156.464 80.6823C157.131 81.289 157.503 82.1542 157.485 83.0556C157.485 86.3902 152.996 86.557 152.097 86.557H151.069V79.9482ZM158.367 96.5632C157.142 97.5552 155.56 97.9917 154 97.7676C154 97.7676 151.586 97.545 151.068 97.5007V89.1002C151.282 89.0915 153.393 88.9699 153.393 88.9699C155.372 88.8596 157.223 89.428 158.351 90.4958C159.188 91.2779 159.649 92.3813 159.618 93.5266C159.667 94.6736 159.21 95.7839 158.367 96.5627" fill="white"/>
<path d="M171.243 77.3061H164.488V77.6149L164.569 77.653C166.08 78.212 166.052 80.3023 166.031 81.8252L166.027 82.354V95.5178L166.031 95.9784C166.047 97.5242 166.074 99.6417 164.569 100.182L164.488 100.212V100.525H171.365V100.212L171.282 100.182C169.78 99.6116 169.806 97.5144 169.819 95.9784L169.825 95.5178V82.3535L169.819 81.8891C169.804 80.3394 169.778 78.2217 171.282 77.6452L171.365 77.6135V77.3047L171.243 77.3061Z" fill="white"/>
<path d="M172.776 82.9496C172.776 87.0091 176.364 88.6131 179.537 90.0374C182.23 91.2378 184.776 92.3841 184.776 94.8178C184.776 97.1051 181.952 98.3271 179.913 98.3271C177.135 98.2811 174.46 97.2664 172.35 95.4578L172.066 95.211L173.175 100.004L173.239 100.027C175.256 100.748 177.385 101.106 179.527 101.084C184.751 101.084 188.999 97.7851 188.999 93.7344C188.999 90.1822 185.414 88.5428 182.251 87.1003C179.551 85.8666 176.997 84.6993 176.997 82.5666C176.997 80.311 179.354 79.5129 181.376 79.5129C183.383 79.5171 185.312 80.2905 186.767 81.674L186.972 81.8925V77.5511L186.89 77.5257C185.196 77.0035 183.432 76.7418 181.658 76.7492C177.556 76.7492 172.776 78.3697 172.776 82.9517" fill="white"/>
<path d="M79.9956 65.9849H75.2348V62H73V72.2063H75.2348V67.9785H79.9956V72.2063H82.2309V62H79.9956V65.9849Z" fill="white"/>
<path d="M128.54 62.5844C128.181 63.033 128.003 63.5998 128.04 64.1732V72.2073H130.274V68.9469H135.017V72.2059H137.259V61.9991H130.289C129.65 61.943 129.016 62.155 128.54 62.5844ZM130.842 63.9952H135.017V66.9581H130.274V64.5761C130.259 64.4196 130.288 64.2619 130.358 64.1209C130.464 63.9878 130.631 64.001 130.842 63.9931" fill="white"/>
<path d="M112.73 61.9993H105.75V72.2056H107.986V63.993H112.178C112.386 64.0007 112.556 63.9881 112.659 64.1209C112.734 64.2602 112.764 64.419 112.747 64.5761V72.2053H114.982V64.1715C115.021 63.5986 114.843 63.0321 114.484 62.5847C114.005 62.1544 113.37 61.9424 112.729 61.9993" fill="white"/>
<path d="M101.538 69.6273C101.556 69.783 101.526 69.9407 101.452 70.0789C101.349 70.2145 101.177 70.2028 100.97 70.2068H96.7782V61.999H94.543V72.2058H101.522C102.162 72.2619 102.795 72.05 103.272 71.6205C103.631 71.1724 103.81 70.6059 103.773 70.0327V61.999H101.538L101.538 69.6273Z" fill="white"/>
<path d="M126.186 64.1718C126.227 63.5991 126.05 63.0321 125.691 62.5845C125.215 62.1548 124.581 61.9428 123.943 61.9992H116.961V72.2059H123.943C124.581 72.2614 125.214 72.0495 125.691 71.6206C126.051 71.173 126.228 70.6057 126.186 70.0328V64.1718ZM123.961 69.6275C123.975 69.7831 123.945 69.9396 123.875 70.0791C123.769 70.2147 123.599 70.2029 123.388 70.207H119.194V63.9933H123.388C123.598 64.0011 123.767 63.9885 123.875 64.1212C123.945 64.2621 123.975 64.4197 123.961 64.5764V69.6275Z" fill="white"/>
<path d="M88.3873 66.4644L85.6779 62H83.0234L87.1912 68.4352V72.2064H89.5795V68.4352L93.7546 62H91.0978L88.3873 66.4644Z" fill="white"/>
<path d="M141.88 62H139.496V72.2063H141.88V62Z" fill="white"/>
</g>
</g>
<defs>
<clipPath id="clip0_194_249">
<rect width="116" height="40" fill="white" transform="translate(73 62)"/>
</clipPath>
</defs>
</svg>
