<svg width="262" height="164" viewBox="0 0 262 164" fill="none" xmlns="http://www.w3.org/2000/svg">
<g clip-path="url(#clip0_194_38)">
<path d="M161.386 83.0053L167.135 88.7394H164.448L158.811 83.0053V81.3298H162.282C163.813 81.3298 164.634 80.5479 164.634 79.1702C164.634 77.7926 163.813 77.0106 162.282 77.0106H155.6V88.7394H153.622V75.3351H162.282C165.007 75.3351 166.613 76.7872 166.613 79.1702C166.613 81.5904 165.007 83.0053 162.282 83.0053H161.386ZM187.107 88.7021H198.679V87.0266H189.085V82.8564H198.306V81.1809H189.123V76.9734H198.679V75.2979H187.107V88.7021ZM181.022 85.7979L172.212 75.2979H170.234V88.7021H172.212V78.2021L181.059 88.7021H183V75.2979H181.022V85.7979ZM138.765 75.3351L129.208 85.9096V75.3351H127.267L117.673 85.9468V75.3351H115.695V88.7021H117.673L127.192 78.1277V88.7021H129.171L141.228 75.3351H138.765ZM147.313 75.3351H149.254V88.7021H147.276V85.5745H140.556L137.719 88.7021H135.218L147.313 75.3351ZM142.087 83.8617H147.276V78.1277L142.087 83.8617ZM89.0413 83.0053C91.7664 83.0053 93.3715 81.5532 93.3715 79.1702C93.3715 76.75 91.7664 75.3351 89.0413 75.3351H80.3808V88.7394H82.3592V77.0106H89.0413C90.5718 77.0106 91.3931 77.7926 91.3931 79.1702C91.3931 80.5479 90.5718 81.3298 89.0413 81.3298H85.5696V83.0053L91.2064 88.7394H93.8942L88.1827 83.0053H89.0413ZM104.869 83.0798H109.274V86.4309C107.93 86.9521 106.474 87.1755 104.906 87.1755C103.04 87.1755 101.435 86.7287 100.315 85.9096C99.083 85.016 98.4484 83.6755 98.4484 82C98.4484 80.2872 99.0457 78.984 100.278 78.0904C101.397 77.2713 103.003 76.8245 104.906 76.8245C105.952 76.8245 106.997 76.9362 108.005 77.1596C109.013 77.383 109.983 77.7553 110.954 78.2021L110.991 78.2394V76.3032H110.954C110.842 76.266 110.73 76.1915 110.581 76.1543L110.506 76.117C110.469 76.117 110.431 76.0798 110.394 76.0798C110.17 76.0053 109.946 75.8936 109.722 75.8191C108.863 75.5213 108.042 75.3351 107.296 75.2606C106.474 75.1489 105.616 75.0745 104.682 75.0745C102.48 75.0745 100.464 75.633 99.0083 76.6383C98.1498 77.234 97.5152 77.9415 97.0299 78.7979C96.5446 79.7287 96.2833 80.8085 96.2833 82.0372C96.2833 83.2287 96.5072 84.3085 96.9925 85.2394C97.4405 86.0957 98.0751 86.8032 98.8964 87.3989C100.352 88.4415 102.405 89 104.72 89C105.989 89 107.146 88.8883 108.266 88.6649C109.311 88.4415 110.282 88.1064 111.253 87.6596V81.3298H104.832V83.0798H104.869ZM77.5437 82C77.5437 87.1755 73.4374 89 69.5924 89C67.4273 89 65.4488 88.4043 64.0676 87.3617C62.4625 86.133 61.6039 84.2713 61.6039 82C61.6039 79.7287 62.4625 77.867 64.0303 76.6383C65.4115 75.5957 67.39 75 69.5551 75C71.7576 75 73.7361 75.5957 75.1173 76.6383C76.6851 77.867 77.5437 79.7287 77.5437 82ZM63.657 82C63.657 83.6755 64.2543 85.016 65.3742 85.9468C66.4194 86.8032 67.8753 87.25 69.6298 87.25C71.3469 87.25 72.8028 86.8032 73.848 85.9468C74.9679 85.0532 75.5279 83.6755 75.5279 82C75.4906 78.7606 73.2508 76.75 69.5924 76.75C65.9341 76.75 63.657 78.7606 63.657 82ZM59.4387 84.9787C59.4387 87.25 57.7962 88.7394 55.2951 88.7394H46V75.3351H54.9218C57.3856 75.3351 58.9534 76.75 58.9534 78.9096C58.9534 80.1383 58.3935 81.0691 57.3856 81.6649C58.7295 82.2234 59.4387 83.3777 59.4387 84.9787ZM57.0123 78.9468C57.0123 77.6436 56.2657 76.9734 54.8472 76.9734H47.9785V80.9202H54.7352C56.191 80.9202 57.0123 80.25 57.0123 78.9468ZM47.9785 87.0266H55.2205C56.7137 87.0266 57.4976 86.2819 57.4976 84.867C57.4976 84.1968 57.2736 82.5957 55.1458 82.5957H47.9785V87.0266ZM210.251 83.0053H211.147C213.872 83.0053 215.477 81.5532 215.477 79.1702C215.477 76.75 213.872 75.3351 211.147 75.3351H202.487V88.7394H204.465V76.9734H211.147C212.678 76.9734 213.499 77.7553 213.499 79.133C213.499 80.5106 212.678 81.2926 211.147 81.2926H207.675V82.9681L213.312 88.7021H216L210.251 83.0053Z" fill="white"/>
</g>
<defs>
<clipPath id="clip0_194_38">
<rect width="170" height="14" fill="white" transform="translate(46 75)"/>
</clipPath>
</defs>
</svg>
