<svg width="920" height="70" viewBox="0 0 920 70" fill="none" xmlns="http://www.w3.org/2000/svg">
<path d="M56.4662 61.3037C84.3369 61.3037 106.932 49.7343 106.932 35.448C106.955 21.1843 84.3596 9.61487 56.4662 9.61487C28.5955 9.61487 6 21.1843 6 35.448C6 49.7343 28.5955 61.3037 56.4662 61.3037ZM65.9753 48.6249C65.1376 50.572 63.6886 54.7379 60.3604 56.4133C59.3642 56.9114 58.119 57.1604 56.9869 57.1831C56.7379 57.1831 56.5568 57.1831 56.4888 57.1831C47.1609 57.1831 38.5121 55.8925 31.2444 53.6737C31.1765 53.6511 31.018 53.5832 30.9727 53.5605C30.2935 53.3341 29.9539 53.0172 29.9539 52.6549C29.9539 52.3153 30.135 52.0663 30.3614 51.8398C30.452 51.7266 30.6105 51.6134 30.8142 51.4323C32.4897 50.0286 37.5385 46.3834 47.0477 42.7383C50.3758 41.4704 54.5417 39.8855 58.934 38.9573C61.4924 38.4139 70.9789 36.9649 65.9753 48.6249ZM91.4688 22.5654C91.6499 22.2484 91.899 21.9994 92.3291 21.9541C92.5555 21.9314 92.8951 21.9994 93.3706 22.2937C99.3025 25.9388 102.812 30.4896 102.812 35.4253C102.812 44.3458 91.3556 51.9983 74.9637 55.3492C73.8996 55.5529 73.2203 55.5529 72.9713 55.2812C72.8128 55.1228 72.7675 54.8284 72.9713 54.4888C73.0845 54.3077 73.1977 54.1492 73.4015 53.8775C82.3219 43.3496 89.1141 27.8407 91.0612 23.3578C91.2197 23.0861 91.3556 22.7691 91.4688 22.5654ZM47.1156 22.2484C47.9533 20.3013 49.4023 16.1354 52.7305 14.4826C53.7493 13.9845 54.9719 13.7355 56.1039 13.7128C56.353 13.7128 56.5341 13.7128 56.602 13.7128C65.93 13.7128 74.5788 15.0034 81.8465 17.2222C81.8917 17.2448 82.0729 17.3127 82.1182 17.3127C82.7974 17.5391 83.137 17.8335 83.137 18.2183C83.137 18.558 82.9559 18.807 82.7295 19.0334C82.6162 19.124 82.4804 19.2598 82.2766 19.4409C80.6012 20.8447 75.5523 24.4898 66.0432 28.135C62.715 29.4029 58.5265 30.9877 54.1795 31.916C51.5984 32.4594 42.112 33.9084 47.1156 22.2484ZM37.9687 15.5241C39.0328 15.3203 39.7121 15.3203 39.9611 15.592C40.0969 15.7505 40.1422 16.0448 39.9611 16.3844C39.8479 16.5656 39.7347 16.7467 39.5309 16.9957C30.6105 27.5237 23.8183 43.0326 21.8712 47.5155C21.7353 47.8324 21.5768 48.1268 21.4636 48.3305C21.2825 48.6475 21.0561 48.9192 20.6259 48.9418C20.3769 48.9645 20.0599 48.8965 19.5618 48.6022C13.6299 44.9571 10.1206 40.4063 10.1206 35.4706C10.1206 26.5501 21.5768 18.8749 37.9687 15.5241Z" fill="white"/>
<g clip-path="url(#clip0_124_138)">
<path d="M244.736 45.0817C244.736 45.2832 244.836 45.3839 244.937 45.3839C245.038 45.3839 245.139 45.3839 245.139 45.2832L276.877 24.6278C277.482 24.2248 277.986 24.0233 278.691 24.0233H285.643C286.752 24.0233 287.457 24.7286 287.457 25.8369V39.137C287.457 40.7491 287.054 41.6559 285.643 42.5627L277.18 47.6006C277.079 47.7014 276.978 47.7014 276.877 47.7014C276.777 47.7014 276.676 47.6006 276.676 47.2983V31.7816C276.676 31.5801 276.575 31.4794 276.474 31.4794C276.374 31.4794 276.273 31.4794 276.273 31.5801L253.098 46.6938C252.494 47.0968 251.889 47.1976 251.285 47.1976H235.97C234.861 47.1976 234.156 46.4923 234.156 45.3839V26.2399C234.156 26.1392 234.055 25.9377 233.954 25.9377C233.854 25.9377 233.753 25.9377 233.753 26.0384L218.438 35.3082C218.236 35.4089 218.236 35.5097 218.236 35.5097C218.236 35.6104 218.236 35.6104 218.337 35.7112L229.219 46.593C229.32 46.6938 229.42 46.8953 229.42 46.9961C229.42 47.0968 229.219 47.1976 229.118 47.1976H219.244C218.438 47.1976 217.833 47.0968 217.43 46.6938L210.78 40.0438C210.679 39.943 210.679 39.943 210.579 39.943C210.478 39.943 210.478 39.943 210.377 40.0438L199.294 46.6938C198.588 47.0968 198.185 47.1976 197.48 47.1976H187.505C186.397 47.1976 185.691 46.4923 185.691 45.3839V32.2854C185.691 30.6733 186.094 29.7665 187.505 28.8597L195.969 23.721C196.069 23.6202 196.17 23.6202 196.17 23.6202C196.271 23.6202 196.372 23.721 196.372 24.0233V41.4544C196.372 41.6559 196.473 41.7567 196.573 41.7567C196.674 41.7567 196.775 41.7567 196.876 41.6559L225.592 24.3255C226.297 23.9225 226.7 23.8218 227.506 23.8218H243.023C244.131 23.8218 244.836 24.5271 244.836 25.6354V45.0817H244.736Z" fill="white"/>
</g>
<g clip-path="url(#clip1_124_138)">
<path d="M546.028 29.5825C546.073 29.5795 546.117 29.5677 546.157 29.5479C546.197 29.5281 546.233 29.5007 546.263 29.4672C546.292 29.4336 546.315 29.3947 546.329 29.3526C546.343 29.3105 546.349 29.2661 546.345 29.2218C546.339 29.1325 546.297 29.0494 546.228 28.9908C546.159 28.9322 546.07 28.9028 545.979 28.9092C545.889 28.9156 545.804 28.9572 545.745 29.0248C545.685 29.0925 545.655 29.1806 545.662 29.2699C545.67 29.3582 545.713 29.4399 545.781 29.4973C545.85 29.5547 545.938 29.5832 546.028 29.5765M524.293 18.6652C524.293 18.859 524.351 19.0484 524.46 19.2096C524.57 19.3707 524.725 19.4963 524.907 19.5705C525.088 19.6447 525.288 19.6641 525.481 19.6262C525.674 19.5884 525.852 19.4951 525.991 19.3581C526.13 19.221 526.224 19.0464 526.263 18.8563C526.301 18.6662 526.282 18.4692 526.206 18.2902C526.131 18.1111 526.004 17.9581 525.84 17.8504C525.676 17.7427 525.484 17.6852 525.287 17.6852C525.024 17.6852 524.771 17.7885 524.584 17.9723C524.398 18.156 524.293 18.4053 524.293 18.6652ZM530.608 20.7693C530.608 20.9643 530.667 21.1549 530.777 21.317C530.887 21.4792 531.043 21.6055 531.226 21.6802C531.409 21.7548 531.61 21.7743 531.804 21.7363C531.998 21.6982 532.177 21.6043 532.317 21.4664C532.457 21.3286 532.552 21.1529 532.591 20.9616C532.629 20.7704 532.609 20.5721 532.534 20.392C532.458 20.2118 532.33 20.0578 532.165 19.9495C532 19.8412 531.807 19.7833 531.609 19.7833C531.345 19.7833 531.092 19.8866 530.906 20.0704C530.719 20.2541 530.614 20.5034 530.614 20.7633M506.817 46.4275C506.815 46.6225 506.873 46.8135 506.982 46.9763C507.091 47.139 507.246 47.2663 507.429 47.3421C507.611 47.4178 507.812 47.4385 508.007 47.4016C508.201 47.3648 508.38 47.2719 508.521 47.1349C508.661 46.9979 508.758 46.8228 508.798 46.6317C508.837 46.4407 508.819 46.2424 508.744 46.0618C508.67 45.8812 508.542 45.7264 508.378 45.6171C508.214 45.5078 508.021 45.4488 507.823 45.4476C507.693 45.4468 507.563 45.4714 507.442 45.5199C507.321 45.5684 507.211 45.6399 507.118 45.7303C507.025 45.8208 506.951 45.9284 506.901 46.0469C506.85 46.1655 506.823 46.2928 506.823 46.4215M511.735 50.4975C511.735 50.6925 511.793 50.8831 511.903 51.0452C512.013 51.2074 512.17 51.3337 512.353 51.4083C512.535 51.483 512.737 51.5025 512.931 51.4645C513.125 51.4264 513.303 51.3325 513.443 51.1946C513.583 51.0567 513.678 50.8811 513.717 50.6898C513.756 50.4986 513.736 50.3003 513.66 50.1202C513.584 49.94 513.456 49.786 513.292 49.6777C513.127 49.5694 512.933 49.5115 512.736 49.5115C512.472 49.5147 512.22 49.6198 512.034 49.8041C511.848 49.9885 511.742 50.2375 511.741 50.4975M518.002 52.3972C518.002 52.5922 518.06 52.7828 518.17 52.9449C518.28 53.1071 518.436 53.2334 518.619 53.3081C518.802 53.3827 519.003 53.4022 519.198 53.3642C519.392 53.3261 519.57 53.2322 519.71 53.0943C519.85 52.9565 519.945 52.7808 519.984 52.5895C520.022 52.3983 520.003 52.2 519.927 52.0199C519.851 51.8397 519.723 51.6858 519.558 51.5774C519.394 51.4691 519.2 51.4113 519.002 51.4113C518.871 51.4105 518.74 51.4354 518.618 51.4847C518.497 51.5339 518.386 51.6065 518.293 51.6982C518.2 51.79 518.126 51.899 518.076 52.0189C518.026 52.1389 518.001 52.2675 518.002 52.3972ZM524.433 52.319C524.438 52.5115 524.5 52.6983 524.612 52.8561C524.724 53.0139 524.881 53.1358 525.062 53.2065C525.244 53.2771 525.443 53.2935 525.634 53.2535C525.825 53.2135 526 53.1189 526.137 52.9816C526.274 52.8442 526.367 52.6702 526.404 52.4811C526.441 52.2921 526.421 52.0965 526.346 51.9188C526.271 51.741 526.144 51.589 525.982 51.4816C525.82 51.3742 525.629 51.3163 525.434 51.3151C525.301 51.3142 525.169 51.3398 525.046 51.3901C524.923 51.4405 524.811 51.5147 524.718 51.6084C524.624 51.702 524.551 51.8132 524.502 51.9352C524.453 52.0573 524.43 52.1878 524.433 52.319ZM530.608 50.3893C530.611 50.5832 530.671 50.7722 530.782 50.9324C530.893 51.0927 531.049 51.2172 531.232 51.2903C531.414 51.3635 531.614 51.382 531.807 51.3435C532 51.3051 532.177 51.2115 532.317 51.0743C532.456 50.9372 532.551 50.7626 532.59 50.5725C532.629 50.3823 532.61 50.1851 532.536 50.0055C532.462 49.8258 532.335 49.6717 532.173 49.5625C532.01 49.4532 531.818 49.3937 531.621 49.3913C531.49 49.3905 531.359 49.4155 531.237 49.4647C531.116 49.514 531.005 49.5866 530.912 49.6783C530.819 49.77 530.745 49.879 530.695 49.999C530.645 50.119 530.62 50.2475 530.621 50.3772M535.539 46.4816C535.539 46.6766 535.597 46.8672 535.707 47.0294C535.817 47.1915 535.974 47.3179 536.157 47.3925C536.339 47.4671 536.541 47.4866 536.735 47.4486C536.929 47.4105 537.107 47.3167 537.247 47.1788C537.387 47.0409 537.482 46.8652 537.521 46.674C537.56 46.4827 537.54 46.2845 537.464 46.1043C537.388 45.9242 537.26 45.7702 537.095 45.6618C536.931 45.5535 536.737 45.4957 536.539 45.4957C536.408 45.4949 536.277 45.5198 536.156 45.5691C536.034 45.6184 535.923 45.691 535.83 45.7827C535.737 45.8744 535.663 45.9834 535.613 46.1034C535.563 46.2233 535.538 46.3519 535.539 46.4816ZM535.472 24.6589C535.473 24.8524 535.532 25.0413 535.642 25.2017C535.752 25.362 535.908 25.4867 536.09 25.5599C536.272 25.6332 536.471 25.6517 536.664 25.6132C536.857 25.5747 537.033 25.4809 537.172 25.3437C537.31 25.2064 537.404 25.0318 537.442 24.8419C537.48 24.6519 537.46 24.4552 537.385 24.2765C537.309 24.0978 537.182 23.9451 537.018 23.8377C536.855 23.7303 536.663 23.673 536.466 23.673C536.335 23.673 536.205 23.6985 536.084 23.7481C535.963 23.7977 535.853 23.8705 535.761 23.9621C535.668 24.0537 535.595 24.1625 535.546 24.282C535.496 24.4016 535.471 24.5297 535.472 24.6589ZM528.485 22.0618C528.484 21.8148 528.408 21.5736 528.268 21.3687C528.128 21.1639 527.929 21.0046 527.697 20.9108C527.465 20.8171 527.21 20.7932 526.964 20.8421C526.718 20.8911 526.493 21.0106 526.316 21.1857C526.139 21.3609 526.019 21.5837 525.97 21.8261C525.922 22.0685 525.947 22.3196 526.044 22.5477C526.14 22.7759 526.303 22.9708 526.511 23.1079C526.72 23.2451 526.965 23.3183 527.216 23.3183C527.383 23.3183 527.548 23.2857 527.703 23.2225C527.857 23.1593 527.997 23.0666 528.115 22.9499C528.233 22.8331 528.327 22.6946 528.39 22.5422C528.453 22.3898 528.486 22.2265 528.485 22.0618ZM532.756 24.6529C532.755 24.4058 532.68 24.1647 532.539 23.9598C532.399 23.755 532.201 23.5956 531.968 23.5019C531.736 23.4082 531.481 23.3843 531.236 23.4332C530.99 23.4821 530.764 23.6017 530.587 23.7768C530.411 23.9519 530.29 24.1747 530.242 24.4171C530.193 24.6595 530.219 24.9107 530.315 25.1388C530.411 25.3669 530.574 25.5619 530.782 25.699C530.991 25.8361 531.236 25.9093 531.487 25.9093C531.654 25.9093 531.82 25.8768 531.974 25.8136C532.129 25.7504 532.269 25.6577 532.387 25.541C532.505 25.4242 532.598 25.2857 532.661 25.1333C532.725 24.9808 532.757 24.8176 532.756 24.6529ZM536.088 28.3501C536.088 28.1016 536.013 27.8587 535.873 27.6521C535.733 27.4454 535.534 27.2844 535.301 27.1893C535.068 27.0942 534.811 27.0693 534.564 27.1178C534.316 27.1663 534.089 27.2859 533.911 27.4617C533.732 27.6374 533.611 27.8613 533.562 28.105C533.513 28.3487 533.538 28.6014 533.634 28.8309C533.731 29.0605 533.894 29.2568 534.104 29.3948C534.314 29.5329 534.56 29.6066 534.813 29.6066C534.98 29.6074 535.146 29.5754 535.302 29.5126C535.457 29.4497 535.598 29.3572 535.716 29.2403C535.835 29.1235 535.929 28.9847 535.992 28.8319C536.056 28.6791 536.089 28.5153 536.088 28.3501ZM526.953 14.2886C526.962 14.2011 526.935 14.1138 526.879 14.0453C526.824 13.9767 526.743 13.9325 526.654 13.9219C526.564 13.9151 526.474 13.9434 526.405 14.0007C526.335 14.0579 526.291 14.1397 526.282 14.2285C526.275 14.3175 526.304 14.4056 526.362 14.4741C526.42 14.5426 526.503 14.5861 526.593 14.5952C526.637 14.5993 526.682 14.5948 526.724 14.5819C526.766 14.569 526.806 14.548 526.84 14.52C526.874 14.4921 526.902 14.4578 526.922 14.4191C526.943 14.3804 526.955 14.3381 526.959 14.2946M535.466 17.3366C535.47 17.2931 535.465 17.2493 535.452 17.2076C535.439 17.1659 535.418 17.1271 535.389 17.0936C535.361 17.0601 535.326 17.0324 535.287 17.0122C535.247 16.992 535.205 16.9796 535.16 16.9759C535.07 16.979 534.985 17.0164 534.922 17.0804C534.86 17.1443 534.825 17.2297 534.825 17.3185C534.827 17.3959 534.857 17.4701 534.908 17.5291C534.959 17.5881 535.028 17.6283 535.105 17.6432C535.195 17.6498 535.284 17.6214 535.352 17.564C535.421 17.5066 535.464 17.4249 535.472 17.3366M542.153 22.0618C542.157 22.0176 542.153 21.9729 542.139 21.9305C542.126 21.8881 542.104 21.8487 542.075 21.8146C542.046 21.7805 542.011 21.7524 541.971 21.7319C541.931 21.7114 541.887 21.6989 541.842 21.6951C541.798 21.691 541.753 21.6955 541.711 21.7084C541.669 21.7213 541.63 21.7423 541.595 21.7702C541.561 21.7982 541.533 21.8325 541.513 21.8712C541.492 21.9099 541.48 21.9522 541.476 21.9957C541.46 22.0832 541.479 22.1736 541.529 22.2476C541.579 22.3217 541.656 22.3736 541.744 22.3925C541.834 22.4068 541.926 22.3867 542.001 22.3364C542.076 22.286 542.128 22.2093 542.147 22.1219C542.15 22.1 542.15 22.0777 542.147 22.0558M530.584 17.6913C530.591 17.5663 530.56 17.4422 530.495 17.3343C530.431 17.2265 530.336 17.1397 530.222 17.0849C530.108 17.03 529.979 17.0094 529.854 17.0258C529.728 17.0421 529.609 17.0946 529.514 17.1767C529.418 17.2588 529.349 17.3669 529.315 17.4875C529.281 17.6081 529.284 17.7358 529.323 17.8548C529.362 17.9738 529.436 18.0787 529.536 18.1565C529.635 18.2344 529.756 18.2816 529.882 18.2924C529.969 18.2998 530.056 18.29 530.138 18.2635C530.221 18.2371 530.297 18.1945 530.362 18.1384C530.428 18.0823 530.481 18.0138 530.519 17.937C530.557 17.8602 530.579 17.7766 530.584 17.6913ZM537.07 20.8895C537.078 20.8044 537.068 20.7186 537.041 20.6373C537.014 20.556 536.971 20.4809 536.914 20.4164C536.857 20.3519 536.788 20.2993 536.71 20.2618C536.632 20.2243 536.547 20.2027 536.46 20.1982C536.374 20.1837 536.287 20.1865 536.202 20.2063C536.118 20.226 536.038 20.2624 535.968 20.3131C535.898 20.3639 535.839 20.4281 535.795 20.5018C535.75 20.5755 535.722 20.6572 535.71 20.7421C535.699 20.827 535.705 20.9133 535.728 20.9959C535.751 21.0784 535.791 21.1555 535.845 21.2226C535.899 21.2897 535.966 21.3453 536.042 21.3862C536.119 21.4271 536.203 21.4524 536.289 21.4606H536.35C536.436 21.468 536.523 21.4581 536.605 21.4316C536.687 21.4051 536.763 21.3625 536.828 21.3063C536.893 21.2501 536.946 21.1816 536.984 21.1048C537.021 21.028 537.042 20.9445 537.046 20.8595M541.488 25.4104C541.361 25.4037 541.235 25.4341 541.126 25.4975C541.016 25.561 540.928 25.6548 540.873 25.7673C540.817 25.8797 540.796 26.0058 540.813 26.1299C540.829 26.2539 540.883 26.3704 540.966 26.4649C541.049 26.5593 541.159 26.6274 541.281 26.6608C541.404 26.6942 541.533 26.6914 541.654 26.6527C541.775 26.614 541.881 26.5411 541.96 26.4431C542.039 26.3451 542.087 26.2264 542.098 26.1017C542.106 26.0166 542.096 25.9308 542.069 25.8495C542.042 25.7682 541.999 25.6931 541.942 25.6286C541.885 25.5641 541.816 25.5115 541.738 25.474C541.66 25.4365 541.575 25.4149 541.488 25.4104ZM522.139 15.9358C522.01 15.9346 521.883 15.9712 521.775 16.0409C521.667 16.1106 521.582 16.2103 521.532 16.3274C521.481 16.4444 521.467 16.5736 521.491 16.6986C521.515 16.8237 521.576 16.9388 521.667 17.0296C521.757 17.1204 521.873 17.1828 521.999 17.2087C522.126 17.2347 522.257 17.2232 522.377 17.1756C522.497 17.128 522.599 17.0465 522.672 16.9414C522.745 16.8363 522.784 16.7123 522.786 16.5851C522.786 16.5012 522.77 16.418 522.738 16.3403C522.706 16.2626 522.658 16.192 522.598 16.1327C522.538 16.0734 522.466 16.0265 522.387 15.9947C522.308 15.963 522.224 15.947 522.139 15.9478M518.99 17.6973C518.792 17.6961 518.598 17.7527 518.433 17.8601C518.268 17.9674 518.139 18.1206 518.062 18.3003C517.985 18.48 517.964 18.6781 518.001 18.8696C518.039 19.0611 518.133 19.2373 518.272 19.3761C518.411 19.5148 518.589 19.6098 518.783 19.649C518.977 19.6882 519.178 19.6699 519.361 19.5963C519.545 19.5228 519.702 19.3974 519.813 19.2359C519.924 19.0745 519.984 18.8842 519.985 18.6892C519.985 18.4293 519.88 18.1801 519.693 17.9963C519.507 17.8125 519.254 17.7093 518.99 17.7093M512.675 19.7833C512.477 19.7822 512.283 19.8388 512.118 19.9462C511.952 20.0535 511.823 20.2067 511.746 20.3864C511.669 20.5661 511.648 20.7642 511.686 20.9557C511.723 21.1472 511.817 21.3234 511.957 21.4622C512.096 21.6009 512.273 21.6958 512.467 21.7351C512.661 21.7743 512.862 21.7559 513.046 21.6824C513.229 21.6089 513.386 21.4835 513.497 21.322C513.608 21.1605 513.668 20.9703 513.669 20.7753C513.668 20.5153 513.562 20.2664 513.376 20.082C513.19 19.8976 512.938 19.7925 512.675 19.7894M503.43 34.6204C503.232 34.6192 503.038 34.6759 502.873 34.7832C502.708 34.8906 502.579 35.0438 502.502 35.2235C502.425 35.4032 502.404 35.6013 502.441 35.7928C502.479 35.9842 502.573 36.1605 502.712 36.2992C502.851 36.4379 503.029 36.5329 503.223 36.5721C503.417 36.6113 503.618 36.593 503.801 36.5195C503.985 36.4459 504.142 36.3205 504.253 36.1591C504.364 35.9976 504.423 35.8073 504.425 35.6123C504.425 35.4836 504.399 35.3562 504.349 35.2373C504.299 35.1184 504.226 35.0104 504.133 34.9194C504.041 34.8284 503.931 34.7563 503.811 34.707C503.69 34.6578 503.561 34.6324 503.43 34.6324M504.65 28.8431C504.452 28.8419 504.259 28.8986 504.093 29.0059C503.928 29.1133 503.799 29.2665 503.722 29.4462C503.645 29.6259 503.624 29.824 503.662 30.0154C503.699 30.2069 503.793 30.3832 503.932 30.5219C504.071 30.6606 504.249 30.7556 504.443 30.7948C504.637 30.834 504.838 30.8157 505.022 30.7422C505.205 30.6686 505.362 30.5432 505.473 30.3817C505.584 30.2203 505.644 30.03 505.645 29.835C505.652 29.5771 505.555 29.3271 505.375 29.1391C505.196 28.9512 504.949 28.8405 504.687 28.8311M507.866 23.6669C507.668 23.6658 507.474 23.7224 507.309 23.8298C507.144 23.9371 507.015 24.0903 506.938 24.27C506.861 24.4497 506.84 24.6478 506.877 24.8393C506.915 25.0308 507.009 25.207 507.148 25.3458C507.287 25.4845 507.465 25.5794 507.659 25.6187C507.853 25.6579 508.054 25.6396 508.237 25.566C508.421 25.4925 508.578 25.3671 508.689 25.2056C508.8 25.0441 508.86 24.8539 508.861 24.6589C508.859 24.3989 508.754 24.15 508.568 23.9656C508.382 23.7812 508.13 23.6761 507.866 23.673M522.139 51.1227C522.391 51.1239 522.638 51.0513 522.848 50.9143C523.059 50.7772 523.223 50.5817 523.321 50.3526C523.418 50.1235 523.445 49.871 523.397 49.627C523.349 49.3831 523.228 49.1586 523.051 48.9821C522.873 48.8055 522.647 48.6848 522.4 48.6351C522.152 48.5855 521.896 48.6091 521.662 48.7031C521.429 48.7971 521.229 48.9572 521.088 49.1632C520.947 49.3692 520.871 49.6117 520.87 49.8602C520.87 50.1924 521.003 50.5111 521.241 50.7466C521.479 50.982 521.802 51.1151 522.139 51.1167M522.139 22.5728C522.391 22.574 522.638 22.5015 522.848 22.3644C523.059 22.2273 523.223 22.0319 523.321 21.8027C523.418 21.5736 523.445 21.3211 523.397 21.0771C523.349 20.8332 523.228 20.6087 523.051 20.4322C522.873 20.2556 522.647 20.1349 522.4 20.0852C522.152 20.0356 521.896 20.0593 521.662 20.1533C521.429 20.2473 521.229 20.4074 521.088 20.6133C520.947 20.8193 520.871 21.0618 520.87 21.3103C520.87 21.6425 521.003 21.9612 521.241 22.1967C521.479 22.4321 521.802 22.5652 522.139 22.5668M517.074 23.3062C517.326 23.3074 517.573 23.2349 517.784 23.0978C517.994 22.9608 518.158 22.7653 518.256 22.5362C518.354 22.307 518.38 22.0545 518.332 21.8106C518.284 21.5666 518.164 21.3422 517.986 21.1656C517.809 20.9891 517.582 20.8683 517.335 20.8187C517.088 20.769 516.831 20.7927 516.598 20.8867C516.364 20.9807 516.164 21.1408 516.023 21.3467C515.882 21.5527 515.806 21.7953 515.805 22.0438C515.804 22.208 515.836 22.3707 515.899 22.5228C515.962 22.6748 516.055 22.8131 516.172 22.9297C516.29 23.0464 516.429 23.1392 516.583 23.2028C516.736 23.2663 516.901 23.2994 517.068 23.3002M512.797 25.8913C513.049 25.8925 513.296 25.82 513.506 25.6829C513.716 25.5458 513.881 25.3504 513.979 25.1212C514.076 24.8921 514.103 24.6396 514.055 24.3956C514.007 24.1517 513.886 23.9272 513.709 23.7507C513.531 23.5741 513.305 23.4534 513.057 23.4037C512.81 23.3541 512.554 23.3778 512.32 23.4718C512.087 23.5657 511.887 23.7258 511.746 23.9318C511.605 24.1378 511.529 24.3803 511.527 24.6288C511.527 24.793 511.559 24.9558 511.622 25.1078C511.685 25.2598 511.777 25.3981 511.895 25.5148C512.012 25.6315 512.152 25.7242 512.305 25.7878C512.459 25.8514 512.624 25.8845 512.79 25.8853M509.422 29.6006C509.675 29.6112 509.926 29.5475 510.142 29.4174C510.358 29.2873 510.53 29.0968 510.635 28.8702C510.741 28.6435 510.776 28.391 510.736 28.1447C510.695 27.8984 510.581 27.6696 510.408 27.4873C510.236 27.3051 510.011 27.1777 509.765 27.1213C509.518 27.0649 509.26 27.0822 509.023 27.1708C508.787 27.2595 508.582 27.4156 508.436 27.6192C508.29 27.8228 508.208 28.0647 508.202 28.314C508.201 28.4783 508.233 28.641 508.296 28.793C508.359 28.945 508.452 29.0833 508.569 29.2C508.686 29.3167 508.826 29.4095 508.98 29.473C509.133 29.5366 509.298 29.5697 509.465 29.5705M508.08 34.2416C508.332 34.2428 508.579 34.1703 508.789 34.0332C509 33.8962 509.164 33.7007 509.262 33.4716C509.359 33.2424 509.386 32.9899 509.338 32.746C509.29 32.502 509.169 32.2776 508.992 32.101C508.814 31.9245 508.588 31.8037 508.341 31.7541C508.093 31.7044 507.837 31.7281 507.603 31.8221C507.37 31.9161 507.17 32.0762 507.029 32.2822C506.888 32.4881 506.812 32.7307 506.81 32.9792C506.81 33.1434 506.843 33.306 506.907 33.4577C506.971 33.6094 507.064 33.7473 507.182 33.8634C507.3 33.9795 507.44 34.0716 507.594 34.1344C507.748 34.1973 507.913 34.2296 508.08 34.2296M517.69 14.5952C517.781 14.5861 517.863 14.5426 517.922 14.4741C517.98 14.4056 518.008 14.3175 518.002 14.2285C517.992 14.1397 517.948 14.0579 517.879 14.0007C517.809 13.9434 517.72 13.9151 517.629 13.9219C517.585 13.9256 517.541 13.9381 517.501 13.9587C517.462 13.9793 517.427 14.0075 517.398 14.0417C517.37 14.0759 517.349 14.1154 517.336 14.1578C517.323 14.2002 517.319 14.2447 517.324 14.2886C517.327 14.3321 517.339 14.3745 517.359 14.4134C517.379 14.4524 517.406 14.4871 517.44 14.5156C517.473 14.5441 517.512 14.5658 517.554 14.5795C517.596 14.5931 517.64 14.5985 517.684 14.5952M509.184 17.6371C509.228 17.6341 509.271 17.6225 509.311 17.603C509.35 17.5835 509.386 17.5565 509.415 17.5235C509.444 17.4906 509.466 17.4523 509.479 17.4109C509.493 17.3696 509.499 17.3259 509.495 17.2825C509.488 17.1942 509.445 17.1124 509.376 17.055C509.308 16.9976 509.219 16.9692 509.129 16.9759C509.085 16.9789 509.042 16.9905 509.003 17.01C508.963 17.0295 508.928 17.0565 508.899 17.0895C508.87 17.1224 508.848 17.1607 508.834 17.2021C508.82 17.2434 508.815 17.2871 508.818 17.3305C508.826 17.4188 508.869 17.5006 508.937 17.558C509.006 17.6154 509.094 17.6438 509.184 17.6371ZM546.028 43.9146C546.119 43.9146 546.206 43.8791 546.27 43.816C546.334 43.7528 546.37 43.6672 546.37 43.5779C546.37 43.4886 546.334 43.403 546.27 43.3399C546.206 43.2767 546.119 43.2413 546.028 43.2413H545.955C545.911 43.2443 545.868 43.2559 545.828 43.2754C545.789 43.2949 545.753 43.3219 545.724 43.3549C545.695 43.3878 545.673 43.4261 545.66 43.4675C545.646 43.5089 545.64 43.5525 545.644 43.596C545.651 43.6843 545.694 43.766 545.763 43.8234C545.831 43.8808 545.92 43.9092 546.01 43.9026M541.934 49.4935C542.023 49.4829 542.105 49.4391 542.163 49.3709C542.221 49.3028 542.25 49.2155 542.245 49.1268C542.236 49.038 542.191 48.9562 542.122 48.899C542.052 48.8417 541.963 48.8135 541.873 48.8202C541.782 48.8293 541.7 48.8728 541.641 48.9413C541.583 49.0097 541.555 49.0979 541.561 49.1869C541.565 49.2312 541.578 49.2743 541.599 49.3137C541.62 49.3531 541.648 49.3881 541.683 49.4166C541.717 49.4451 541.757 49.4666 541.8 49.4798C541.843 49.493 541.889 49.4976 541.934 49.4935ZM535.148 54.2007C535.192 54.1977 535.235 54.1861 535.275 54.1666C535.314 54.1471 535.35 54.1201 535.379 54.0871C535.408 54.0541 535.43 54.0159 535.443 53.9745C535.457 53.9331 535.463 53.8895 535.459 53.846C535.459 53.7567 535.423 53.6711 535.359 53.608C535.295 53.5448 535.208 53.5094 535.118 53.5094C535.027 53.5094 534.94 53.5448 534.876 53.608C534.812 53.6711 534.776 53.7567 534.776 53.846C534.773 53.868 534.773 53.8902 534.776 53.9122C534.78 53.9556 534.792 53.998 534.813 54.0366C534.833 54.0753 534.861 54.1096 534.895 54.1376C534.93 54.1655 534.969 54.1866 535.011 54.1995C535.053 54.2124 535.098 54.2169 535.142 54.2127M526.654 57.2066C526.745 57.1994 526.829 57.1571 526.888 57.0889C526.947 57.0207 526.976 56.9322 526.968 56.8429C526.961 56.7536 526.918 56.6708 526.849 56.6128C526.78 56.5547 526.69 56.5261 526.599 56.5333C526.509 56.5405 526.425 56.5828 526.366 56.651C526.307 56.7192 526.278 56.8077 526.285 56.897C526.292 56.9863 526.335 57.0691 526.405 57.1271C526.474 57.1852 526.564 57.2138 526.654 57.2066ZM517.696 57.2066C517.787 57.1986 517.871 57.1555 517.929 57.0867C517.988 57.018 518.016 56.9292 518.008 56.8399C518 56.7506 517.956 56.6681 517.886 56.6106C517.816 56.5531 517.726 56.5253 517.635 56.5333C517.591 56.5368 517.547 56.5491 517.507 56.5693C517.467 56.5895 517.431 56.6172 517.402 56.651C517.343 56.7192 517.314 56.8077 517.321 56.897C517.328 56.9863 517.371 57.0691 517.441 57.1271C517.51 57.1852 517.6 57.2138 517.69 57.2066M509.184 54.1586C509.228 54.1556 509.271 54.144 509.311 54.1245C509.35 54.105 509.386 54.078 509.415 54.045C509.444 54.0121 509.466 53.9738 509.479 53.9324C509.493 53.891 509.499 53.8474 509.495 53.8039C509.488 53.7156 509.445 53.6339 509.376 53.5765C509.308 53.5191 509.219 53.4907 509.129 53.4973C509.085 53.5004 509.042 53.512 509.003 53.5315C508.963 53.551 508.928 53.578 508.899 53.611C508.87 53.6439 508.848 53.6822 508.834 53.7236C508.82 53.7649 508.815 53.8086 508.818 53.852C508.826 53.9403 508.869 54.022 508.937 54.0794C509.006 54.1368 509.094 54.1653 509.184 54.1586ZM502.472 49.4394C502.517 49.4364 502.561 49.4246 502.601 49.4048C502.641 49.385 502.677 49.3575 502.707 49.324C502.736 49.2905 502.759 49.2516 502.773 49.2095C502.787 49.1674 502.793 49.1229 502.789 49.0787C502.786 49.0345 502.774 48.9913 502.754 48.9517C502.734 48.9121 502.706 48.8767 502.672 48.8477C502.638 48.8187 502.598 48.7965 502.556 48.7825C502.513 48.7685 502.468 48.7629 502.423 48.7661C502.378 48.7692 502.334 48.7811 502.294 48.8009C502.254 48.8207 502.218 48.8482 502.189 48.8817C502.159 48.9152 502.137 48.9541 502.123 48.9961C502.108 49.0382 502.103 49.0826 502.106 49.1268C502.114 49.2151 502.156 49.2968 502.225 49.3542C502.294 49.4116 502.382 49.44 502.472 49.4334M498.274 43.9086C498.364 43.9086 498.451 43.8731 498.515 43.81C498.579 43.7468 498.615 43.6612 498.615 43.5719C498.615 43.4826 498.579 43.397 498.515 43.3339C498.451 43.2707 498.364 43.2353 498.274 43.2353H498.201C498.118 43.2507 498.044 43.2959 497.992 43.362C497.941 43.428 497.917 43.5104 497.924 43.5932C497.93 43.676 497.968 43.7534 498.029 43.8105C498.091 43.8677 498.171 43.9004 498.255 43.9026M502.502 22.3383C502.547 22.3353 502.591 22.3235 502.632 22.3037C502.672 22.2839 502.708 22.2565 502.737 22.223C502.767 22.1895 502.789 22.1505 502.803 22.1084C502.818 22.0663 502.823 22.0219 502.82 21.9776C502.817 21.9334 502.805 21.8903 502.784 21.8506C502.764 21.811 502.736 21.7757 502.702 21.7466C502.668 21.7176 502.629 21.6955 502.586 21.6815C502.544 21.6675 502.499 21.6619 502.454 21.665C502.409 21.6682 502.365 21.68 502.325 21.6999C502.285 21.7197 502.249 21.7471 502.219 21.7806C502.19 21.8141 502.167 21.853 502.153 21.8951C502.139 21.9371 502.133 21.9815 502.136 22.0257C502.144 22.114 502.187 22.1957 502.255 22.2531C502.324 22.3105 502.413 22.339 502.502 22.3323M514.395 18.2383C514.56 18.2168 514.71 18.1335 514.814 18.0057C514.919 17.878 514.969 17.7157 514.955 17.5525C514.94 17.3892 514.863 17.2376 514.738 17.1291C514.614 17.0206 514.452 16.9636 514.285 16.9698C514.123 16.9919 513.976 17.0737 513.873 17.1986C513.769 17.3236 513.718 17.4825 513.729 17.6433C513.739 17.8041 513.812 17.9549 513.931 18.0653C514.05 18.1757 514.207 18.2375 514.371 18.2383M507.878 21.4366C508.037 21.4287 508.187 21.36 508.295 21.245C508.403 21.13 508.462 20.9779 508.458 20.8211C508.454 20.6643 508.388 20.5153 508.274 20.4058C508.16 20.2963 508.007 20.235 507.848 20.235C507.689 20.235 507.536 20.2963 507.422 20.4058C507.308 20.5153 507.242 20.6643 507.238 20.8211C507.234 20.9779 507.292 21.13 507.4 21.245C507.509 21.36 507.658 21.4287 507.817 21.4366H507.878ZM502.155 26.1017C502.155 26.2612 502.219 26.4141 502.333 26.5268C502.448 26.6396 502.603 26.7029 502.765 26.7029H502.856C502.945 26.7016 503.032 26.6826 503.112 26.6469C503.193 26.6112 503.265 26.5597 503.324 26.4955C503.384 26.4313 503.43 26.3558 503.458 26.2736C503.487 26.1914 503.499 26.1042 503.492 26.0175C503.485 25.9308 503.461 25.8464 503.42 25.7694C503.378 25.6924 503.322 25.6245 503.253 25.5699C503.185 25.5153 503.105 25.4751 503.02 25.4518C502.935 25.4285 502.846 25.4226 502.759 25.4344C502.588 25.4437 502.428 25.5191 502.314 25.6441C502.2 25.7692 502.14 25.9336 502.149 26.1017M544.039 38.2094C543.954 38.2165 543.871 38.24 543.795 38.2786C543.72 38.3172 543.653 38.3701 543.598 38.4343C543.543 38.4985 543.501 38.5728 543.475 38.6528C543.449 38.7328 543.44 38.8171 543.447 38.9008C543.454 38.9845 543.478 39.0659 543.517 39.1405C543.556 39.2151 543.61 39.2814 543.675 39.3355C543.74 39.3897 543.816 39.4306 543.897 39.4561C543.978 39.4816 544.064 39.491 544.149 39.4839C544.32 39.4696 544.479 39.3887 544.59 39.259C544.701 39.1294 544.755 38.9616 544.741 38.7926C544.726 38.6235 544.644 38.4672 544.512 38.3578C544.381 38.2484 544.21 38.1951 544.039 38.2094ZM541.525 44.4015C541.36 44.4231 541.21 44.5064 541.106 44.6341C541.002 44.7618 540.951 44.9242 540.965 45.0874C540.98 45.2506 541.057 45.4022 541.182 45.5107C541.306 45.6192 541.468 45.6763 541.635 45.67C541.797 45.6479 541.944 45.5662 542.048 45.4412C542.151 45.3163 542.202 45.1574 542.191 44.9966C542.181 44.8358 542.108 44.685 541.989 44.5746C541.87 44.4641 541.713 44.4023 541.549 44.4015M536.527 49.6618C536.439 49.6631 536.352 49.6822 536.271 49.7178C536.191 49.7535 536.119 49.805 536.059 49.8692C536 49.9334 535.954 50.009 535.925 50.0912C535.897 50.1734 535.885 50.2605 535.892 50.3472C535.898 50.4339 535.923 50.5183 535.964 50.5953C536.005 50.6723 536.062 50.7402 536.13 50.7948C536.199 50.8495 536.278 50.8897 536.363 50.913C536.448 50.9363 536.537 50.9422 536.625 50.9303C536.795 50.921 536.955 50.8456 537.07 50.7206C537.184 50.5956 537.243 50.4311 537.235 50.263C537.235 50.1036 537.171 49.9507 537.056 49.8379C536.942 49.7252 536.787 49.6618 536.625 49.6618H536.533M529.888 52.8661C529.718 52.8754 529.558 52.9508 529.444 53.0758C529.329 53.2009 529.27 53.3653 529.278 53.5334C529.285 53.7024 529.359 53.862 529.485 53.977C529.611 54.092 529.778 54.153 529.949 54.1466C530.121 54.1402 530.283 54.067 530.4 53.943C530.516 53.8189 530.578 53.6543 530.572 53.4853C530.572 53.4853 530.572 53.4432 530.572 53.4252C530.568 53.3423 530.547 53.2609 530.511 53.1858C530.476 53.1107 530.425 53.0433 530.363 52.9874C530.3 52.9316 530.227 52.8884 530.148 52.8604C530.069 52.8323 529.985 52.82 529.9 52.824M522.066 53.9001C521.981 53.9033 521.897 53.9229 521.82 53.9578C521.743 53.9928 521.673 54.0424 521.615 54.1038C521.557 54.1652 521.513 54.2372 521.483 54.3157C521.453 54.3942 521.44 54.4777 521.443 54.5614C521.446 54.6451 521.466 54.7274 521.502 54.8035C521.537 54.8796 521.587 54.948 521.65 55.005C521.712 55.0619 521.785 55.1062 521.865 55.1353C521.945 55.1644 522.029 55.1778 522.114 55.1746H522.175C522.34 55.1531 522.49 55.0698 522.594 54.942C522.699 54.8143 522.749 54.652 522.735 54.4888C522.721 54.3255 522.643 54.1739 522.519 54.0654C522.394 53.9569 522.232 53.8999 522.066 53.9061M514.572 53.0585C514.446 53.0693 514.325 53.1165 514.226 53.1944C514.126 53.2722 514.052 53.3771 514.013 53.4961C513.974 53.6151 513.971 53.7429 514.005 53.8634C514.039 53.984 514.108 54.0921 514.204 54.1742C514.299 54.2563 514.418 54.3088 514.544 54.3251C514.67 54.3415 514.798 54.3209 514.912 54.2661C515.026 54.2112 515.121 54.1244 515.185 54.0166C515.25 53.9087 515.281 53.7846 515.274 53.6597C515.269 53.5743 515.247 53.4907 515.209 53.4139C515.171 53.3371 515.118 53.2686 515.052 53.2125C514.987 53.1564 514.911 53.1139 514.828 53.0874C514.746 53.0609 514.659 53.0511 514.572 53.0585ZM507.793 49.6859C507.621 49.6923 507.459 49.7655 507.343 49.8895C507.226 50.0135 507.164 50.1782 507.171 50.3472C507.177 50.5162 507.251 50.6757 507.377 50.7907C507.503 50.9057 507.67 50.9668 507.842 50.9604H507.903C508.068 50.9388 508.218 50.8555 508.322 50.7278C508.426 50.6001 508.476 50.4377 508.462 50.2745C508.448 50.1113 508.371 49.9597 508.246 49.8512C508.121 49.7427 507.959 49.6856 507.793 49.6919M502.759 44.4256C502.594 44.4472 502.444 44.5304 502.34 44.6582C502.236 44.7859 502.185 44.9482 502.199 45.1114C502.214 45.2747 502.291 45.4263 502.416 45.5348C502.54 45.6433 502.702 45.7003 502.869 45.6941C503.031 45.672 503.178 45.5902 503.281 45.4653C503.385 45.3403 503.436 45.1814 503.425 45.0206C503.415 44.8598 503.342 44.709 503.223 44.5986C503.104 44.4882 502.947 44.4264 502.783 44.4256M499.976 32.2157C499.811 32.2373 499.661 32.3205 499.557 32.4483C499.453 32.576 499.403 32.7383 499.417 32.9015C499.431 33.0648 499.508 33.2164 499.633 33.3249C499.758 33.4334 499.92 33.4904 500.086 33.4842C500.248 33.4621 500.396 33.3803 500.499 33.2554C500.602 33.1304 500.654 32.9715 500.643 32.8107C500.632 32.6499 500.56 32.4991 500.441 32.3887C500.321 32.2783 500.164 32.2165 500.001 32.2157M518.392 49.0486C518.392 48.8013 518.318 48.5596 518.178 48.3539C518.039 48.1483 517.841 47.988 517.609 47.8934C517.377 47.7987 517.121 47.774 516.875 47.8222C516.629 47.8705 516.403 47.9896 516.225 48.1644C516.048 48.3393 515.927 48.5621 515.878 48.8047C515.829 49.0472 515.854 49.2987 515.95 49.5272C516.046 49.7556 516.209 49.9509 516.418 50.0883C516.626 50.2257 516.872 50.2991 517.123 50.2991C517.459 50.2991 517.782 50.1673 518.02 49.9328C518.258 49.6983 518.392 49.3803 518.392 49.0486ZM527.155 47.7922C526.902 47.791 526.655 47.8635 526.445 48.0006C526.235 48.1377 526.07 48.3331 525.973 48.5622C525.875 48.7914 525.848 49.0439 525.896 49.2878C525.945 49.5318 526.065 49.7563 526.242 49.9328C526.42 50.1094 526.647 50.2301 526.894 50.2797C527.141 50.3294 527.397 50.3057 527.631 50.2117C527.864 50.1177 528.064 49.9576 528.205 49.7517C528.347 49.5457 528.423 49.3031 528.424 49.0546C528.425 48.8904 528.393 48.7277 528.33 48.5757C528.266 48.4236 528.174 48.2854 528.056 48.1687C527.939 48.052 527.8 47.9592 527.646 47.8957C527.492 47.8321 527.327 47.799 527.161 47.7982M531.511 45.3093C531.258 45.3034 531.009 45.3717 530.796 45.5055C530.583 45.6394 530.414 45.8328 530.313 46.061C530.211 46.2893 530.181 46.5422 530.226 46.7876C530.27 47.0329 530.388 47.2596 530.564 47.4388C530.74 47.618 530.966 47.7416 531.213 47.7939C531.461 47.8462 531.718 47.8249 531.953 47.7326C532.188 47.6403 532.39 47.4812 532.533 47.2755C532.676 47.0699 532.754 46.827 532.756 46.5778C532.759 46.409 532.727 46.2414 532.662 46.0849C532.598 45.9285 532.502 45.7863 532.381 45.6669C532.26 45.5475 532.116 45.4533 531.957 45.3898C531.798 45.3263 531.628 45.2949 531.456 45.2973M536.07 42.7784C536.068 42.5313 535.993 42.2901 535.853 42.0853C535.713 41.8805 535.514 41.7211 535.282 41.6274C535.05 41.5337 534.795 41.5098 534.549 41.5587C534.303 41.6076 534.078 41.7272 533.901 41.9023C533.724 42.0774 533.604 42.3002 533.555 42.5426C533.507 42.785 533.532 43.0361 533.628 43.2643C533.725 43.4924 533.887 43.6874 534.096 43.8245C534.304 43.9616 534.55 44.0348 534.8 44.0348C534.968 44.0348 535.133 44.0023 535.288 43.9391C535.442 43.8758 535.582 43.7832 535.7 43.6664C535.818 43.5497 535.911 43.4111 535.975 43.2587C536.038 43.1063 536.07 42.9431 536.07 42.7784ZM512.827 45.2432C512.575 45.242 512.328 45.3145 512.118 45.4516C511.907 45.5887 511.743 45.7841 511.645 46.0133C511.547 46.2424 511.521 46.4949 511.569 46.7389C511.617 46.9828 511.737 47.2073 511.915 47.3838C512.092 47.5604 512.319 47.6811 512.566 47.7308C512.813 47.7804 513.07 47.7567 513.303 47.6627C513.537 47.5687 513.737 47.4086 513.878 47.2027C514.019 46.9967 514.095 46.7542 514.096 46.5057C514.097 46.3414 514.065 46.1787 514.002 46.0267C513.939 45.8747 513.846 45.7364 513.729 45.6197C513.612 45.503 513.472 45.4102 513.318 45.3467C513.165 45.2831 513 45.25 512.833 45.2492M509.465 41.5339C509.212 41.5315 508.963 41.6035 508.752 41.7407C508.54 41.8778 508.375 42.0739 508.277 42.304C508.179 42.534 508.152 42.7877 508.201 43.0325C508.25 43.2774 508.372 43.5023 508.551 43.6788C508.73 43.8552 508.958 43.9751 509.207 44.0232C509.455 44.0713 509.713 44.0454 509.946 43.9488C510.18 43.8523 510.379 43.6894 510.518 43.4809C510.657 43.2724 510.73 43.0279 510.728 42.7784C510.728 42.4467 510.594 42.1287 510.356 41.8942C510.118 41.6597 509.795 41.5279 509.459 41.5279M560.411 30.7548H568.276V41.0951H571.04V30.7548H578.216L578.881 28.9513H561.082L560.411 30.7548ZM496.638 28.9513H493.874V41.0951H506.481L507.158 39.2915H496.638V28.9513ZM522.334 28.9513L528.997 40.9748H531.957L525.293 28.9814L522.334 28.9513ZM512.266 40.9748H515.225L521.882 28.9814H518.923L512.266 40.9748ZM552.008 37.9689L540.414 28.9994H537.638V40.9748H540.402V31.9572L551.996 40.9748H554.754V28.9814H551.996L552.008 37.9689ZM607.866 34.0673H599.396C599.194 34.0855 598.991 34.0643 598.797 34.005C598.603 33.9456 598.424 33.8493 598.268 33.7214C598.112 33.5936 597.983 33.4368 597.889 33.2599C597.795 33.083 597.737 32.8896 597.718 32.6906C597.715 32.6466 597.715 32.6024 597.718 32.5584V32.2217C597.721 32.0249 597.764 31.8306 597.844 31.6501C597.924 31.4696 598.039 31.3065 598.183 31.1701C598.327 31.0337 598.497 30.9268 598.683 30.8555C598.87 30.7843 599.068 30.75 599.268 30.7548H610.801L611.472 28.9513H598.56C596.235 28.9513 595.052 30.4963 595.021 32.0293V32.8229C595.021 34.3799 596.241 35.9911 598.627 35.9911H607.097C607.299 35.9729 607.502 35.9941 607.696 36.0534C607.89 36.1127 608.07 36.2091 608.225 36.3369C608.381 36.4648 608.51 36.6216 608.604 36.7985C608.699 36.9754 608.757 37.1688 608.775 37.3678C608.778 37.4058 608.778 37.444 608.775 37.482V37.8187C608.771 38.0152 608.728 38.2091 608.648 38.3893C608.568 38.5694 608.452 38.7322 608.308 38.8684C608.165 39.0046 607.995 39.1116 607.809 39.1832C607.623 39.2547 607.425 39.2895 607.225 39.2855H595.692L595.021 41.0891H607.933C610.258 41.0891 611.442 39.544 611.472 38.011V37.2115C611.472 35.6604 610.252 34.0493 607.866 34.0493M416.873 34.0493H408.379C408.177 34.0675 407.974 34.0463 407.78 33.9869C407.586 33.9276 407.406 33.8313 407.251 33.7034C407.095 33.5756 406.966 33.4187 406.872 33.2419C406.777 33.065 406.719 32.8715 406.701 32.6726C406.698 32.6346 406.698 32.5964 406.701 32.5584V32.2217C406.704 32.0259 406.746 31.8326 406.825 31.6529C406.904 31.4733 407.019 31.3107 407.161 31.1744C407.304 31.0382 407.473 30.9311 407.658 30.8591C407.843 30.7871 408.04 30.7516 408.239 30.7548H419.784L420.479 28.9513H407.543C405.224 29.0054 404.034 30.5264 404.004 32.0594V32.8529C404.004 34.41 405.224 36.0211 407.61 36.0211H416.08C416.282 36.0029 416.485 36.0241 416.679 36.0835C416.873 36.1428 417.052 36.2391 417.208 36.367C417.364 36.4948 417.493 36.6517 417.587 36.8285C417.681 37.0054 417.739 37.1989 417.758 37.3978C417.761 37.4358 417.761 37.474 417.758 37.5121V37.8487C417.754 38.0453 417.711 38.2392 417.631 38.4193C417.551 38.5994 417.435 38.7623 417.291 38.8985C417.147 39.0347 416.978 39.1417 416.792 39.2132C416.606 39.2848 416.407 39.3196 416.208 39.3156H404.675L404.004 41.1191H416.916C419.241 41.1191 420.424 39.5741 420.455 38.0411V37.2115C420.455 35.6604 419.235 34.0493 416.849 34.0493M584.721 40.9748H587.485V28.9814H584.721V40.9748ZM426.478 30.7548H434.337V41.0951H437.101V30.7548H444.277L444.948 28.9513H427.143L426.478 30.7548ZM464.31 30.7548L464.981 28.9513H450.989V41.0951H464.328L465 39.2915H453.772V35.8829H461.625L462.29 34.1154H453.747V30.7548H464.31ZM476.056 39.3036H486.576L485.899 41.1071H473.292V28.9814H476.056V39.3036Z" fill="white"/>
</g>
<g clip-path="url(#clip2_124_138)">
<path d="M756.179 35.4653C756.179 16.5124 740.813 1.18237 721.896 1.18237C702.943 1.18237 687.613 16.5489 687.613 35.4653C687.613 54.4182 702.98 69.7482 721.896 69.7482C740.813 69.7482 756.179 54.3817 756.179 35.4653ZM694.737 20.5243H711.429L697.667 54.5762H746.235C740.569 61.7853 731.768 66.405 721.872 66.405C704.755 66.405 690.896 52.546 690.896 35.441C690.92 30.0432 692.294 24.9616 694.737 20.5243ZM741.737 35.3437V31.1495H733.336V20.5486H748.994C751.438 24.9737 752.812 30.0554 752.812 35.4775C752.812 40.8995 751.438 45.9812 748.994 50.4063H709.362L723.112 16.3544H697.521C703.186 9.14525 711.988 4.52557 721.884 4.52557C731.756 4.52557 740.569 9.14525 746.247 16.3544H724.121V47.3306H733.36V35.3316H741.737V35.3437Z" fill="white"/>
</g>
<path fill-rule="evenodd" clip-rule="evenodd" d="M832.837 46.2075H839.56L844.042 50.7081L848.523 46.2075H855.246V59.9866H847.991V54.924L844.042 58.8938L840.093 54.9254V59.988H832.836V46.2089L832.837 46.2075ZM882.126 46.2075H889.204L897.175 52.1466V46.2075H904.429V59.9866H897.298L889.379 54.1002V59.9866H882.126V46.2075Z" fill="white"/>
<path fill-rule="evenodd" clip-rule="evenodd" d="M824.621 55.1161C824.621 30.6641 844.353 10.8435 868.696 10.8435C893.04 10.8435 912.772 30.6641 912.772 55.1147C912.772 56.761 912.683 58.3873 912.508 59.9852H907.557C907.754 58.3887 907.856 56.7638 907.856 55.1147C907.856 33.3917 890.324 15.7823 868.696 15.7823C847.068 15.7823 829.539 33.3917 829.539 55.1147C829.539 56.7638 829.638 58.3887 829.836 59.9852H824.884C824.709 58.3681 824.621 56.7427 824.621 55.1161Z" fill="white"/>
<path fill-rule="evenodd" clip-rule="evenodd" d="M864.944 46.2075H872.474L881.404 59.9866H873.861L872.894 58.4855H864.526L863.558 59.9866H856.016L864.944 46.2075ZM868.709 51.9559L867.029 54.5655H870.391L868.709 51.9559Z" fill="white"/>
<path fill-rule="evenodd" clip-rule="evenodd" d="M908.647 59.0163C908.771 57.7328 908.832 56.4337 908.832 55.119C908.832 32.8553 890.864 14.8091 868.7 14.8091C846.534 14.8091 828.566 32.8553 828.566 55.119C828.566 56.4337 828.629 57.7328 828.751 59.0163L829.443 59.6409C829.274 58.1395 829.189 56.6299 829.19 55.119C829.19 33.2011 846.879 15.4351 868.7 15.4351C890.521 15.4351 908.21 33.2011 908.21 55.119C908.21 56.6472 908.125 58.1568 907.957 59.6409L908.647 59.0163Z" fill="white"/>
<path d="M839.418 46.5576H833.188V59.6366H839.744V54.0789L844.044 58.3973L848.344 54.0789V59.6366H854.901V46.5576H848.67L844.045 51.2047L839.418 46.5576ZM889.091 46.5576H882.476V59.6366H889.032V53.4045L897.413 59.6366H904.082V46.5576H897.525V52.8439L889.091 46.5576Z" fill="white"/>
<path fill-rule="evenodd" clip-rule="evenodd" d="M871.035 54.9156H866.388L868.71 51.31L871.035 54.9156ZM872.288 46.5576H865.135L856.66 59.6366H863.37L864.338 58.1341H873.084L874.052 59.6366H880.762L872.288 46.5576Z" fill="white"/>
<path fill-rule="evenodd" clip-rule="evenodd" d="M868.708 50.1603V51.31C867.862 53.1213 867.086 54.3236 866.386 54.9155L865.242 55.5416L868.708 50.1603Z" fill="white"/>
<path fill-rule="evenodd" clip-rule="evenodd" d="M825.766 59.012H828.754L829.444 59.6381H825.199L825.766 59.012ZM908.642 59.012H911.63L912.195 59.6381H907.951L908.642 59.012ZM833.187 46.5576L833.809 47.1837V59.012H839.122L839.744 59.6381H833.187V46.5576ZM839.122 52.5692L844.045 57.5123L848.965 52.5692V59.012H854.278L854.9 59.6381H848.344V54.0789L844.044 58.3959L839.744 54.0775L839.122 52.5692ZM844.045 51.2033L848.669 46.5576L848.928 47.1837L844.044 52.0883V51.2047L844.045 51.2033ZM868.711 50.1603L872.178 55.5402L871.034 54.9141L868.711 51.31V50.1603ZM882.475 46.5576L883.099 47.1837V59.012H888.409L889.032 59.6381H882.475V46.5576ZM888.409 52.1637L897.619 59.012H903.46L904.082 59.6381H897.416L889.033 53.4059L888.41 52.1652L888.409 52.1637ZM897.525 46.5576L898.147 47.1837V54.0846L897.525 52.8439V46.5576Z" fill="white"/>
<path fill-rule="evenodd" clip-rule="evenodd" d="M912.199 59.6408C912.351 58.1539 912.428 56.6457 912.428 55.119C912.428 30.8604 892.85 11.1949 868.699 11.1949C844.547 11.1964 824.969 30.8619 824.969 55.1204C824.969 56.6471 825.047 58.1554 825.198 59.6423L825.764 59.0162C825.649 57.7208 825.592 56.4209 825.592 55.1204C825.592 31.2062 844.89 11.821 868.699 11.821C892.507 11.821 911.807 31.2062 911.807 55.119C911.807 56.4199 911.75 57.7203 911.636 59.0162L912.199 59.6408Z" fill="white"/>
<path d="M863.998 57.5095H873.423L874.391 59.012H879.614L880.762 59.6381H874.052L873.084 58.1341H864.337L863.37 59.6366H856.66L865.135 46.5576L865.472 47.1837L857.808 59.012H863.032L863.998 57.5095Z" fill="white"/>
<path fill-rule="evenodd" clip-rule="evenodd" d="M839.16 47.1865H833.809V59.0163H839.122V52.5735L844.045 57.5166L848.966 52.5721V59.0163H854.278V47.1865H848.928L844.042 52.0926L839.16 47.1865Z" fill="white"/>
<path fill-rule="evenodd" clip-rule="evenodd" d="M868.701 11.821C844.892 11.821 825.594 31.2062 825.594 55.119C825.593 56.42 825.65 57.7203 825.764 59.0162H828.753C828.629 57.7208 828.567 56.4203 828.568 55.119C828.568 32.8553 846.536 14.8091 868.701 14.8091C890.865 14.8091 908.833 32.8553 908.833 55.119C908.833 56.4337 908.772 57.7328 908.648 59.0162H911.636C911.751 57.7203 911.808 56.42 911.808 55.119C911.808 31.2062 892.509 11.821 868.701 11.821Z" fill="white"/>
<path fill-rule="evenodd" clip-rule="evenodd" d="M888.888 47.1865H883.102V59.0162H888.413V52.1679L897.623 59.0162H903.464V47.1865H898.151V54.0888L888.888 47.1865Z" fill="white"/>
<path d="M872.183 55.5445H865.248L868.716 50.1632L872.183 55.5445ZM871.954 47.1865H865.476L857.812 59.0163H863.036L864.003 57.5123H873.427L874.395 59.0163H879.618L871.954 47.1865Z" fill="white"/>
<defs>
<clipPath id="clip0_124_138">
<rect width="103.378" height="51.6888" fill="white" transform="translate(185.188 9.61487)"/>
</clipPath>
<clipPath id="clip1_124_138">
<rect width="207.468" height="43.2847" fill="white" transform="translate(404.004 13.9222)"/>
</clipPath>
<clipPath id="clip2_124_138">
<rect width="68.9184" height="68.9184" fill="white" transform="translate(687.43 1)"/>
</clipPath>
</defs>
</svg>
