<svg width="262" height="164" viewBox="0 0 262 164" fill="none" xmlns="http://www.w3.org/2000/svg">
<g clip-path="url(#clip0_194_102)">
<path d="M159.737 77.5775C159.771 77.5753 159.803 77.5666 159.833 77.5519C159.862 77.5373 159.889 77.517 159.911 77.4922C159.932 77.4674 159.949 77.4387 159.959 77.4075C159.97 77.3764 159.974 77.3436 159.971 77.3109C159.967 77.2448 159.936 77.1834 159.885 77.1401C159.834 77.0967 159.768 77.075 159.701 77.0797C159.635 77.0845 159.572 77.1152 159.529 77.1652C159.485 77.2152 159.463 77.2804 159.467 77.3464C159.473 77.4117 159.505 77.4721 159.555 77.5145C159.606 77.557 159.671 77.578 159.737 77.5731M143.708 69.5064C143.708 69.6497 143.752 69.7898 143.832 69.9089C143.913 70.028 144.027 70.1209 144.161 70.1757C144.295 70.2305 144.443 70.2449 144.585 70.2169C144.727 70.189 144.858 70.12 144.961 70.0187C145.063 69.9174 145.133 69.7883 145.161 69.6477C145.19 69.5072 145.175 69.3616 145.12 69.2292C145.064 69.0968 144.97 68.9837 144.85 68.9041C144.729 68.8245 144.587 68.782 144.442 68.782C144.247 68.782 144.061 68.8583 143.923 68.9942C143.786 69.13 143.708 69.3143 143.708 69.5064ZM148.366 71.062C148.366 71.2061 148.409 71.3471 148.49 71.4669C148.571 71.5868 148.687 71.6802 148.822 71.7354C148.956 71.7905 149.105 71.805 149.248 71.7769C149.391 71.7487 149.523 71.6793 149.626 71.5774C149.729 71.4754 149.799 71.3456 149.828 71.2042C149.856 71.0628 149.842 70.9162 149.786 70.783C149.73 70.6498 149.635 70.536 149.514 70.4559C149.393 70.3758 149.25 70.3331 149.104 70.3331C148.909 70.3331 148.723 70.4094 148.585 70.5453C148.448 70.6811 148.37 70.8654 148.37 71.0575M130.821 90.0309C130.82 90.175 130.862 90.3162 130.942 90.4365C131.023 90.5569 131.137 90.651 131.272 90.707C131.406 90.763 131.555 90.7783 131.698 90.751C131.841 90.7238 131.973 90.6551 132.077 90.5538C132.181 90.4525 132.252 90.3231 132.281 90.1818C132.311 90.0406 132.297 89.894 132.242 89.7605C132.187 89.627 132.093 89.5125 131.972 89.4317C131.851 89.3509 131.709 89.3073 131.563 89.3064C131.467 89.3058 131.371 89.324 131.282 89.3599C131.193 89.3957 131.112 89.4486 131.043 89.5155C130.974 89.5823 130.92 89.6618 130.883 89.7495C130.845 89.8372 130.826 89.9313 130.825 90.0264M134.447 93.0397C134.447 93.1839 134.491 93.3248 134.572 93.4447C134.653 93.5646 134.768 93.658 134.903 93.7132C135.038 93.7683 135.186 93.7828 135.329 93.7546C135.473 93.7265 135.604 93.6571 135.707 93.5551C135.811 93.4532 135.881 93.3233 135.909 93.1819C135.938 93.0406 135.923 92.894 135.867 92.7608C135.811 92.6276 135.717 92.5138 135.596 92.4337C135.474 92.3536 135.331 92.3109 135.185 92.3109C134.991 92.3132 134.805 92.3909 134.668 92.5272C134.531 92.6635 134.453 92.8476 134.452 93.0397M139.069 94.4442C139.069 94.5884 139.112 94.7293 139.193 94.8491C139.274 94.969 139.39 95.0624 139.525 95.1176C139.659 95.1728 139.808 95.1872 139.951 95.1591C140.094 95.131 140.226 95.0615 140.329 94.9596C140.432 94.8577 140.502 94.7278 140.531 94.5864C140.559 94.445 140.545 94.2984 140.489 94.1653C140.433 94.0321 140.338 93.9182 140.217 93.8381C140.096 93.7581 139.953 93.7153 139.807 93.7153C139.71 93.7147 139.614 93.7332 139.524 93.7696C139.434 93.806 139.352 93.8597 139.284 93.9275C139.215 93.9953 139.161 94.0759 139.124 94.1646C139.087 94.2533 139.068 94.3483 139.069 94.4442ZM143.812 94.3864C143.816 94.5287 143.861 94.6668 143.944 94.7835C144.026 94.9002 144.142 94.9902 144.276 95.0425C144.41 95.0947 144.557 95.1068 144.698 95.0773C144.839 95.0477 144.968 94.9778 145.069 94.8762C145.17 94.7747 145.238 94.646 145.265 94.5063C145.293 94.3665 145.278 94.2219 145.223 94.0905C145.167 93.9591 145.074 93.8467 144.954 93.7673C144.835 93.6879 144.694 93.6451 144.55 93.6442C144.452 93.6436 144.354 93.6624 144.264 93.6997C144.173 93.7369 144.091 93.7918 144.022 93.861C143.953 93.9302 143.899 94.0124 143.863 94.1027C143.827 94.1929 143.81 94.2894 143.812 94.3864ZM148.366 92.9597C148.368 93.1031 148.412 93.2428 148.494 93.3613C148.576 93.4798 148.691 93.5718 148.826 93.6259C148.96 93.68 149.108 93.6937 149.25 93.6652C149.392 93.6368 149.523 93.5676 149.626 93.4662C149.728 93.3648 149.799 93.2358 149.827 93.0952C149.856 92.9546 149.842 92.8088 149.787 92.676C149.733 92.5432 149.64 92.4293 149.52 92.3485C149.4 92.2677 149.258 92.2237 149.113 92.222C149.016 92.2214 148.92 92.2398 148.83 92.2763C148.74 92.3127 148.658 92.3663 148.59 92.4341C148.521 92.5019 148.467 92.5825 148.43 92.6712C148.393 92.7599 148.374 92.855 148.375 92.9509M152.002 90.0709C152.002 90.215 152.045 90.3559 152.126 90.4758C152.207 90.5957 152.323 90.6891 152.458 90.7443C152.592 90.7994 152.741 90.8139 152.884 90.7857C153.027 90.7576 153.159 90.6882 153.262 90.5863C153.365 90.4843 153.435 90.3544 153.464 90.2131C153.492 90.0717 153.478 89.9251 153.422 89.7919C153.366 89.6587 153.271 89.5449 153.15 89.4648C153.029 89.3847 152.886 89.342 152.74 89.342C152.643 89.3414 152.547 89.3598 152.457 89.3962C152.367 89.4327 152.285 89.4863 152.217 89.5541C152.148 89.6219 152.094 89.7025 152.057 89.7912C152.02 89.8799 152.001 89.975 152.002 90.0709ZM151.952 73.9375C151.953 74.0806 151.997 74.2202 152.078 74.3388C152.159 74.4573 152.274 74.5495 152.408 74.6036C152.543 74.6578 152.69 74.6715 152.832 74.6431C152.974 74.6146 153.104 74.5453 153.206 74.4438C153.308 74.3423 153.378 74.2132 153.406 74.0728C153.434 73.9324 153.419 73.7869 153.363 73.6548C153.308 73.5227 153.214 73.4098 153.093 73.3304C152.973 73.251 152.831 73.2086 152.686 73.2086C152.589 73.2086 152.494 73.2275 152.404 73.2642C152.315 73.3009 152.234 73.3546 152.166 73.4224C152.098 73.4901 152.044 73.5705 152.007 73.6589C151.97 73.7473 151.952 73.842 151.952 73.9375ZM146.8 72.0175C146.799 71.8349 146.743 71.6566 146.64 71.5051C146.537 71.3537 146.39 71.2359 146.219 71.1666C146.048 71.0973 145.86 71.0797 145.679 71.1158C145.497 71.152 145.331 71.2404 145.201 71.3699C145.07 71.4993 144.981 71.664 144.946 71.8432C144.91 72.0224 144.929 72.2081 145 72.3768C145.071 72.5454 145.191 72.6895 145.344 72.7909C145.498 72.8923 145.679 72.9464 145.864 72.9464C145.987 72.9464 146.109 72.9224 146.223 72.8756C146.337 72.8289 146.44 72.7604 146.527 72.6741C146.614 72.5878 146.683 72.4853 146.73 72.3727C146.777 72.26 146.801 72.1393 146.8 72.0175ZM149.95 73.9331C149.949 73.7504 149.893 73.5721 149.79 73.4207C149.687 73.2693 149.54 73.1515 149.369 73.0822C149.198 73.0129 149.01 72.9952 148.829 73.0314C148.647 73.0676 148.481 73.156 148.351 73.2854C148.22 73.4149 148.131 73.5796 148.096 73.7588C148.06 73.938 148.079 74.1237 148.15 74.2923C148.221 74.461 148.341 74.6051 148.494 74.7065C148.648 74.8079 148.829 74.862 149.014 74.862C149.137 74.862 149.259 74.8379 149.373 74.7912C149.487 74.7444 149.59 74.6759 149.677 74.5896C149.764 74.5033 149.833 74.4009 149.88 74.2882C149.927 74.1755 149.951 74.0549 149.95 73.9331ZM152.407 76.6664C152.407 76.4827 152.352 76.3031 152.248 76.1503C152.145 75.9976 151.998 75.8785 151.826 75.8082C151.655 75.7379 151.465 75.7195 151.283 75.7554C151.101 75.7912 150.933 75.8797 150.801 76.0096C150.67 76.1395 150.58 76.305 150.544 76.4852C150.508 76.6654 150.526 76.8522 150.598 77.0219C150.669 77.1916 150.789 77.3367 150.944 77.4388C151.099 77.5408 151.28 77.5953 151.466 77.5953C151.59 77.5959 151.713 77.5723 151.827 77.5258C151.941 77.4793 152.045 77.4109 152.133 77.3245C152.22 77.2382 152.29 77.1355 152.337 77.0226C152.384 76.9096 152.408 76.7886 152.407 76.6664ZM145.671 66.2709C145.677 66.2062 145.657 66.1416 145.616 66.091C145.575 66.0403 145.515 66.0076 145.45 65.9997C145.383 65.9948 145.317 66.0157 145.266 66.058C145.215 66.1003 145.182 66.1608 145.175 66.2264C145.17 66.2922 145.192 66.3574 145.234 66.408C145.277 66.4586 145.339 66.4908 145.405 66.4975C145.438 66.5006 145.47 66.4972 145.502 66.4877C145.533 66.4782 145.562 66.4626 145.587 66.442C145.612 66.4213 145.633 66.3959 145.648 66.3673C145.663 66.3387 145.672 66.3075 145.675 66.2753M151.948 68.5242C151.951 68.4921 151.948 68.4597 151.938 68.4288C151.928 68.398 151.913 68.3694 151.892 68.3446C151.871 68.3198 151.845 68.2993 151.816 68.2844C151.787 68.2694 151.756 68.2603 151.723 68.2575C151.657 68.2598 151.594 68.2875 151.547 68.3348C151.501 68.3821 151.475 68.4452 151.475 68.5109C151.477 68.5681 151.499 68.623 151.537 68.6665C151.574 68.7101 151.626 68.7398 151.683 68.7509C151.749 68.7558 151.814 68.7347 151.865 68.6923C151.915 68.6499 151.947 68.5895 151.952 68.5242M156.88 72.0175C156.883 71.9848 156.88 71.9518 156.87 71.9205C156.86 71.8891 156.844 71.86 156.822 71.8348C156.801 71.8096 156.775 71.7888 156.745 71.7736C156.716 71.7584 156.684 71.7492 156.65 71.7464C156.618 71.7434 156.585 71.7467 156.554 71.7562C156.523 71.7658 156.494 71.7813 156.469 71.802C156.444 71.8226 156.423 71.848 156.408 71.8766C156.393 71.9052 156.383 71.9365 156.38 71.9686C156.368 72.0334 156.382 72.1002 156.419 72.1549C156.456 72.2096 156.513 72.248 156.578 72.262C156.645 72.2726 156.712 72.2577 156.767 72.2205C156.823 72.1833 156.861 72.1265 156.875 72.062C156.878 72.0457 156.878 72.0293 156.875 72.0131M148.348 68.7864C148.353 68.694 148.33 68.6023 148.283 68.5225C148.235 68.4428 148.165 68.3787 148.081 68.3381C147.997 68.2975 147.902 68.2823 147.809 68.2944C147.717 68.3065 147.629 68.3453 147.559 68.406C147.488 68.4667 147.437 68.5466 147.412 68.6358C147.387 68.7249 147.389 68.8193 147.418 68.9073C147.447 68.9953 147.502 69.0729 147.575 69.1304C147.648 69.1879 147.737 69.2229 147.83 69.2309C147.894 69.2363 147.958 69.229 148.019 69.2095C148.08 69.1899 148.136 69.1585 148.185 69.117C148.233 69.0755 148.272 69.0249 148.3 68.9681C148.328 68.9113 148.345 68.8495 148.348 68.7864ZM153.132 71.1509C153.137 71.0879 153.13 71.0245 153.11 70.9644C153.09 70.9043 153.058 70.8488 153.016 70.8011C152.974 70.7534 152.923 70.7145 152.865 70.6868C152.808 70.6591 152.745 70.6431 152.682 70.6397C152.618 70.6291 152.554 70.6311 152.491 70.6457C152.429 70.6603 152.37 70.6872 152.318 70.7247C152.267 70.7623 152.223 70.8097 152.191 70.8642C152.158 70.9187 152.137 70.9791 152.128 71.0419C152.12 71.1046 152.124 71.1684 152.141 71.2295C152.158 71.2905 152.188 71.3475 152.228 71.3971C152.268 71.4467 152.317 71.4878 152.373 71.5181C152.43 71.5483 152.492 71.567 152.555 71.5731H152.6C152.664 71.5785 152.728 71.5712 152.789 71.5516C152.849 71.532 152.905 71.5005 152.953 71.459C153.001 71.4175 153.04 71.3668 153.067 71.31C153.095 71.2532 153.111 71.1915 153.113 71.1286M156.389 74.4931C156.296 74.4882 156.203 74.5106 156.122 74.5575C156.042 74.6044 155.977 74.6738 155.936 74.7569C155.895 74.8401 155.879 74.9333 155.891 75.025C155.904 75.1167 155.943 75.2029 156.004 75.2727C156.066 75.3425 156.147 75.3929 156.237 75.4176C156.327 75.4422 156.423 75.4401 156.512 75.4115C156.601 75.3829 156.68 75.329 156.738 75.2566C156.796 75.1841 156.831 75.0963 156.839 75.0042C156.845 74.9412 156.838 74.8778 156.818 74.8177C156.798 74.7576 156.766 74.7021 156.724 74.6544C156.682 74.6067 156.631 74.5679 156.573 74.5401C156.516 74.5124 156.453 74.4964 156.389 74.4931ZM142.12 67.4886C142.025 67.4878 141.931 67.5148 141.852 67.5663C141.772 67.6178 141.71 67.6915 141.672 67.7781C141.635 67.8646 141.625 67.9602 141.642 68.0526C141.66 68.145 141.705 68.2302 141.772 68.2973C141.839 68.3644 141.924 68.4105 142.017 68.4297C142.11 68.4489 142.207 68.4404 142.296 68.4052C142.384 68.37 142.46 68.3098 142.513 68.2321C142.567 68.1544 142.596 68.0627 142.597 67.9686C142.598 67.9066 142.586 67.8451 142.562 67.7876C142.538 67.7302 142.503 67.6781 142.459 67.6342C142.414 67.5903 142.361 67.5556 142.303 67.5322C142.245 67.5087 142.183 67.4969 142.12 67.4975M139.798 68.7909C139.652 68.79 139.509 68.8319 139.387 68.9112C139.265 68.9906 139.17 69.1039 139.113 69.2367C139.057 69.3696 139.041 69.516 139.069 69.6576C139.096 69.7991 139.166 69.9294 139.268 70.032C139.371 70.1345 139.502 70.2047 139.645 70.2337C139.788 70.2627 139.937 70.2492 140.072 70.1948C140.207 70.1405 140.323 70.0477 140.405 69.9284C140.486 69.809 140.531 69.6683 140.532 69.5242C140.532 69.3321 140.454 69.1478 140.317 69.0119C140.179 68.8761 139.993 68.7997 139.798 68.7997M135.14 70.3331C134.995 70.3322 134.852 70.3741 134.73 70.4535C134.608 70.5328 134.513 70.6461 134.456 70.7789C134.399 70.9118 134.384 71.0582 134.411 71.1998C134.439 71.3414 134.508 71.4716 134.611 71.5742C134.714 71.6768 134.845 71.747 134.988 71.776C135.131 71.8049 135.279 71.7914 135.414 71.7371C135.549 71.6827 135.665 71.59 135.747 71.4706C135.829 71.3512 135.873 71.2106 135.874 71.0664C135.873 70.8742 135.795 70.6902 135.658 70.5538C135.521 70.4175 135.335 70.3398 135.14 70.3375M128.323 81.302C128.177 81.3011 128.034 81.343 127.912 81.4223C127.79 81.5017 127.695 81.615 127.638 81.7478C127.582 81.8807 127.566 82.0271 127.594 82.1687C127.621 82.3102 127.691 82.4405 127.793 82.5431C127.896 82.6457 128.027 82.7159 128.17 82.7448C128.313 82.7738 128.462 82.7603 128.597 82.7059C128.732 82.6516 128.848 82.5589 128.93 82.4395C129.011 82.3201 129.056 82.1795 129.057 82.0353C129.057 81.9402 129.038 81.846 129.001 81.7581C128.964 81.6702 128.91 81.5903 128.842 81.523C128.774 81.4558 128.693 81.4024 128.604 81.366C128.515 81.3296 128.419 81.3109 128.323 81.3109M129.223 77.0309C129.077 77.03 128.934 77.0719 128.812 77.1512C128.69 77.2306 128.595 77.3439 128.538 77.4767C128.482 77.6096 128.466 77.756 128.494 77.8976C128.521 78.0391 128.591 78.1694 128.693 78.272C128.796 78.3745 128.927 78.4447 129.07 78.4737C129.213 78.5027 129.362 78.4892 129.497 78.4348C129.632 78.3805 129.748 78.2877 129.83 78.1684C129.911 78.049 129.956 77.9083 129.957 77.7642C129.961 77.5735 129.89 77.3887 129.758 77.2497C129.625 77.1108 129.443 77.0289 129.25 77.022M131.595 73.2042C131.449 73.2033 131.306 73.2452 131.184 73.3246C131.062 73.4039 130.967 73.5172 130.91 73.65C130.853 73.7829 130.838 73.9293 130.865 74.0709C130.893 74.2125 130.962 74.3428 131.065 74.4453C131.168 74.5479 131.299 74.6181 131.442 74.6471C131.585 74.6761 131.733 74.6625 131.868 74.6082C132.003 74.5538 132.119 74.4611 132.201 74.3417C132.283 74.2223 132.327 74.0817 132.328 73.9375C132.327 73.7453 132.249 73.5613 132.112 73.425C131.975 73.2886 131.789 73.211 131.595 73.2086M142.12 93.502C142.306 93.5028 142.488 93.4492 142.643 93.3479C142.798 93.2466 142.92 93.1021 142.992 92.9327C143.064 92.7633 143.083 92.5766 143.048 92.3962C143.012 92.2159 142.924 92.0499 142.793 91.9194C142.662 91.7889 142.495 91.6996 142.312 91.6629C142.13 91.6262 141.941 91.6437 141.769 91.7132C141.597 91.7827 141.449 91.9011 141.345 92.0533C141.241 92.2056 141.185 92.3849 141.184 92.5686C141.184 92.8142 141.282 93.0498 141.458 93.2239C141.633 93.398 141.871 93.4963 142.12 93.4975M142.12 72.3953C142.306 72.3962 142.488 72.3426 142.643 72.2412C142.798 72.1399 142.92 71.9954 142.992 71.826C143.064 71.6566 143.083 71.4699 143.048 71.2896C143.012 71.1092 142.924 70.9433 142.793 70.8127C142.662 70.6822 142.495 70.593 142.312 70.5563C142.13 70.5196 141.941 70.5371 141.769 70.6065C141.597 70.676 141.449 70.7944 141.345 70.9467C141.241 71.0989 141.185 71.2783 141.184 71.462C141.184 71.7076 141.282 71.9432 141.458 72.1172C141.633 72.2913 141.871 72.3897 142.12 72.3909M138.385 72.9375C138.571 72.9384 138.753 72.8848 138.908 72.7834C139.063 72.6821 139.185 72.5376 139.257 72.3682C139.329 72.1988 139.348 72.0121 139.313 71.8318C139.277 71.6514 139.189 71.4855 139.058 71.355C138.927 71.2244 138.76 71.1352 138.577 71.0985C138.395 71.0618 138.206 71.0793 138.034 71.1488C137.862 71.2183 137.714 71.3366 137.61 71.4889C137.506 71.6411 137.45 71.8205 137.449 72.0042C137.448 72.1256 137.472 72.2459 137.519 72.3583C137.565 72.4707 137.633 72.5729 137.72 72.6592C137.806 72.7454 137.909 72.814 138.023 72.861C138.136 72.908 138.258 72.9325 138.38 72.9331M135.23 74.8486C135.417 74.8495 135.599 74.7959 135.754 74.6946C135.909 74.5932 136.03 74.4487 136.102 74.2793C136.174 74.1099 136.194 73.9233 136.158 73.7429C136.123 73.5625 136.034 73.3966 135.903 73.2661C135.772 73.1356 135.605 73.0463 135.423 73.0096C135.241 72.9729 135.051 72.9904 134.879 73.0599C134.707 73.1294 134.56 73.2477 134.456 73.4C134.351 73.5523 134.295 73.7316 134.295 73.9153C134.294 74.0367 134.318 74.157 134.364 74.2694C134.411 74.3818 134.479 74.484 134.565 74.5703C134.652 74.6565 134.755 74.7251 134.868 74.7721C134.981 74.8191 135.103 74.8436 135.226 74.8442M132.742 77.5909C132.929 77.5987 133.113 77.5516 133.273 77.4554C133.432 77.3593 133.559 77.2184 133.637 77.0509C133.715 76.8833 133.74 76.6966 133.711 76.5145C133.681 76.3325 133.597 76.1633 133.469 76.0286C133.342 75.8938 133.177 75.7996 132.995 75.7579C132.813 75.7163 132.622 75.729 132.448 75.7946C132.273 75.8601 132.123 75.9755 132.015 76.126C131.907 76.2765 131.847 76.4554 131.842 76.6397C131.841 76.7611 131.865 76.8815 131.912 76.9939C131.958 77.1062 132.026 77.2085 132.113 77.2947C132.199 77.381 132.302 77.4496 132.416 77.4966C132.529 77.5436 132.651 77.5681 132.773 77.5686M131.752 81.022C131.938 81.0228 132.12 80.9692 132.275 80.8679C132.43 80.7666 132.552 80.6221 132.624 80.4527C132.696 80.2833 132.715 80.0966 132.68 79.9162C132.644 79.7359 132.556 79.5699 132.425 79.4394C132.294 79.3089 132.127 79.2196 131.944 79.1829C131.762 79.1462 131.573 79.1637 131.401 79.2332C131.229 79.3027 131.081 79.4211 130.977 79.5733C130.873 79.7256 130.817 79.9049 130.816 80.0886C130.816 80.21 130.84 80.3302 130.887 80.4424C130.934 80.5546 131.003 80.6565 131.09 80.7423C131.177 80.8282 131.28 80.8963 131.394 80.9427C131.507 80.9892 131.629 81.0131 131.752 81.0131M138.839 66.4975C138.906 66.4908 138.967 66.4586 139.01 66.408C139.053 66.3574 139.074 66.2922 139.069 66.2264C139.062 66.1608 139.03 66.1003 138.978 66.058C138.927 66.0157 138.861 65.9948 138.795 65.9997C138.762 66.0025 138.729 66.0118 138.7 66.027C138.671 66.0422 138.645 66.0631 138.624 66.0884C138.603 66.1136 138.587 66.1428 138.578 66.1742C138.569 66.2055 138.566 66.2384 138.57 66.2709C138.572 66.303 138.58 66.3344 138.595 66.3632C138.61 66.392 138.63 66.4176 138.655 66.4387C138.679 66.4598 138.708 66.4758 138.739 66.4859C138.77 66.496 138.802 66.4999 138.835 66.4975M132.566 68.7464C132.599 68.7442 132.631 68.7356 132.66 68.7212C132.689 68.7068 132.715 68.6868 132.736 68.6624C132.758 68.6381 132.774 68.6098 132.784 68.5792C132.794 68.5486 132.798 68.5163 132.796 68.4842C132.79 68.4189 132.759 68.3585 132.708 68.3161C132.658 68.2736 132.592 68.2526 132.526 68.2575C132.493 68.2598 132.462 68.2684 132.433 68.2828C132.403 68.2972 132.377 68.3171 132.356 68.3415C132.335 68.3659 132.318 68.3942 132.308 68.4248C132.298 68.4553 132.294 68.4876 132.296 68.5197C132.302 68.585 132.334 68.6454 132.384 68.6879C132.435 68.7303 132.5 68.7513 132.566 68.7464ZM159.737 88.1731C159.804 88.1731 159.868 88.1469 159.916 88.1002C159.963 88.0535 159.989 87.9902 159.989 87.9242C159.989 87.8582 159.963 87.7949 159.916 87.7482C159.868 87.7015 159.804 87.6753 159.737 87.6753H159.683C159.651 87.6776 159.619 87.6861 159.59 87.7005C159.561 87.715 159.535 87.7349 159.514 87.7593C159.492 87.7837 159.476 87.812 159.466 87.8425C159.456 87.8731 159.452 87.9054 159.454 87.9375C159.46 88.0028 159.491 88.0632 159.542 88.1056C159.592 88.1481 159.658 88.1691 159.724 88.1642M156.718 92.2975C156.784 92.2897 156.845 92.2573 156.887 92.2069C156.93 92.1565 156.951 92.092 156.947 92.0264C156.941 91.9608 156.908 91.9003 156.857 91.858C156.806 91.8157 156.74 91.7948 156.673 91.7997C156.607 91.8065 156.545 91.8386 156.502 91.8893C156.46 91.9399 156.438 92.005 156.443 92.0709C156.446 92.1036 156.456 92.1354 156.471 92.1646C156.486 92.1937 156.507 92.2196 156.533 92.2407C156.558 92.2617 156.588 92.2776 156.62 92.2874C156.651 92.2971 156.685 92.3006 156.718 92.2975ZM151.714 95.7775C151.747 95.7753 151.778 95.7667 151.807 95.7523C151.837 95.7379 151.863 95.7179 151.884 95.6935C151.905 95.6692 151.922 95.6409 151.932 95.6103C151.942 95.5797 151.946 95.5474 151.943 95.5153C151.943 95.4493 151.917 95.386 151.87 95.3393C151.822 95.2926 151.758 95.2664 151.691 95.2664C151.625 95.2664 151.561 95.2926 151.513 95.3393C151.466 95.386 151.439 95.4493 151.439 95.5153C151.437 95.5315 151.437 95.548 151.439 95.5642C151.442 95.5963 151.452 95.6276 151.467 95.6562C151.482 95.6848 151.503 95.7102 151.528 95.7309C151.553 95.7515 151.582 95.7671 151.613 95.7766C151.644 95.7861 151.677 95.7895 151.709 95.7864M145.45 97.9997C145.517 97.9944 145.579 97.9631 145.622 97.9127C145.666 97.8623 145.687 97.7969 145.682 97.7309C145.676 97.6648 145.645 97.6036 145.594 97.5607C145.543 97.5178 145.476 97.4967 145.409 97.502C145.343 97.5073 145.281 97.5386 145.237 97.589C145.194 97.6394 145.172 97.7048 145.178 97.7709C145.183 97.8369 145.215 97.8981 145.266 97.941C145.317 97.9839 145.383 98.0051 145.45 97.9997ZM138.844 97.9997C138.911 97.9939 138.973 97.962 139.016 97.9111C139.059 97.8603 139.079 97.7946 139.073 97.7286C139.068 97.6626 139.035 97.6017 138.984 97.5592C138.932 97.5166 138.866 97.4961 138.799 97.502C138.766 97.5046 138.734 97.5136 138.704 97.5286C138.675 97.5435 138.648 97.564 138.627 97.589C138.583 97.6394 138.562 97.7048 138.567 97.7709C138.573 97.8369 138.604 97.8981 138.655 97.941C138.706 97.9839 138.773 98.0051 138.839 97.9997M132.566 95.7464C132.599 95.7442 132.631 95.7356 132.66 95.7212C132.689 95.7068 132.715 95.6868 132.736 95.6624C132.758 95.6381 132.774 95.6098 132.784 95.5792C132.794 95.5486 132.798 95.5163 132.796 95.4842C132.79 95.4189 132.759 95.3585 132.708 95.3161C132.658 95.2736 132.592 95.2526 132.526 95.2575C132.493 95.2598 132.462 95.2684 132.433 95.2828C132.403 95.2972 132.377 95.3171 132.356 95.3415C132.335 95.3659 132.318 95.3942 132.308 95.4248C132.298 95.4553 132.294 95.4876 132.296 95.5197C132.302 95.585 132.334 95.6454 132.384 95.6879C132.435 95.7303 132.5 95.7513 132.566 95.7464ZM127.616 92.2575C127.65 92.2553 127.682 92.2466 127.712 92.2319C127.741 92.2173 127.768 92.197 127.79 92.1722C127.811 92.1474 127.828 92.1187 127.838 92.0875C127.849 92.0564 127.853 92.0236 127.85 91.9909C127.848 91.9582 127.839 91.9263 127.824 91.897C127.81 91.8677 127.789 91.8415 127.764 91.8201C127.739 91.7986 127.71 91.7822 127.678 91.7719C127.647 91.7615 127.614 91.7574 127.58 91.7597C127.547 91.7621 127.515 91.7708 127.485 91.7855C127.456 91.8002 127.429 91.8205 127.408 91.8452C127.386 91.87 127.369 91.8987 127.359 91.9298C127.348 91.9609 127.344 91.9937 127.347 92.0264C127.352 92.0917 127.384 92.1521 127.434 92.1945C127.485 92.237 127.55 92.258 127.616 92.2531M124.521 88.1686C124.587 88.1686 124.651 88.1424 124.699 88.0957C124.746 88.0491 124.772 87.9858 124.772 87.9197C124.772 87.8537 124.746 87.7904 124.699 87.7438C124.651 87.6971 124.587 87.6709 124.521 87.6709H124.466C124.405 87.6823 124.351 87.7157 124.313 87.7645C124.275 87.8134 124.257 87.8743 124.262 87.9355C124.267 87.9967 124.295 88.0539 124.34 88.0962C124.385 88.1384 124.445 88.1626 124.507 88.1642M127.639 72.222C127.672 72.2197 127.704 72.211 127.734 72.1964C127.764 72.1817 127.79 72.1615 127.812 72.1367C127.834 72.1119 127.85 72.0831 127.861 72.052C127.871 72.0209 127.875 71.988 127.873 71.9553C127.871 71.9226 127.862 71.8907 127.847 71.8614C127.832 71.8321 127.812 71.806 127.786 71.7845C127.761 71.7631 127.732 71.7467 127.701 71.7363C127.669 71.726 127.636 71.7219 127.603 71.7242C127.57 71.7265 127.538 71.7353 127.508 71.7499C127.478 71.7646 127.452 71.7849 127.43 71.8097C127.408 71.8344 127.392 71.8632 127.381 71.8943C127.371 71.9253 127.367 71.9582 127.369 71.9909C127.375 72.0561 127.406 72.1165 127.457 72.159C127.507 72.2014 127.573 72.2224 127.639 72.2175M136.409 69.1909C136.531 69.1749 136.642 69.1133 136.719 69.0189C136.795 68.9245 136.832 68.8045 136.822 68.6838C136.812 68.5631 136.754 68.451 136.663 68.3708C136.571 68.2906 136.451 68.2485 136.328 68.2531C136.209 68.2694 136.1 68.3298 136.024 68.4222C135.948 68.5146 135.91 68.6321 135.918 68.7509C135.926 68.8698 135.979 68.9813 136.067 69.0629C136.155 69.1446 136.271 69.1903 136.391 69.1909M131.603 71.5553C131.721 71.5495 131.831 71.4987 131.911 71.4137C131.991 71.3287 132.034 71.2162 132.031 71.1003C132.028 70.9844 131.979 70.8742 131.895 70.7932C131.811 70.7123 131.698 70.667 131.581 70.667C131.464 70.667 131.351 70.7123 131.267 70.7932C131.183 70.8742 131.134 70.9844 131.131 71.1003C131.128 71.2162 131.171 71.3287 131.251 71.4137C131.331 71.4987 131.441 71.5495 131.559 71.5553H131.603ZM127.383 75.0042C127.383 75.1221 127.43 75.2351 127.514 75.3185C127.599 75.4018 127.713 75.4486 127.833 75.4486H127.9C127.965 75.4477 128.029 75.4336 128.089 75.4072C128.148 75.3809 128.201 75.3428 128.245 75.2953C128.289 75.2478 128.323 75.192 128.344 75.1312C128.365 75.0705 128.374 75.0061 128.369 74.942C128.364 74.8779 128.346 74.8154 128.315 74.7585C128.285 74.7016 128.243 74.6514 128.193 74.611C128.142 74.5706 128.084 74.5409 128.021 74.5237C127.958 74.5065 127.892 74.5021 127.828 74.5109C127.702 74.5178 127.584 74.5735 127.5 74.6659C127.416 74.7583 127.372 74.8799 127.378 75.0042M158.27 83.9553C158.208 83.9606 158.147 83.9779 158.091 84.0065C158.035 84.035 157.986 84.0741 157.945 84.1216C157.905 84.169 157.874 84.2239 157.855 84.2831C157.836 84.3422 157.829 84.4045 157.834 84.4664C157.839 84.5283 157.857 84.5885 157.886 84.6437C157.915 84.6988 157.954 84.7478 158.002 84.7878C158.05 84.8279 158.106 84.8581 158.166 84.877C158.226 84.8958 158.289 84.9028 158.351 84.8975C158.478 84.8869 158.595 84.8271 158.677 84.7313C158.759 84.6354 158.799 84.5114 158.788 84.3864C158.777 84.2615 158.717 84.1459 158.62 84.065C158.523 83.9842 158.397 83.9447 158.27 83.9553ZM156.416 88.5331C156.295 88.549 156.184 88.6106 156.107 88.705C156.031 88.7994 155.994 88.9195 156.004 89.0401C156.014 89.1608 156.072 89.2729 156.163 89.3531C156.255 89.4333 156.375 89.4755 156.497 89.4709C156.617 89.4545 156.726 89.3941 156.802 89.3017C156.878 89.2093 156.916 89.0919 156.908 88.973C156.9 88.8541 156.847 88.7426 156.759 88.661C156.671 88.5794 156.555 88.5337 156.434 88.5331M152.731 92.422C152.666 92.4229 152.602 92.437 152.542 92.4634C152.483 92.4897 152.43 92.5278 152.386 92.5753C152.342 92.6228 152.308 92.6786 152.287 92.7394C152.266 92.8001 152.257 92.8645 152.262 92.9287C152.267 92.9928 152.285 93.0552 152.316 93.1121C152.346 93.169 152.388 93.2192 152.438 93.2596C152.489 93.3 152.547 93.3297 152.61 93.3469C152.673 93.3641 152.739 93.3685 152.803 93.3597C152.929 93.3529 153.047 93.2971 153.131 93.2047C153.215 93.1123 153.259 92.9907 153.253 92.8664C153.253 92.7485 153.206 92.6355 153.121 92.5521C153.037 92.4688 152.922 92.422 152.803 92.422H152.735M147.835 94.7909C147.709 94.7978 147.591 94.8535 147.507 94.9459C147.423 95.0383 147.379 95.1599 147.385 95.2842C147.39 95.4091 147.445 95.5271 147.537 95.6121C147.63 95.6971 147.753 95.7422 147.88 95.7375C148.007 95.7328 148.126 95.6787 148.212 95.587C148.298 95.4953 148.344 95.3736 148.339 95.2486C148.339 95.2486 148.339 95.2175 148.339 95.2042C148.336 95.1429 148.321 95.0827 148.295 95.0272C148.268 94.9717 148.231 94.9218 148.185 94.8806C148.139 94.8393 148.085 94.8073 148.027 94.7866C147.968 94.7659 147.906 94.7568 147.844 94.7597M142.066 95.5553C142.003 95.5576 141.942 95.5721 141.885 95.598C141.828 95.6238 141.777 95.6605 141.734 95.7059C141.691 95.7513 141.658 95.8045 141.636 95.8625C141.615 95.9206 141.605 95.9823 141.607 96.0442C141.609 96.1061 141.624 96.1669 141.65 96.2231C141.676 96.2794 141.713 96.33 141.759 96.3721C141.805 96.4142 141.859 96.4469 141.918 96.4685C141.977 96.49 142.039 96.4999 142.102 96.4975H142.147C142.269 96.4816 142.379 96.42 142.456 96.3256C142.533 96.2312 142.57 96.1111 142.559 95.9905C142.549 95.8698 142.492 95.7577 142.4 95.6775C142.308 95.5973 142.189 95.5551 142.066 95.5597M136.54 94.9331C136.447 94.9411 136.358 94.976 136.284 95.0335C136.211 95.0911 136.157 95.1687 136.128 95.2566C136.099 95.3446 136.096 95.439 136.121 95.5282C136.146 95.6173 136.197 95.6972 136.268 95.7579C136.339 95.8186 136.426 95.8574 136.519 95.8695C136.612 95.8816 136.706 95.8664 136.79 95.8258C136.875 95.7853 136.945 95.7211 136.992 95.6414C137.04 95.5617 137.062 95.4699 137.058 95.3775C137.054 95.3144 137.038 95.2526 137.01 95.1958C136.982 95.139 136.942 95.0884 136.894 95.0469C136.846 95.0055 136.79 94.974 136.729 94.9545C136.668 94.9349 136.604 94.9276 136.54 94.9331ZM131.54 92.4397C131.414 92.4445 131.295 92.4986 131.208 92.5903C131.122 92.682 131.077 92.8037 131.082 92.9286C131.086 93.0536 131.141 93.1715 131.234 93.2566C131.327 93.3416 131.45 93.3867 131.576 93.382H131.621C131.743 93.366 131.854 93.3044 131.931 93.21C132.007 93.1156 132.044 92.9956 132.034 92.8749C132.024 92.7542 131.966 92.6422 131.875 92.5619C131.783 92.4817 131.663 92.4396 131.54 92.4442M127.828 88.5509C127.706 88.5668 127.596 88.6284 127.519 88.7228C127.442 88.8172 127.405 88.9372 127.416 89.0579C127.426 89.1786 127.483 89.2907 127.575 89.3709C127.667 89.4511 127.786 89.4933 127.909 89.4886C128.029 89.4723 128.137 89.4119 128.213 89.3195C128.29 89.2271 128.328 89.1097 128.32 88.9908C128.312 88.8719 128.258 88.7604 128.17 88.6788C128.083 88.5971 127.967 88.5514 127.846 88.5509M125.776 79.5242C125.654 79.5401 125.544 79.6017 125.467 79.6961C125.39 79.7906 125.353 79.9106 125.364 80.0312C125.374 80.1519 125.431 80.264 125.523 80.3442C125.615 80.4244 125.734 80.4666 125.857 80.462C125.977 80.4457 126.085 80.3852 126.162 80.2928C126.238 80.2005 126.276 80.083 126.268 79.9641C126.26 79.8452 126.206 79.7337 126.118 79.6521C126.031 79.5705 125.915 79.5248 125.794 79.5242M139.357 91.9686C139.357 91.7858 139.302 91.6071 139.199 91.455C139.096 91.303 138.95 91.1845 138.779 91.1146C138.608 91.0446 138.42 91.0263 138.238 91.062C138.057 91.0976 137.89 91.1857 137.759 91.315C137.628 91.4442 137.539 91.609 137.503 91.7883C137.467 91.9676 137.485 92.1535 137.556 92.3224C137.627 92.4913 137.747 92.6357 137.901 92.7373C138.055 92.8389 138.236 92.8931 138.421 92.8931C138.669 92.8931 138.907 92.7957 139.083 92.6223C139.258 92.4489 139.357 92.2138 139.357 91.9686ZM145.819 91.0397C145.633 91.0389 145.451 91.0925 145.296 91.1938C145.141 91.2952 145.019 91.4397 144.947 91.6091C144.875 91.7784 144.856 91.9651 144.891 92.1455C144.927 92.3258 145.015 92.4918 145.146 92.6223C145.277 92.7528 145.444 92.8421 145.627 92.8788C145.809 92.9155 145.998 92.898 146.17 92.8285C146.342 92.759 146.49 92.6406 146.594 92.4884C146.698 92.3361 146.754 92.1568 146.755 91.9731C146.756 91.8517 146.732 91.7314 146.685 91.619C146.639 91.5066 146.571 91.4043 146.484 91.3181C146.398 91.2318 146.295 91.1633 146.181 91.1163C146.068 91.0693 145.946 91.0448 145.823 91.0442M149.032 89.2042C148.845 89.1998 148.662 89.2503 148.504 89.3492C148.347 89.4482 148.223 89.5912 148.148 89.7599C148.073 89.9287 148.051 90.1157 148.084 90.297C148.117 90.4784 148.204 90.646 148.333 90.7785C148.463 90.9109 148.63 91.0023 148.812 91.041C148.995 91.0797 149.185 91.0639 149.358 90.9957C149.531 90.9274 149.68 90.8098 149.785 90.6578C149.891 90.5058 149.948 90.3262 149.95 90.142C149.952 90.0172 149.928 89.8932 149.881 89.7776C149.833 89.6619 149.763 89.5568 149.673 89.4686C149.584 89.3803 149.478 89.3106 149.36 89.2637C149.243 89.2168 149.118 89.1935 148.991 89.1953M152.393 87.3331C152.393 87.1504 152.337 86.9721 152.234 86.8207C152.13 86.6693 151.984 86.5515 151.813 86.4822C151.641 86.4129 151.453 86.3952 151.272 86.4314C151.091 86.4676 150.925 86.556 150.794 86.6854C150.664 86.8149 150.575 86.9796 150.539 87.1588C150.503 87.338 150.522 87.5237 150.593 87.6923C150.664 87.861 150.784 88.0051 150.938 88.1065C151.092 88.2079 151.273 88.262 151.458 88.262C151.581 88.262 151.703 88.2379 151.817 88.1912C151.931 88.1444 152.034 88.0759 152.121 87.9896C152.208 87.9033 152.277 87.8009 152.324 87.6882C152.37 87.5755 152.394 87.4549 152.393 87.3331ZM135.253 89.1553C135.067 89.1544 134.885 89.208 134.73 89.3094C134.575 89.4107 134.453 89.5552 134.381 89.7246C134.309 89.894 134.29 90.0807 134.325 90.261C134.361 90.4414 134.449 90.6073 134.58 90.7379C134.711 90.8684 134.878 90.9576 135.061 90.9943C135.243 91.031 135.432 91.0135 135.604 90.9441C135.776 90.8746 135.924 90.7562 136.028 90.6039C136.132 90.4517 136.188 90.2723 136.189 90.0886C136.19 89.9672 136.166 89.8469 136.119 89.7345C136.073 89.6221 136.005 89.5199 135.918 89.4336C135.832 89.3474 135.729 89.2788 135.615 89.2318C135.502 89.1848 135.38 89.1603 135.258 89.1597M132.773 86.4131C132.587 86.4113 132.404 86.4645 132.248 86.5659C132.092 86.6673 131.97 86.8123 131.897 86.9824C131.825 87.1525 131.806 87.34 131.842 87.521C131.878 87.702 131.967 87.8683 132.1 87.9987C132.232 88.1292 132.4 88.2178 132.583 88.2534C132.767 88.289 132.956 88.2698 133.129 88.1984C133.301 88.127 133.448 88.0066 133.55 87.8525C133.653 87.6983 133.707 87.5175 133.705 87.3331C133.705 87.0879 133.606 86.8528 133.431 86.6794C133.255 86.506 133.017 86.4086 132.769 86.4086M170.344 78.4442H176.144V86.0886H178.183V78.4442H183.475L183.965 77.1109H170.839L170.344 78.4442ZM123.314 77.1109H121.276V86.0886H130.573L131.072 84.7553H123.314V77.1109ZM142.264 77.1109L147.178 85.9997H149.36L144.446 77.1331L142.264 77.1109ZM134.839 85.9997H137.021L141.931 77.1331H139.748L134.839 85.9997ZM164.147 83.7775L155.597 77.1464H153.55V85.9997H155.588V79.3331L164.138 85.9997H166.172V77.1331H164.138L164.147 83.7775ZM205.34 80.8931H199.094C198.946 80.9065 198.795 80.8909 198.653 80.847C198.51 80.8031 198.377 80.7319 198.262 80.6374C198.147 80.5429 198.052 80.4269 197.983 80.2962C197.913 80.1654 197.871 80.0224 197.857 79.8753C197.855 79.8427 197.855 79.8101 197.857 79.7775V79.5286C197.859 79.3831 197.891 79.2395 197.95 79.1061C198.008 78.9726 198.093 78.852 198.2 78.7512C198.306 78.6504 198.431 78.5713 198.569 78.5187C198.706 78.466 198.853 78.4407 199 78.4442H207.505L208 77.1109H198.478C196.763 77.1109 195.891 78.2531 195.868 79.3864V79.9731C195.868 81.1242 196.768 82.3153 198.528 82.3153H204.773C204.922 82.3018 205.073 82.3175 205.215 82.3614C205.358 82.4053 205.491 82.4765 205.606 82.571C205.721 82.6655 205.816 82.7815 205.885 82.9122C205.955 83.043 205.997 83.186 206.011 83.3331C206.013 83.3612 206.013 83.3894 206.011 83.4175V83.6664C206.008 83.8118 205.976 83.9551 205.917 84.0883C205.858 84.2214 205.773 84.3418 205.667 84.4425C205.561 84.5432 205.436 84.6223 205.299 84.6752C205.161 84.7281 205.015 84.7538 204.868 84.7509H196.363L195.868 86.0842H205.39C207.105 86.0842 207.977 84.942 208 83.8086V83.2175C208 82.0709 207.1 80.8797 205.34 80.8797M64.4905 80.8797H58.2265C58.0776 80.8932 57.9274 80.8775 57.7846 80.8337C57.6418 80.7898 57.5092 80.7186 57.3943 80.6241C57.2794 80.5295 57.1844 80.4136 57.1149 80.2828C57.0453 80.1521 57.0026 80.0091 56.989 79.862C56.9868 79.8339 56.9868 79.8056 56.989 79.7775V79.5286C56.9913 79.3839 57.0225 79.241 57.0808 79.1082C57.1391 78.9753 57.2232 78.8551 57.3286 78.7544C57.4339 78.6537 57.5582 78.5745 57.6945 78.5212C57.8308 78.468 57.9764 78.4418 58.123 78.4442H66.637L67.15 77.1109H57.61C55.9 77.1509 55.0225 78.2753 55 79.4086V79.9953C55 81.1464 55.9 82.3375 57.6595 82.3375H63.9055C64.0544 82.3241 64.2046 82.3397 64.3474 82.3836C64.4902 82.4275 64.6228 82.4987 64.7377 82.5932C64.8526 82.6877 64.9476 82.8037 65.0171 82.9344C65.0867 83.0652 65.1294 83.2082 65.143 83.3553C65.1452 83.3834 65.1452 83.4116 65.143 83.4397V83.6886C65.1401 83.834 65.1082 83.9773 65.0492 84.1105C64.9901 84.2436 64.9051 84.364 64.799 84.4647C64.6928 84.5654 64.5676 84.6445 64.4305 84.6974C64.2935 84.7503 64.1472 84.776 64 84.7731H55.495L55 86.1064H64.522C66.2365 86.1064 67.1095 84.9642 67.132 83.8309V83.2175C67.132 82.0709 66.232 80.8797 64.4725 80.8797M188.272 85.9997H190.31V77.1331H188.272V85.9997ZM71.5735 78.4442H77.3695V86.0886H79.408V78.4442H84.7L85.195 77.1109H72.064L71.5735 78.4442ZM99.4735 78.4442L99.9685 77.1109H89.65V86.0886H99.487L99.982 84.7553H91.702V82.2353H97.4935L97.984 80.9286H91.684V78.4442H99.4735ZM108.136 84.7642H115.894L115.395 86.0975H106.098V77.1331H108.136V84.7642Z" fill="white"/>
</g>
<defs>
<clipPath id="clip0_194_102">
<rect width="153" height="32" fill="white" transform="translate(55 66)"/>
</clipPath>
</defs>
</svg>
