<svg width="262" height="164" viewBox="0 0 262 164" fill="none" xmlns="http://www.w3.org/2000/svg">
<g clip-path="url(#clip0_194_246)">
<path d="M151.69 87.6603L142.031 78.0059H151.69V87.6603Z" fill="white"/>
<path d="M82.5977 78.0059V81.2765H88.383V94.0004H92.194V81.2765H98.0049V78.0059H82.5977Z" fill="white"/>
<path d="M110.035 88.1479H111.147C113.738 88.1479 114.282 86.378 114.282 84.8935V81.2618C114.282 79.7766 113.738 78.0059 111.147 78.0059H99.625V94.0002H103.385V88.1481H105.594L110.831 94.0002H115.571L110.035 88.1479ZM103.385 81.1568H109.426C109.963 81.1568 110.199 81.2384 110.296 81.3013C110.48 81.4345 110.57 81.7095 110.57 82.1397V84.0136C110.57 84.4458 110.481 84.7206 110.304 84.8471C110.199 84.9166 109.963 84.9966 109.426 84.9966H103.385V81.1568H103.385Z" fill="white"/>
<path d="M183.137 78.0059L178.753 83.8209L174.392 78.0059H169.773L176.62 86.7337V94.0004H180.457V86.6438L187.282 78.0059H183.137Z" fill="white"/>
<path d="M138.337 78.0059H135.98V94.0002H139.488V84.103C139.572 84.1901 149.333 94.0002 149.333 94.0002H151.69V91.3355L138.337 78.0059Z" fill="white"/>
<path d="M126.99 78.0059H123.305L115.711 94.0002H119.59L121.1 90.6099H129.194L130.704 94.0002H134.584L126.99 78.0059ZM122.617 87.3083L125.147 81.8004L127.678 87.3083H122.617Z" fill="white"/>
<path d="M168.663 85.0192C168.155 84.4699 167.27 84.2032 165.958 84.2032H157.303V81.2169H168.664C168.663 81.1776 168.66 81.1439 168.658 81.1061V78.0059H157.331C156.022 78.0059 155.143 78.2735 154.644 78.8238C154.141 79.3799 153.895 80.3936 153.895 81.9221V83.6331C153.895 85.1616 154.141 86.1753 154.644 86.7309C155.141 87.2809 156.02 87.5497 157.331 87.5497H165.969V90.5793H154.241V94.0004H165.966C167.275 94.0004 168.158 93.7334 168.665 93.1838C169.179 92.6281 169.428 91.6144 169.428 90.0849V87.9539C169.428 86.4242 169.178 85.5755 168.663 85.0192Z" fill="white"/>
<path d="M202.237 85.0192C201.729 84.4699 200.843 84.2032 199.533 84.2032H190.877V81.2169H202.239C202.237 81.1776 202.234 81.1439 202.234 81.1061V78.0059H190.906C189.596 78.0059 188.717 78.2735 188.217 78.8238C187.714 79.3799 187.469 80.3936 187.469 81.9221V83.6331C187.469 85.1616 187.713 86.1753 188.217 86.7309C188.715 87.2809 189.595 87.5497 190.906 87.5497H199.544V90.5793H187.816V94.0004H199.54C200.85 94.0004 201.732 93.7334 202.24 93.1838C202.752 92.6281 203.002 91.6144 203.002 90.0849V87.9539C203.002 86.4242 202.752 85.5755 202.237 85.0192Z" fill="white"/>
<path d="M67.3371 66.1682H62.3468V62H60V72.6697H62.3468V68.2482H67.3371V72.6697H69.6769V62H67.3371V66.1682Z" fill="white"/>
<path d="M120.67 64.0844H125.045V67.1813H120.068V64.695C120.08 64.572 120.055 64.3538 120.162 64.2198C120.272 64.0808 120.447 64.0889 120.67 64.0844ZM118.256 62.611C117.766 63.111 117.742 63.8435 117.734 64.2692V72.6701H120.068V69.2656H125.046V72.6701H127.392V62.002H120.088C119.397 62.0083 118.741 62.1042 118.256 62.611Z" fill="white"/>
<path d="M103.502 62.6079C103.02 62.1034 102.369 62.0075 101.665 62.001H94.3477V72.6691H96.6883V64.0836H101.089C101.305 64.0883 101.484 64.0768 101.598 64.2202C101.701 64.353 101.68 64.5712 101.685 64.6933V72.6695H104.029V68.5424V64.2684C104.014 63.8428 103.993 63.1102 103.502 62.6079Z" fill="white"/>
<path d="M89.9331 69.9738C89.9212 70.0959 89.9428 70.3149 89.8384 70.4507C89.7283 70.5916 89.5498 70.5772 89.3279 70.5809H84.9346V62.002H82.5898V72.6701H89.9105C90.6127 72.6661 91.255 72.5649 91.7448 72.0624C92.2441 71.5571 92.258 70.8275 92.2739 70.3987V62.002H89.9331V69.9738Z" fill="white"/>
<path d="M113.456 69.9734C113.442 70.0955 113.464 70.3145 113.364 70.4503C113.255 70.5911 113.077 70.5768 112.856 70.5806H108.456V64.084H112.856C113.077 64.0888 113.255 64.0804 113.364 64.2206C113.464 64.3534 113.442 64.5716 113.456 64.6937V69.9734ZM115.784 64.2688C115.774 63.8432 115.76 63.111 115.268 62.6053C114.773 62.1038 114.128 62.0079 113.435 62H106.109V72.6697H113.435C114.128 72.6657 114.774 72.5645 115.268 72.062C115.76 71.5567 115.774 70.8271 115.784 70.3983V64.2688Z" fill="white"/>
<path d="M76.1377 66.6661L73.2922 62H70.5039L74.8857 68.7269V72.6697H77.3923V68.7269L81.7626 62H78.9804L76.1377 66.6661Z" fill="white"/>
<path d="M132.241 62.002H129.75V72.6701H132.241V62.002Z" fill="white"/>
</g>
<defs>
<clipPath id="clip0_194_246">
<rect width="143" height="32" fill="white" transform="translate(60 62)"/>
</clipPath>
</defs>
</svg>
