<svg width="262" height="164" viewBox="0 0 262 164" fill="none" xmlns="http://www.w3.org/2000/svg">
<path fill-rule="evenodd" clip-rule="evenodd" d="M136.352 73.2207H142.417C143.705 73.2207 144.795 73.2646 145.477 73.4189C146.435 73.6061 147.25 73.9912 147.932 74.4761C148.615 75.0046 149.154 75.6323 149.495 76.359C149.837 77.0858 150.046 78.0001 150.046 79.1122C150.046 80.0264 149.837 80.8416 149.495 81.5688C149.088 82.3942 148.549 83.0657 147.8 83.5942C147.184 83.9794 146.435 84.2777 145.477 84.5201C144.729 84.6631 143.782 84.7504 142.549 84.7504H136.352L136.352 73.2207ZM140.304 81.8439H142.142C143.353 81.8439 144.3 81.6015 144.971 81.0839C145.654 80.5665 146.006 79.8505 146.006 78.9471C146.006 78.055 145.654 77.3392 144.927 76.8217C144.168 76.3041 143.177 76.0288 141.878 76.0288H140.304L140.304 81.8439Z" fill="white"/>
<path fill-rule="evenodd" clip-rule="evenodd" d="M189.687 84.3754H186.396L184.161 79.7396L182.103 84.3645H178.591L175.354 76.3699H168.177V77.8456H174.54V80.3673H168.177V81.7769H175.354V84.3878H155.243L153.69 81.7988L152.545 84.3878H148.164L153.316 73.5724H159.36L164.324 84.3878V73.5723H178.03L180.748 80.2567L182.631 76.4796L181.299 73.5723H187.122L185.702 76.4796L187.585 80.2567L190.359 73.5723H194.157L189.687 84.3754ZM156.233 76.1825L153.779 81.6446H158.953L156.233 76.1825Z" fill="white"/>
<path fill-rule="evenodd" clip-rule="evenodd" d="M199.683 72.7354C203.756 72.7354 207.081 75.5437 207.081 78.9578C207.081 82.3718 203.756 85.1693 199.683 85.1693C195.61 85.1693 192.297 82.3717 192.297 78.9578C192.297 75.5437 195.61 72.7354 199.683 72.7354ZM196.436 78.9578C196.436 80.9949 197.9 82.6578 199.683 82.6578C201.467 82.6578 202.931 80.9949 202.931 78.9578C202.931 76.9204 201.467 75.2573 199.683 75.2573C197.9 75.2573 196.436 76.9204 196.436 78.9578Z" fill="white"/>
<path fill-rule="evenodd" clip-rule="evenodd" d="M214.422 72.7354C218.495 72.7354 221.819 75.5437 221.819 78.9578C221.819 82.3718 218.495 85.1693 214.422 85.1693C210.349 85.1693 207.035 82.3717 207.035 78.9578C207.035 75.5437 210.349 72.7354 214.422 72.7354ZM211.174 78.9578C211.174 80.9949 212.638 82.6578 214.422 82.6578C216.205 82.6578 217.669 80.9949 217.669 78.9578C217.669 76.9204 216.205 75.2573 214.422 75.2573C212.638 75.2573 211.174 76.9204 211.174 78.9578Z" fill="white"/>
<path d="M96.9609 84.6824L101.141 73.2852H106.011L110.192 84.6824H105.639L103.577 79.0597L101.514 84.6824H96.9609Z" fill="white"/>
<path d="M90.466 84.6824V76.8045H87.0312V73.2852H98.3406V76.8045H94.9058V84.6824H90.466Z" fill="white"/>
<path d="M119.078 84.6824L123.26 73.2852H128.129L132.309 84.6824H127.756L125.694 79.0597L123.631 84.6824H119.078Z" fill="white"/>
<path d="M112.583 84.6824V76.8045H109.148V73.2852H120.458V76.8045H117.023V84.6824H112.583Z" fill="white"/>
<path d="M55.0005 80.7899C49.5669 79.6 45.6523 76.2545 45.6523 72.313C45.6523 71.8323 45.7111 71.3605 45.8225 70.9001C47.7508 70.5261 52.6882 69.6209 55.1509 69.6731C56.2103 69.6958 56.9647 69.9026 56.9317 70.9601C56.9066 71.7669 55.6105 77.9275 55.0005 80.7899Z" fill="white"/>
<path d="M63.7408 80.7899C69.1744 79.6 73.0884 76.2545 73.0884 72.313C73.0884 71.8323 73.0303 71.3605 72.9188 70.9001C70.9906 70.5261 66.0526 69.6209 63.5905 69.6731C62.5305 69.6958 61.7767 69.9026 61.8096 70.9601C61.8355 71.7669 63.1308 77.9275 63.7408 80.7899Z" fill="white"/>
<path d="M59.373 81.2536C59.1075 81.2536 58.8487 81.2485 58.5904 81.24C58.6222 78.208 58.7115 69.7263 58.7115 68.9152C58.7115 67.9255 58.1183 67.8338 57.491 67.859C52.7609 68.0508 47.9397 69.0135 46.4297 69.3366C48.3118 65.8622 53.3948 63.3721 59.3707 63.3721C65.3465 63.3721 70.4301 65.8622 72.3122 69.3366C70.8016 69.0135 65.981 68.0508 61.2503 67.859C60.6236 67.8338 60.0304 67.9256 60.0304 68.9152C60.0304 69.7263 60.119 78.208 60.1508 81.24C59.8937 81.2502 59.6342 81.2536 59.373 81.2536Z" fill="white"/>
<path d="M49.2461 94.5168L52.5375 85.543H56.3718L59.6638 94.5168H56.0788L54.455 90.0898L52.8311 94.5168H49.2461Z" fill="white"/>
<path d="M44.1339 94.5168V88.3142H41.4297V85.543H50.3338V88.3142H47.6296V94.5168H44.1339Z" fill="white"/>
<path d="M66.6602 94.5168L69.9516 85.543H73.7859L77.0779 94.5168H73.4929L71.869 90.0898L70.2452 94.5168H66.6602Z" fill="white"/>
<path d="M61.548 94.5168V88.3142H58.8438V85.543H67.7479V88.3142H65.0437V94.5168H61.548Z" fill="white"/>
</svg>
