<svg width="65" height="20" viewBox="0 0 65 20" fill="none" xmlns="http://www.w3.org/2000/svg">
<path d="M51.2234 20V17.4038L53.3388 16.978V3.39286H49.9597L49.7811 5.67308H46.4707V0H64.6574V5.67308H61.3058L61.1409 3.39286H57.7344V16.978L59.8497 17.4038V20H51.2234Z" fill="white"/>
<path d="M17.9121 20V17.4038L20.0137 16.978V3.03571L17.9121 2.60989V0H20.0137H26.6346L31.7857 13.5714H31.8681L36.8818 0H45.5493V2.60989L43.4339 3.03571V16.978L45.5493 17.4038V20H36.9505V17.4038L39.1482 16.978V13.7225L39.2307 4.51923L39.1482 4.50549L33.3241 19.8626H29.9313L23.9972 4.65659L23.9011 4.67033L24.1895 13.2005V16.978L26.5247 17.4038V20H17.9121Z" fill="white"/>
<path d="M0 20V17.4038L2.11537 16.978V3.03571L0 2.60989V0H15.7417V5.57692H12.4038L12.2527 3.37912H6.51095V7.96703H13.0906V11.3599H6.51095V16.6209H12.5411L12.6922 14.3407H16.0027V20H0Z" fill="white"/>
</svg>
