<svg width="262" height="164" viewBox="0 0 262 164" fill="none" xmlns="http://www.w3.org/2000/svg">
<path d="M58.5476 77.995L63.7009 87.655H69.6694L74.7646 77.995H77.2976V76.24H69.6549V77.995H71.8531L68.17 85.045L64.4142 77.995H67.1073V76.24H56V77.995H58.5476ZM124.333 77.995V76.24H134.567V77.995H132.019V85.885H134.377C136.561 85.885 138.017 84.385 138.017 82.36H139.691V87.655H124.333V85.885H126.909V77.98H124.333V77.995ZM99.4977 76C94.3589 76 91.6366 78.64 91.6366 81.955C91.6366 85.27 94.257 88 99.5268 88C104.811 88 107.402 85.315 107.402 81.955C107.402 78.595 104.636 76 99.4977 76ZM99.4394 86.185C97.5615 86.155 96.7463 84.01 96.7754 81.895C96.8191 79.69 97.8381 77.77 99.5996 77.8C101.346 77.83 102.278 79.78 102.249 82C102.205 84.055 101.376 86.215 99.4394 86.2V86.185ZM157.16 77.995L162.328 87.655H168.296L173.377 77.995H175.924V76.24H168.267V77.995H170.48L166.782 85.045L163.041 77.995H165.72V76.24H154.612V77.995H157.16ZM198.124 76C192.986 76 190.263 78.64 190.263 81.955C190.263 85.27 192.869 88 198.139 88C203.409 88 206 85.315 206 81.955C206 78.595 203.278 76 198.139 76H198.124ZM198.066 86.185C196.188 86.155 195.359 84.01 195.402 81.895C195.446 79.69 196.465 77.77 198.212 77.8C199.973 77.83 200.905 79.78 200.861 82C200.832 84.055 199.988 86.215 198.066 86.2V86.185Z" fill="white"/>
</svg>
