<svg width="262" height="164" viewBox="0 0 262 164" fill="none" xmlns="http://www.w3.org/2000/svg">
<path d="M131.054 102C152.622 102 170.108 93.0469 170.108 81.9912C170.125 70.9531 152.64 62 131.054 62C109.486 62 92 70.9531 92 81.9912C92 93.0469 109.486 102 131.054 102ZM138.413 92.1883C137.764 93.6951 136.643 96.919 134.067 98.2155C133.297 98.601 132.333 98.7937 131.457 98.8112C131.264 98.8112 131.124 98.8112 131.071 98.8112C123.853 98.8112 117.16 97.8125 111.536 96.0955C111.483 96.078 111.36 96.0254 111.325 96.0079C110.8 95.8327 110.537 95.5874 110.537 95.3071C110.537 95.0442 110.677 94.8515 110.852 94.6763C110.922 94.5887 111.045 94.5011 111.203 94.3609C112.499 93.2746 116.406 90.4538 123.765 87.6329C126.341 86.6518 129.565 85.4253 132.964 84.707C134.943 84.2865 142.285 83.1651 138.413 92.1883ZM158.141 72.0219C158.281 71.7766 158.474 71.5839 158.807 71.5488C158.982 71.5313 159.245 71.5839 159.613 71.8117C164.203 74.6325 166.919 78.1542 166.919 81.9737C166.919 88.8769 158.053 94.7989 145.368 97.392C144.545 97.5497 144.019 97.5497 143.827 97.3395C143.704 97.2168 143.669 96.989 143.827 96.7262C143.914 96.5861 144.002 96.4634 144.159 96.2532C151.063 88.106 156.319 76.1042 157.826 72.6351C157.948 72.4249 158.053 72.1796 158.141 72.0219ZM123.818 71.7766C124.466 70.2698 125.587 67.046 128.163 65.767C128.951 65.3815 129.897 65.1888 130.774 65.1713C130.966 65.1713 131.106 65.1713 131.159 65.1713C138.378 65.1713 145.071 66.17 150.695 67.887C150.73 67.9045 150.87 67.9571 150.905 67.9571C151.431 68.1323 151.693 68.3601 151.693 68.6579C151.693 68.9207 151.553 69.1134 151.378 69.2887C151.29 69.3587 151.185 69.4639 151.028 69.604C149.731 70.6903 145.824 73.5112 138.465 76.332C135.89 77.3132 132.648 78.5396 129.284 79.258C127.287 79.6785 119.946 80.7998 123.818 71.7766ZM116.739 66.5729C117.563 66.4152 118.088 66.4152 118.281 66.6255C118.386 66.7481 118.421 66.9759 118.281 67.2387C118.194 67.3789 118.106 67.5191 117.948 67.7118C111.045 75.859 105.789 87.8607 104.282 91.3298C104.177 91.5751 104.054 91.8029 103.967 91.9606C103.827 92.2059 103.651 92.4161 103.318 92.4336C103.126 92.4512 102.88 92.3986 102.495 92.1708C97.9045 89.35 95.1888 85.8283 95.1888 82.0088C95.1888 75.1056 104.054 69.166 116.739 66.5729Z" fill="white"/>
</svg>
