<svg width="262" height="164" viewBox="0 0 262 164" fill="none" xmlns="http://www.w3.org/2000/svg">
<g clip-path="url(#clip0_194_31)">
<mask id="mask0_194_31" style="mask-type:luminance" maskUnits="userSpaceOnUse" x="103" y="54" width="57" height="57">
<path d="M160 54H103V111H160V54Z" fill="white"/>
</mask>
<g mask="url(#mask0_194_31)">
<path d="M156.182 68.25C153.68 63.9175 150.082 60.3196 145.75 57.8182C141.417 55.3169 136.503 54 131.5 54C126.497 54 121.582 55.3169 117.25 57.8182C112.917 60.3196 109.32 63.9175 106.818 68.25C104.317 72.5824 103 77.4972 103 82.5C103 87.5026 104.317 92.4176 106.818 96.75C109.32 101.082 112.917 104.68 117.25 107.182C121.582 109.683 126.497 111 131.5 111C136.503 111 141.417 109.683 145.75 107.182C150.082 104.68 153.68 101.082 156.182 96.75C158.683 92.4176 160 87.5028 160 82.5C160 77.4972 158.683 72.5824 156.182 68.25ZM105.85 82.5C105.85 77.9975 107.035 73.5742 109.286 69.675C111.538 65.7757 114.776 62.5378 118.675 60.2864C122.342 58.1691 126.473 56.9948 130.697 56.8627L127.425 80.1471L108.896 94.6233C106.898 90.8989 105.85 86.7345 105.85 82.5ZM144.325 104.714C140.426 106.965 136.002 108.15 131.5 108.15C126.997 108.15 122.574 106.965 118.675 104.714C115.008 102.596 111.926 99.606 109.699 96.014L131.5 87.2058L153.301 96.014C151.074 99.606 147.992 102.596 144.325 104.714ZM154.104 94.6233L135.575 80.1471L132.303 56.8627C136.527 56.9948 140.658 58.1691 144.325 60.2864C148.224 62.5378 151.462 65.7757 153.713 69.675C155.965 73.5742 157.15 77.9976 157.15 82.5C157.15 86.7345 156.102 90.8989 154.104 94.6233Z" fill="white"/>
</g>
</g>
<defs>
<clipPath id="clip0_194_31">
<rect width="57" height="57" fill="white" transform="translate(103 54)"/>
</clipPath>
</defs>
</svg>
