<svg width="262" height="164" viewBox="0 0 262 164" fill="none" xmlns="http://www.w3.org/2000/svg">
<g clip-path="url(#clip0_194_247)">
<path d="M173.548 91.2751C169.776 91.2751 166.707 88.7489 166.707 85.6436V77.6315C166.707 74.5262 169.776 72 173.548 72H186.16C189.932 72 193.001 74.5262 193.001 77.6315V85.6436C193.001 88.7489 189.932 91.2751 186.16 91.2751H173.548ZM172.376 76.6326C172.298 76.6326 172.235 76.6957 172.235 76.7733V86.4902C172.235 86.5678 172.298 86.6309 172.376 86.6309H187.245C187.323 86.6309 187.386 86.5678 187.386 86.4902V76.7733C187.386 76.6957 187.323 76.6326 187.245 76.6326H172.376Z" fill="white"/>
<path d="M133.574 91.275H117.861C114.088 91.275 111.02 88.7488 111.02 85.6436V77.6286C111.02 74.5234 114.088 71.9971 117.861 72.0002H133.496L133.61 72C133.849 72 134.043 72.1933 134.043 72.4318V72.4487V76.2017C134.043 76.4402 133.849 76.6335 133.61 76.6335L133.573 76.6333L116.711 76.6335C116.62 76.6335 116.547 76.707 116.547 76.7974V86.467C116.547 86.5573 116.62 86.6308 116.711 86.6308L133.558 86.6311L133.61 86.6312C133.849 86.6312 134.043 86.8246 134.043 87.063V87.0711L134.041 90.8399L134.042 90.8434C134.042 91.0819 133.849 91.2752 133.61 91.2752L133.574 91.275Z" fill="white"/>
<path d="M161.699 91.275H145.986C142.213 91.275 139.145 88.7488 139.145 85.6436V77.6286C139.145 74.5234 142.213 71.9971 145.986 72.0002H161.621L161.735 72C161.974 72 162.168 72.1933 162.168 72.4318V72.4487V76.2017C162.168 76.4402 161.974 76.6335 161.735 76.6335L161.699 76.6333L144.836 76.6335C144.745 76.6335 144.672 76.707 144.672 76.7974V86.467C144.672 86.5573 144.745 86.6308 144.836 86.6308L161.683 86.6311L161.735 86.6312C161.974 86.6312 162.168 86.8246 162.168 87.063V87.0711L162.166 90.8399L162.167 90.8434C162.167 91.0819 161.974 91.2752 161.735 91.2752L161.699 91.275Z" fill="white"/>
<path d="M133.655 83.7943H119.599C119.459 83.7943 119.344 83.6798 119.344 83.5399V79.774C119.344 79.634 119.459 79.5195 119.599 79.5195H133.655C133.796 79.5195 133.911 79.634 133.911 79.774V83.5399C133.911 83.6798 133.796 83.7943 133.655 83.7943Z" fill="white" fill-opacity="0.44"/>
<path d="M93.2049 91.9983C91.0388 91.9983 89.0691 91.0166 88.0644 89.4364L88.0063 89.3394L78.2161 72.5718C78.151 72.4561 78.1523 72.3219 78.2181 72.2101C78.2942 72.0805 78.4441 72 78.6092 72H83.7751C83.9436 72 84.0947 72.0828 84.1697 72.2161L93.0124 87.2992C93.031 87.321 93.0863 87.369 93.213 87.3716C93.3579 87.3705 93.3985 87.3043 93.4181 87.2724L103.017 72.2015C103.092 72.0782 103.241 72 103.403 72H108.65C108.818 72 108.969 72.0828 109.044 72.2161C109.109 72.3312 109.106 72.4677 109.037 72.5811L98.3892 89.3697C97.4082 90.9756 95.4394 91.9837 93.2528 91.9982L93.2049 91.9983Z" fill="white"/>
<path d="M74.142 91.2753H69.4333C69.195 91.2753 69 91.0809 69 90.8435V72.4318C69 72.1943 69.195 72 69.4333 72H74.142C74.3804 72 74.5754 72.1943 74.5754 72.4318V90.8435C74.5754 91.0809 74.3804 91.2753 74.142 91.2753Z" fill="white"/>
</g>
<defs>
<clipPath id="clip0_194_247">
<rect width="124" height="20" fill="white" transform="translate(69 72)"/>
</clipPath>
</defs>
</svg>
