<svg width="262" height="164" viewBox="0 0 262 164" fill="none" xmlns="http://www.w3.org/2000/svg">
<g clip-path="url(#clip0_194_99)">
<path d="M172.537 73.8904C172.633 73.7259 172.532 73.6025 172.321 73.6025C171.227 73.6025 169.794 73.6069 168.659 73.6069C168.389 73.6069 168.247 73.639 168.119 73.8904C167.697 74.6947 162.574 82.3583 161.622 83.8436C161.462 84.0721 161.265 84.04 161.242 83.7796C161.146 82.8976 160.381 81.8785 159.177 81.3941C158.262 81.024 157.36 80.9554 156.43 81.0787C154.745 81.3026 153.244 82.1938 151.925 83.19C149.938 84.6981 148.222 86.654 146.006 88.1028C144.797 88.8887 143.14 89.5742 142.032 88.5506C141.029 87.6229 141.144 85.5618 142.677 83.967C142.837 83.7979 143.034 83.9395 143.002 84.0904C142.856 84.8124 143.034 85.5299 143.584 86.0325C144.252 86.6312 145.209 86.6998 146.028 86.2975C146.995 85.8178 147.562 84.8947 147.732 83.848C147.988 82.2213 146.734 80.7862 145.163 80.6721C143.886 80.5806 142.664 81.024 141.473 82.0064C140.878 82.5 140.535 82.8656 140.022 83.6013C139.898 83.7796 139.701 83.7979 139.711 83.5328C139.77 81.4489 138.909 80.279 137.183 80.2379C135.847 80.206 134.413 80.9325 133.301 81.8191C132.079 82.7971 131.012 84.0994 129.867 85.3196C129.725 85.4705 129.602 85.4613 129.561 85.1688C129.524 83.7887 129.181 82.4543 128.54 81.5037C128.315 81.1747 127.839 81.0101 127.436 81.2342C127.253 81.3347 126.608 81.6317 126.141 82.0064C125.907 82.1984 125.82 82.4725 125.921 82.829C126.539 84.8901 126.402 87.2344 125.564 89.2132C124.795 91.0274 123.298 92.6635 121.539 93.2164C120.381 93.582 119.177 93.4038 118.431 92.3802C117.41 90.968 117.822 88.5048 119.347 86.4666C120.692 84.6706 122.638 83.5282 124.58 82.7925C124.808 82.7056 124.854 82.5594 124.79 82.363C124.685 82.043 124.515 81.6088 124.447 81.4124C124.268 80.9417 123.769 80.864 123.16 80.9279C121.75 81.0924 120.477 81.5723 119.218 82.244C115.927 84.0035 114.278 87.408 113.555 89.2315C113.207 90.1089 112.909 90.6528 112.525 91.1371C112.008 91.7859 111.353 92.3802 110.162 93.4267C110.053 93.5226 109.975 93.7236 110.066 93.9064C110.19 94.1578 110.808 95.0307 110.982 95.1083C111.174 95.2043 111.403 95.0718 111.49 95.0078C112.323 94.4457 113.322 93.5501 113.811 92.9422C113.981 92.7365 114.159 92.8234 114.251 93.1388C114.709 94.7611 115.899 96.0862 117.547 96.6392C120.564 97.6537 123.696 96.1823 126.058 93.6231C127.56 91.9962 128.1 90.9497 128.677 90.2369C129.652 89.0303 131.575 86.3296 133.869 84.5976C134.711 83.9578 135.705 83.4734 136.204 83.7933C136.607 84.0537 136.735 84.657 136.089 85.8268C133.754 90.086 130.316 95.0901 129.684 96.3057C129.57 96.5158 129.67 96.6803 129.89 96.6803C131.113 96.6759 132.326 96.6759 133.434 96.6759C133.617 96.6666 133.699 96.5844 133.795 96.452C135.59 93.6506 137.275 90.9818 139.083 88.2261C139.184 88.0616 139.276 88.1895 139.28 88.2627C139.317 88.9025 139.477 89.7798 139.857 90.351C140.539 91.4113 141.51 91.8682 142.586 91.8774C143.442 91.8866 143.872 91.7586 144.797 91.4158C145.548 91.1371 146.152 90.7715 146.61 90.4425C146.88 90.2551 146.926 90.5705 146.921 90.6161C146.505 92.8416 147.017 95.4739 149.233 96.5707C151.884 97.873 154.796 96.0407 156.472 94.3863C156.636 94.2264 156.81 94.2446 156.829 94.5873C156.865 95.2181 157.149 95.9675 157.676 96.4931C159.081 97.9005 161.911 97.343 164.754 95.1449C166.58 93.7374 168.489 91.7494 170.215 89.6472C170.279 89.565 170.325 89.4372 170.202 89.3046C169.941 89.0303 169.561 88.7151 169.3 88.4729C169.181 88.3722 169.007 88.3997 168.906 88.4774C167.139 90.1546 165.546 92.0694 163.243 93.6552C162.469 94.1943 161.228 94.6331 160.674 93.8835C160.459 93.5912 160.482 93.1889 160.697 92.6589C161.366 90.9862 171.987 74.8408 172.537 73.8904ZM158.5 87.4263C158.523 87.5497 158.683 87.6686 158.843 87.728C158.898 87.7463 158.93 87.7874 158.866 87.9198C158.413 88.8842 158.001 89.4416 157.433 90.2826C156.911 91.0594 156.325 91.6626 155.615 92.243C154.544 93.1295 153.056 94.0892 151.825 93.4449C151.28 93.1616 151.042 92.3984 151.051 91.7815C151.078 90.0449 151.852 88.2581 153.28 86.5078C155.025 84.3645 156.952 83.254 158.216 83.8619C159.525 84.4834 159.109 85.996 158.523 87.1841C158.477 87.2756 158.472 87.3532 158.5 87.4263ZM95.4937 96.6165C91.5337 96.6438 88.045 94.1989 87.642 89.9718C87.4177 87.6275 88.0816 85.5389 89.4138 83.8207C90.5904 82.2897 92.5865 81.0147 94.2759 80.704C94.8254 80.6035 95.5625 80.6675 95.8692 81.0286C96.35 81.5859 96.2081 82.1938 95.7319 82.4406C94.4453 83.0987 92.8934 84.2228 92.1242 85.7538C91.5015 87.0059 91.3779 88.5185 92.3256 89.9536C93.9143 92.3527 98.3507 92.4167 102.471 88.5917C103.492 87.6548 104.403 86.7592 105.332 85.6944C107.15 83.6241 107.75 82.8656 110.167 79.5251C110.195 79.4884 110.204 79.4336 110.19 79.4107C110.172 79.3696 110.135 79.3559 110.066 79.3513C108.455 79.3971 107.049 79.877 105.685 80.896C105.291 81.1839 104.728 81.1427 104.476 80.7634C104.202 80.3384 104.398 79.7809 104.852 79.4701C107.049 77.9439 109.448 77.6696 111.898 77.2583C111.898 77.2583 112.067 77.2674 112.209 77.0802C113.216 75.7914 113.976 74.6307 115.047 73.3282C116.128 72.0075 117.524 70.7919 118.591 69.8825C120.079 68.603 121.031 68.1734 122.002 67.6478C122.258 67.5153 121.97 67.3554 121.892 67.3554C116.476 66.3409 110.849 65.0247 105.47 67.0126C101.748 68.4019 100.113 71.3495 100.901 73.3191C101.459 74.7174 103.3 74.9415 105.026 74.1005C106.459 73.4013 107.782 72.2726 108.72 70.8194C109.247 70.0151 110.355 70.5954 109.755 71.9938C108.18 75.6862 105.172 78.6156 101.51 78.739C98.3919 78.8395 96.3819 76.5499 96.3866 73.7259C96.4002 68.1551 102.613 64.4901 109.137 63.9371C116.998 63.2882 124.442 65.3766 132.248 66.3226C138.227 67.0446 143.964 67.0629 149.97 65.6828C150.68 65.5274 151.179 65.9798 151.133 66.6973C151.074 67.7347 150.273 68.7309 148.29 69.8094C146.038 71.0433 143.684 71.4134 141.221 71.4363C135.274 71.4866 129.73 69.1696 123.998 67.9266C124.007 68.1779 124.071 68.475 123.861 68.6349C120.683 70.9747 117.813 73.3465 115.89 76.6825C115.826 76.7602 115.862 76.8334 115.972 76.8242C117.643 76.7373 119.145 76.6916 120.702 76.5682C120.972 76.5455 120.986 76.4769 120.958 76.2803C120.821 75.1287 121.155 73.8218 122.171 72.9169C123.206 71.9892 124.506 71.8841 125.367 72.5513C126.347 73.3145 126.26 74.6809 125.724 75.7091C125.179 76.7511 124.282 77.3085 123.417 77.5782C123.417 77.5782 123.238 77.6193 123.261 77.7838C123.298 78.0488 124.474 78.6979 124.575 78.8714C124.671 79.0359 124.621 79.2919 124.442 79.4884C124.318 79.6302 124.122 79.7626 123.874 79.758C123.673 79.7536 123.549 79.685 123.293 79.5433C122.767 79.2554 122.107 78.7892 121.663 78.2362C121.512 78.0489 121.439 78.0444 121.063 78.0673C119.379 78.1632 116.746 78.419 114.965 78.6385C114.535 78.6933 114.471 78.7709 114.379 78.9218C111.536 83.5968 108.505 88.6419 105.177 92.0145C101.615 95.6384 98.6436 96.5936 95.4937 96.6165ZM122.565 75.8371C122.611 76.0793 122.702 76.125 122.812 76.1021C123.352 75.9924 123.948 75.5492 124.296 75.0374C124.616 74.5713 124.767 73.8948 124.447 73.6253C124.163 73.3831 123.705 73.4516 123.362 73.7532C122.684 74.3518 122.478 75.2019 122.565 75.8371ZM129.931 57C93.3374 57 64 67.9495 64 81.6774C64 95.323 93.5754 106.355 129.931 106.355C166.287 106.355 195.863 95.2865 195.863 81.6774C195.863 68.0729 166.287 57 129.931 57ZM129.931 104.481C94.7979 104.481 66.2296 94.304 66.2296 81.8556C66.2296 69.4073 94.7979 58.8919 129.931 58.8919C165.065 58.8919 193.642 69.4027 193.642 81.8556C193.642 94.304 165.065 104.481 129.931 104.481Z" fill="white"/>
</g>
<defs>
<clipPath id="clip0_194_99">
<rect width="131.854" height="51" fill="white" transform="translate(64 57)"/>
</clipPath>
</defs>
</svg>
