<svg width="262" height="164" viewBox="0 0 262 164" fill="none" xmlns="http://www.w3.org/2000/svg">
<path d="M137.083 89.4461C137.083 89.602 137.161 89.68 137.239 89.68C137.317 89.68 137.395 89.68 137.395 89.602L161.956 73.6176C162.424 73.3057 162.814 73.1498 163.359 73.1498H168.74C169.597 73.1498 170.143 73.6956 170.143 74.5533V84.8457C170.143 86.0933 169.831 86.795 168.74 87.4968L162.19 91.3954C162.112 91.4734 162.034 91.4734 161.956 91.4734C161.878 91.4734 161.8 91.3954 161.8 91.1615V79.1537C161.8 78.9977 161.722 78.9198 161.644 78.9198C161.566 78.9198 161.488 78.9198 161.488 78.9977L143.554 90.6936C143.087 91.0055 142.619 91.0835 142.151 91.0835H130.299C129.441 91.0835 128.896 90.5377 128.896 89.68V74.8652C128.896 74.7872 128.818 74.6313 128.74 74.6313C128.662 74.6313 128.584 74.6313 128.584 74.7092L116.732 81.8827C116.576 81.9607 116.576 82.0387 116.576 82.0387C116.576 82.1166 116.576 82.1166 116.654 82.1946L125.075 90.6157C125.153 90.6936 125.231 90.8496 125.231 90.9276C125.231 91.0055 125.075 91.0835 124.997 91.0835H117.356C116.732 91.0835 116.264 91.0055 115.952 90.6936L110.806 85.5474C110.728 85.4695 110.728 85.4695 110.65 85.4695C110.572 85.4695 110.572 85.4695 110.494 85.5474L101.917 90.6936C101.371 91.0055 101.059 91.0835 100.513 91.0835H92.7941C91.9364 91.0835 91.3906 90.5377 91.3906 89.68V79.5435C91.3906 78.296 91.7025 77.5942 92.7941 76.8925L99.3438 72.9159C99.4218 72.8379 99.4998 72.8379 99.4998 72.8379C99.5778 72.8379 99.6557 72.9159 99.6557 73.1498V86.6391C99.6557 86.795 99.7337 86.873 99.8117 86.873C99.8897 86.873 99.9676 86.873 100.046 86.795L122.268 73.3837C122.814 73.0718 123.126 72.9938 123.749 72.9938H135.757C136.615 72.9938 137.161 73.5396 137.161 74.3973V89.4461H137.083Z" fill="white"/>
</svg>
