<svg width="262" height="164" viewBox="0 0 262 164" fill="none" xmlns="http://www.w3.org/2000/svg">
<g clip-path="url(#clip0_194_242)">
<mask id="mask0_194_242" style="mask-type:luminance" maskUnits="userSpaceOnUse" x="96" y="52" width="71" height="60">
<path d="M167 52H96V111.506H167V52Z" fill="white"/>
</mask>
<g mask="url(#mask0_194_242)">
<path d="M106.181 72.9065C109.867 62.1127 120.055 54.8611 131.516 54.8611C142.977 54.8611 153.166 62.1127 156.852 72.9065L156.882 72.9962H164.947V72.0292L161.592 71.6391C159.525 71.397 159.082 70.4838 158.521 69.3255L158.378 69.0401C153.53 58.6901 142.983 52.002 131.508 52.002C120.034 52.002 109.487 58.6901 104.64 69.0401L104.503 69.321C103.944 70.4793 103.496 71.3925 101.433 71.6346L98.0781 72.0292V73.0006H106.144L106.181 72.9065Z" fill="white"/>
<path d="M156.873 90.5128L156.843 90.6025C153.155 101.396 142.975 108.646 131.508 108.646C120.038 108.646 109.858 101.392 106.181 90.5965L106.15 90.5068H98.0781V91.4768L101.432 91.8683C103.496 92.1105 103.944 93.0252 104.502 94.1819L104.637 94.46C109.484 104.814 120.031 111.506 131.505 111.507C142.977 111.507 153.524 104.817 158.372 94.4689L158.509 94.1864C159.069 93.0312 159.51 92.1164 161.579 91.8758L164.936 91.4843V90.5143L156.873 90.5128Z" fill="white"/>
<path d="M112.148 77.6113H110.32V85.8913H112.148V77.6113Z" fill="white"/>
<path d="M106.275 85.8897V77.6113H104.446V83.7809L98.354 77.6113H96V85.8897H97.8289V79.6783L103.964 85.8897H106.275Z" fill="white"/>
<path d="M147.195 77.6113L142.035 85.8897H144.253L145.171 84.4116H151.189L152.106 85.8897H154.323L149.166 77.6113H147.195ZM150.244 82.8423H146.114L148.181 79.5154L150.244 82.8423Z" fill="white"/>
<path d="M137.398 84.1668C137.346 84.1758 137.113 84.1833 137.021 84.1833H129.665V85.8901H137.136C137.198 85.8901 137.628 85.8901 137.732 85.8781C139.257 85.7421 139.951 84.4702 139.951 83.3478C139.951 82.2254 139.223 80.9834 137.84 80.8473C137.642 80.8276 137.442 80.8186 137.243 80.8205H132.359C132.177 80.8238 131.995 80.8098 131.816 80.7786C131.66 80.7363 131.522 80.6416 131.427 80.5103C131.331 80.379 131.283 80.219 131.291 80.0568C131.29 79.8943 131.343 79.7362 131.44 79.6062C131.537 79.4763 131.674 79.3815 131.83 79.3364C131.997 79.2996 132.17 79.287 132.341 79.299H139.391V77.6101H132.231C131.992 77.606 131.752 77.6185 131.515 77.6475C130.93 77.7179 130.392 78.0039 130.006 78.4498C129.62 78.8957 129.413 79.4696 129.426 80.0597C129.426 81.085 130.069 82.2807 131.482 82.4854C131.737 82.5135 131.994 82.525 132.25 82.5198H137.009C137.098 82.5198 137.307 82.5198 137.353 82.5303C137.55 82.5538 137.732 82.6473 137.865 82.7941C137.999 82.9407 138.075 83.1306 138.081 83.3291C138.086 83.5275 138.02 83.7212 137.894 83.8747C137.769 84.0283 137.592 84.1314 137.397 84.1653" fill="white"/>
<path d="M123.685 84.1663C123.631 84.1753 123.399 84.1827 123.308 84.1827H115.95V85.8895H123.422C123.484 85.8895 123.915 85.8895 124.019 85.8776C125.544 85.7416 126.239 84.4697 126.239 83.3473C126.239 82.2248 125.515 80.9829 124.134 80.8483C123.936 80.8286 123.736 80.8196 123.537 80.8214H118.646C118.464 80.8248 118.282 80.8109 118.103 80.7796C117.946 80.7373 117.809 80.6427 117.713 80.5114C117.617 80.3802 117.569 80.2201 117.576 80.0577C117.576 79.8952 117.628 79.7369 117.726 79.6068C117.823 79.4768 117.96 79.3822 118.116 79.3373C118.284 79.3006 118.456 79.288 118.628 79.3H125.676V77.6111H118.516C118.277 77.607 118.037 77.6194 117.8 77.6485C117.215 77.7192 116.677 78.0053 116.291 78.4511C115.905 78.8969 115.699 79.4706 115.711 80.0607C115.711 81.086 116.354 82.2817 117.767 82.4864C118.023 82.5145 118.28 82.526 118.537 82.5208H123.294C123.385 82.5208 123.592 82.5208 123.64 82.5313C123.837 82.5547 124.019 82.6483 124.152 82.795C124.286 82.9417 124.362 83.1316 124.367 83.3301C124.373 83.5285 124.306 83.7222 124.181 83.8757C124.055 84.0293 123.879 84.1324 123.683 84.1663" fill="white"/>
<path d="M167.002 85.8897V77.6113H165.173V83.7809L159.081 77.6113H156.727V85.8897H158.555V79.6783L164.691 85.8897H167.002Z" fill="white"/>
</g>
</g>
<defs>
<clipPath id="clip0_194_242">
<rect width="71" height="60" fill="white" transform="translate(96 52)"/>
</clipPath>
</defs>
</svg>
