<svg width="262" height="164" viewBox="0 0 262 164" fill="none" xmlns="http://www.w3.org/2000/svg">
<path d="M195.956 77.3386H196.027C196.518 77.3472 196.948 77.3694 197.318 77.4075C197.779 77.4568 198.172 77.5627 198.487 77.7228C198.82 77.8952 199.066 78.1414 199.202 78.4518C199.322 78.7202 199.386 79.0441 199.394 79.4517C199.395 79.4763 199.404 80.039 199.385 80.3186C199.368 80.6018 199.304 80.8973 199.2 81.1165C199.076 81.403 198.86 81.6406 198.587 81.7925C198.311 81.9403 197.947 82.045 197.496 82.093C196.981 82.1445 196.464 82.1679 195.947 82.1632H187.305V77.3386H195.956ZM197.948 83.4254L198.808 83.3539C199.161 83.3256 199.508 83.2875 199.839 83.2382C200.684 83.1126 201.413 82.8897 201.998 82.588C202.217 82.4747 202.338 82.391 202.588 82.2161C203.337 81.6879 203.721 80.9675 203.769 79.991C203.78 79.7927 203.769 79.645 203.756 79.4763C203.72 78.8692 203.572 78.352 203.322 77.9444C203.024 77.4593 202.6 77.0861 202.037 76.8029C201.465 76.5197 200.751 76.3104 199.911 76.1909C199.911 76.1909 198.688 75.9964 196.864 76.0001H182.929V87.5949H187.305V83.5029H193.259L199.961 87.5949H204.767L197.948 83.4254ZM171.059 83.8342H160.454L165.752 77.7166L171.059 83.8342ZM164.62 76.0001L154.464 87.7353H157.094L159.387 85.0853H172.145L174.439 87.734H179.334L169.157 76.0001H164.62ZM148.081 76.0001V81.944C148.081 82.4513 148.017 82.9143 147.905 83.3429C147.335 85.5052 145.298 86.6073 141.815 86.611H141.375C137.866 86.6073 135.822 85.488 135.269 83.2899C135.162 82.8493 135.109 82.3974 135.11 81.944V76.0001H130.713V82.1275C130.713 83.4044 130.988 84.4388 131.528 85.2084C131.863 85.6813 132.296 86.0926 132.811 86.4337C133.124 86.6356 133.47 86.8154 133.845 86.9681C134.227 87.1282 134.646 87.2636 135.089 87.3806C135.847 87.5776 136.698 87.7229 137.628 87.8116C138.808 87.9249 140.145 87.9938 141.593 88C142.918 87.9967 144.242 87.9339 145.561 87.8116C146.49 87.7229 147.339 87.5776 148.095 87.3818C148.521 87.2735 148.938 87.1352 149.345 86.9681C149.724 86.8142 150.065 86.6356 150.38 86.4337C150.899 86.0926 151.329 85.6813 151.666 85.2084C152.202 84.4413 152.479 83.4044 152.479 82.1275V76.0001H148.081ZM121.395 82.2728V86.0458H114.592C111.023 86.0458 108.956 84.9351 108.391 82.7481C108.227 82.06 108.226 81.3432 108.389 80.6547C108.943 78.4555 110.973 77.3768 114.592 77.3768H125.245V76.0001H115.991C114.049 76.0001 112.288 76.0678 110.76 76.1971C109.258 76.3251 107.967 76.5997 106.928 77.0061C105.912 77.4063 105.13 77.9851 104.596 78.7301C104.08 79.4455 103.812 80.4084 103.787 81.5869C103.787 81.6177 103.787 81.6485 103.789 81.6805L103.783 81.8578C103.795 83.0793 104.073 84.0706 104.607 84.807C105.15 85.5581 105.939 86.1455 106.953 86.5482C107.995 86.9644 109.285 87.2427 110.787 87.3855C112.518 87.5324 114.254 87.6023 115.991 87.5949H125.85V82.2728H121.395ZM89.1813 77.6957L94.4369 83.7295H83.9331L89.1813 77.6957ZM92.559 76.0001H88.0558L77.9744 87.5949H80.5837L82.8519 84.9868H95.5328L97.8048 87.5949H102.66L92.559 76.0001ZM71.3802 76.0001V81.4551C71.3802 83.0855 70.7719 84.2947 69.5725 85.0582C68.5394 85.7133 67.0457 86.0433 65.1334 86.0433H57V87.5949H63.7604C65.6444 87.5949 67.3659 87.5235 68.8743 87.3831C70.3508 87.2427 71.6167 86.9644 72.6387 86.5482C73.6312 86.1455 74.4095 85.5569 74.9439 84.807C75.4266 84.1285 75.6975 83.2308 75.7431 82.1287C75.748 82.0314 75.7529 81.9034 75.7529 81.7667V76.0001H71.3802Z" fill="white"/>
</svg>
