<svg width="262" height="164" viewBox="0 0 262 164" fill="none" xmlns="http://www.w3.org/2000/svg">
<g clip-path="url(#clip0_194_23)">
<path d="M125.672 83.9931H119.591L122.631 76.0549L125.672 83.9931ZM154.103 92.9952H163.694V70.9738H155.449V82.5803L146.767 70.9738H136.329V88.9304L129.403 70.9738H116.018L110.998 83.9931H102.822C102.415 86.5955 100.91 87.9756 98.2771 87.9756C95.2361 87.9756 93.5427 85.6235 93.5427 81.9846C93.5427 78.3463 95.2686 76.0237 98.2771 76.0237C100.754 76.0237 102.351 77.3423 102.697 79.4759H111.756V78.8785C111.756 74.016 107.554 70 98.3712 70C88.4658 70 84.704 74.9572 84.704 81.9844C84.704 82.1454 84.7091 82.3044 84.7125 82.4644C83.4702 80.952 81.0857 80.0706 77.1511 79.5056L71.4153 78.6895C69.2523 78.377 67.9044 78.1271 67.9044 77.0597C67.9044 76.1496 68.7503 75.1761 71.1028 75.1761C73.7041 75.1761 75.1469 76.1811 75.1469 77.8123H84.3605V77.3423C84.3605 72.9487 79.9724 70.0625 71.3516 70.0625C62.4833 70.0625 58.5947 73.2948 58.5947 77.8435C58.5947 81.3884 60.9134 83.4594 66.3676 84.213L72.8565 85.1205C75.1753 85.4351 75.9288 85.9051 75.9288 86.8779C75.9288 88.1325 74.7374 88.8249 72.0724 88.8249C69.0638 88.8249 67.6868 87.5376 67.6868 85.7497H58V86.2525C58 91.1444 62.6071 93.9672 71.6662 93.9672C80.0371 93.9672 84.8902 92.1169 85.6856 87.4428C87.3604 91.4552 91.2989 93.9997 98.3712 93.9997C103.735 93.9997 106.745 92.5373 108.552 90.3327L107.525 92.9947H116.143L117.366 89.8274H127.897L129.12 92.9947H136.329H137.895H144.574V80.3207L154.103 92.9952ZM190.774 83.9931H184.694L187.734 76.0549L190.774 83.9931ZM203 92.9952L194.505 70.9738H181.12L174.194 88.9304V70.9712H165.762V92.9952H172.626H174.194H181.245L182.466 89.8279H192.999L194.223 92.9952H203Z" fill="white"/>
</g>
<defs>
<clipPath id="clip0_194_23">
<rect width="145" height="24" fill="white" transform="translate(58 70)"/>
</clipPath>
</defs>
</svg>
