<svg width="262" height="164" viewBox="0 0 262 164" fill="none" xmlns="http://www.w3.org/2000/svg">
<g clip-path="url(#clip0_194_248)">
<path d="M163.567 83.3535C163.486 87.8037 164.445 90.1609 168.106 90.1609C171.761 90.1609 172.286 86.1455 172.286 83.09C172.286 80.0325 171.592 77.0643 167.752 77.0643C165.396 77.0643 163.657 78.8986 163.567 83.3535ZM156.16 101.95V71.8263H163.657C163.657 71.8263 163.657 72.2625 163.657 73.0483C163.657 74.6782 164.313 74.0061 164.842 73.3709C164.93 73.2647 166.601 71.2153 170.364 71.2153C174.116 71.2153 179.952 73.834 179.952 83.09C179.952 90.2496 176.47 95.4876 170.457 95.4876C167.143 95.4876 165.227 94.1803 164.789 93.6527C164.351 93.1324 163.742 93.0417 163.742 93.6527C163.742 94.265 163.742 101.95 163.742 101.95H156.16Z" fill="white"/>
<path d="M98.2148 62.0496H106.319C106.319 62.0496 106.319 79.6852 106.319 83.3537C106.319 87.0182 104.749 94.7041 93.5101 94.7041C82.2702 94.7041 81.0508 87.5405 81.0508 83.5271V79.5985H88.8933C88.8933 79.5985 88.8933 81.0826 88.8933 83.4384C88.8933 85.7956 90.4622 87.9773 93.4229 87.9773C96.3849 87.9773 98.2148 86.3192 98.2148 83.5271C98.2148 80.733 98.2148 62.0496 98.2148 62.0496Z" fill="white"/>
<path d="M123.268 80.1215C123.268 77.9364 122.051 75.8413 119.262 75.8413C116.561 75.8413 115.602 77.7603 115.602 80.1215H123.268ZM118.481 70.9528C124.845 70.9528 130.419 73.3967 130.419 84.6604H115.347C115.347 88.2402 116.826 89.725 119.44 89.725C122.055 89.725 122.925 87.6279 122.925 87.6279H130.334C130.334 90.8595 125.889 95.2251 119.179 95.1384C111.513 95.1384 107.766 89.4628 107.766 83.6126C107.766 77.7603 111.074 70.9528 118.481 70.9528Z" fill="white"/>
<path d="M147.364 80.1215C147.364 77.9364 146.145 75.8413 143.357 75.8413C140.657 75.8413 139.696 77.7603 139.696 80.1215H147.364ZM142.577 70.9528C148.94 70.9528 154.513 73.3967 154.513 84.6604H139.441C139.441 88.2402 140.922 89.725 143.538 89.725C146.15 89.725 147.022 87.6279 147.022 87.6279H154.43C154.43 90.8595 149.985 95.2251 143.276 95.1384C135.607 95.1384 131.859 89.4628 131.859 83.6126C131.859 77.7603 135.172 70.9528 142.577 70.9528Z" fill="white"/>
<path d="M174.988 98.3385C174.988 97.1454 175.957 96.1762 177.152 96.1762C178.342 96.1762 179.309 97.1454 179.309 98.3385C179.309 99.5295 178.342 100.505 177.152 100.505C175.957 100.505 174.988 99.5295 174.988 98.3385ZM174.738 98.3385C174.738 99.6733 175.817 100.757 177.152 100.757C178.478 100.757 179.562 99.6733 179.562 98.3385C179.562 97.0036 178.478 95.9201 177.152 95.9201C175.817 95.9201 174.738 97.0036 174.738 98.3385Z" fill="white"/>
<path d="M178.12 99.5752L177.619 98.3895C177.778 98.3344 177.831 98.2954 177.916 98.2047C178.026 98.0864 178.095 97.8996 178.095 97.7302C178.095 97.3027 177.767 97.0117 177.291 97.0117H176.285V99.5752H176.584V98.4648H177.311L177.788 99.5752H178.12ZM176.576 98.2047V97.2906H177.285C177.582 97.2906 177.77 97.46 177.77 97.7221C177.77 98.0199 177.57 98.2047 177.244 98.2047H176.576Z" fill="white"/>
</g>
<defs>
<clipPath id="clip0_194_248">
<rect width="99" height="40" fill="white" transform="translate(81 62)"/>
</clipPath>
</defs>
</svg>
