<svg width="262" height="164" viewBox="0 0 262 164" fill="none" xmlns="http://www.w3.org/2000/svg">
<g clip-path="url(#clip0_194_107)">
<path d="M155.876 81.5043C155.876 67.4791 144.505 56.1348 130.506 56.1348C116.481 56.1348 105.137 67.5061 105.137 81.5043C105.137 95.5295 116.508 106.874 130.506 106.874C144.505 106.874 155.876 95.5026 155.876 81.5043ZM110.409 70.4479H122.76L112.577 95.6465H148.517C144.325 100.981 137.811 104.4 130.488 104.4C117.821 104.4 107.566 94.1441 107.566 81.4863C107.584 77.492 108.6 73.7315 110.409 70.4479ZM145.188 81.4144V78.3106H138.972V70.4659H150.559C152.367 73.7405 153.384 77.501 153.384 81.5133C153.384 85.5257 152.367 89.2861 150.559 92.5608H121.231L131.406 67.3621H112.469C116.661 62.0273 123.174 58.6087 130.497 58.6087C137.802 58.6087 144.325 62.0273 148.526 67.3621H132.153V90.2847H138.99V81.4054H145.188V81.4144Z" fill="white"/>
</g>
<defs>
<clipPath id="clip0_194_107">
<rect width="51" height="51" fill="white" transform="translate(105 56)"/>
</clipPath>
</defs>
</svg>
