<svg width="262" height="164" viewBox="0 0 262 164" fill="none" xmlns="http://www.w3.org/2000/svg">
<g clip-path="url(#clip0_194_28)">
<path d="M131.5 104.995C119.205 104.995 109.096 94.7952 109.096 82.5C109.096 79.95 109.551 77.4914 110.371 75.1241L123.487 100.624C123.667 100.987 123.85 101.262 124.305 101.262C124.762 101.262 124.942 100.987 125.125 100.624L131.226 87.0539C131.317 86.8711 131.408 86.7797 131.5 86.7797C131.683 86.7797 131.683 86.9625 131.774 87.0539L137.966 100.624C138.149 100.987 138.33 101.262 138.787 101.262C139.241 101.262 139.424 100.987 139.605 100.624L152.72 75.1241C153.538 77.4 153.995 79.8586 153.995 82.5C153.904 94.7952 143.795 104.995 131.5 104.995ZM131.5 76.6711C131.317 76.6711 131.317 76.4884 131.226 76.3991L124.213 61.2797C128.923 59.5836 134.077 59.5836 138.787 61.2797L131.774 76.3991C131.683 76.4884 131.683 76.6711 131.5 76.6711ZM124.124 93.0634C123.941 93.0634 123.941 92.8828 123.85 92.7914L112.375 70.7487C114.379 67.472 117.292 64.7393 120.663 62.8268L128.767 80.3113C128.95 80.6768 129.133 80.7681 129.405 80.7681H133.595C133.867 80.7681 134.05 80.6768 134.233 80.3113L142.246 62.8268C145.616 64.7393 148.53 67.472 150.534 70.7487L139.15 92.7914C139.058 92.9727 138.967 93.0634 138.876 93.0634C138.695 93.0634 138.695 92.8828 138.604 92.7914L134.233 83.1375C134.05 82.7741 133.867 82.6828 133.595 82.6828H129.405C129.133 82.6828 128.95 82.7741 128.767 83.1375L124.396 92.7914C124.305 92.8828 124.305 93.0634 124.124 93.0634ZM131.5 108C145.616 108 157 96.6164 157 82.5C157 68.3836 145.616 57 131.5 57C117.384 57 106 68.3836 106 82.5C106 96.6164 117.384 108 131.5 108Z" fill="white"/>
</g>
<defs>
<clipPath id="clip0_194_28">
<rect width="51" height="51" fill="white" transform="translate(106 57)"/>
</clipPath>
</defs>
</svg>
