<svg width="920" height="70" viewBox="0 0 920 70" fill="none" xmlns="http://www.w3.org/2000/svg">
<path d="M10.7306 20.4898H21.6919L25.7302 35.7636H25.9899C26.1918 34.4956 26.3648 33.1411 26.7398 31.9019L30.0571 20.4898H40.9029L45.7201 49.5388H35.4223L33.98 33.631H33.7781C33.5762 34.582 33.4031 35.5907 33.0858 36.5129L28.8455 49.5388H22.6149L18.8074 37.2333C18.4901 35.9941 18.2304 34.8414 18.1439 33.6022H17.7978C17.7112 34.7549 17.6535 35.9653 17.5382 37.1181L16.2978 49.5388H6L10.7306 20.4898Z" fill="white"/>
<path d="M54.4582 49.5389H43.1797L53.391 20.4899H65.1887L75.6596 49.5389H64.3522L63.3715 45.9078H55.3236L54.4582 49.5389ZM61.4965 39.0202L60.2561 33.8905C59.9388 32.6513 59.7369 31.3833 59.5639 30.1441H59.1889L57.2562 39.0202H61.4965ZM104.592 32.4207C104.505 37.1758 104.505 41.1239 101.044 44.8415C97.9282 48.1844 93.1399 50 88.5823 50C79.6402 50 72.4001 44.5245 72.4001 35.1873C72.4001 25.7061 79.4383 20 88.6688 20C93.7745 20 100.755 22.5072 103.063 27.464L93.111 31.0951C92.3034 29.6254 90.7746 28.8473 89.0727 28.8473C85.2651 28.8473 83.1594 32.0749 83.1594 35.5908C83.1594 38.7896 85.1786 41.7867 88.64 41.7867C90.313 41.7867 92.4476 41.0086 92.9668 39.2507H88.1496V32.4207H104.592ZM105.399 20.4899H115.639L125.216 36.5994H125.533C125.101 34.1787 124.639 31.6715 124.639 29.1931V20.4899H134.821V49.5389H124.639L115.264 34.2651H114.947C115.293 36.2824 115.61 38.1556 115.61 40.0865V49.5389H105.428V20.4899H105.399Z" fill="white"/>
<path d="M145.036 49.5387H133.758L143.94 20.4897H155.738L166.18 49.5387H154.901L153.921 45.9076H145.873L145.036 49.5387ZM152.075 39.02L150.834 33.8903C150.517 32.6511 150.344 31.3831 150.142 30.1439H149.738L147.806 39.02H152.075Z" fill="white"/>
<g clip-path="url(#clip0_124_139)">
<path d="M384.966 36.2926L392.338 43.6649H388.892L381.663 36.2926V34.1383H386.115C388.078 34.1383 389.131 33.133 389.131 31.3617C389.131 29.5904 388.078 28.5851 386.115 28.5851H377.546V43.6649H375.009V26.4309H386.115C389.61 26.4309 391.668 28.2979 391.668 31.3617C391.668 34.4734 389.61 36.2926 386.115 36.2926H384.966ZM417.949 43.617H432.788V41.4628H420.486V36.1011H432.31V33.9468H420.534V28.5372H432.788V26.383H417.949V43.617ZM410.146 39.883L398.848 26.383H396.311V43.617H398.848V30.117L410.194 43.617H412.683V26.383H410.146V39.883ZM355.957 26.4309L343.702 40.0266V26.4309H341.213L328.91 40.0745V26.4309H326.373V43.617H328.91L341.117 30.0213V43.617H343.654L359.116 26.4309H355.957ZM366.919 26.4309H369.408V43.617H366.871V39.5957H358.255L354.617 43.617H351.409L366.919 26.4309ZM360.217 37.3936H366.871V30.0213L360.217 37.3936ZM292.194 36.2926C295.689 36.2926 297.747 34.4255 297.747 31.3617C297.747 28.25 295.689 26.4309 292.194 26.4309H281.088V43.6649H283.625V28.5851H292.194C294.157 28.5851 295.21 29.5904 295.21 31.3617C295.21 33.133 294.157 34.1383 292.194 34.1383H287.742V36.2926L294.971 43.6649H298.417L291.093 36.2926H292.194ZM312.491 36.3883H318.14V40.6968C316.416 41.367 314.549 41.6543 312.539 41.6543C310.145 41.6543 308.087 41.0798 306.651 40.0266C305.071 38.8777 304.257 37.1543 304.257 35C304.257 32.7979 305.023 31.1223 306.603 29.9734C308.039 28.9202 310.097 28.3457 312.539 28.3457C313.879 28.3457 315.22 28.4894 316.512 28.7766C317.805 29.0638 319.049 29.5426 320.294 30.117L320.342 30.1649V27.6755H320.294C320.15 27.6277 320.007 27.5319 319.815 27.484L319.719 27.4362C319.671 27.4362 319.624 27.3883 319.576 27.3883C319.289 27.2926 319.001 27.1489 318.714 27.0532C317.613 26.6702 316.56 26.4309 315.603 26.3351C314.549 26.1915 313.448 26.0957 312.252 26.0957C309.427 26.0957 306.842 26.8138 304.975 28.1064C303.874 28.8723 303.061 29.7819 302.438 30.883C301.816 32.0798 301.481 33.4681 301.481 35.0479C301.481 36.5798 301.768 37.9681 302.39 39.1649C302.965 40.266 303.779 41.1755 304.832 41.9415C306.699 43.2819 309.332 44 312.3 44C313.927 44 315.411 43.8564 316.847 43.5692C318.188 43.2819 319.432 42.8511 320.677 42.2766V34.1383H312.443V36.3883H312.491ZM277.45 35C277.45 41.6543 272.184 44 267.254 44C264.477 44 261.94 43.234 260.169 41.8936C258.111 40.3138 257.01 37.9202 257.01 35C257.01 32.0798 258.111 29.6862 260.121 28.1064C261.892 26.766 264.43 26 267.206 26C270.03 26 272.567 26.766 274.339 28.1064C276.349 29.6862 277.45 32.0798 277.45 35ZM259.643 35C259.643 37.1543 260.408 38.8777 261.845 40.0745C263.185 41.1755 265.052 41.75 267.302 41.75C269.504 41.75 271.371 41.1755 272.711 40.0745C274.147 38.9255 274.865 37.1543 274.865 35C274.817 30.8351 271.945 28.25 267.254 28.25C262.563 28.25 259.643 30.8351 259.643 35ZM254.233 38.8298C254.233 41.75 252.127 43.6649 248.92 43.6649H237V26.4309H248.441C251.6 26.4309 253.611 28.25 253.611 31.0266C253.611 32.6064 252.893 33.8032 251.6 34.5691C253.324 35.2872 254.233 36.7713 254.233 38.8298ZM251.122 31.0745C251.122 29.3989 250.164 28.5372 248.345 28.5372H239.537V33.6117H248.202C250.069 33.6117 251.122 32.75 251.122 31.0745ZM239.537 41.4628H248.824C250.739 41.4628 251.744 40.5053 251.744 38.6862C251.744 37.8245 251.457 35.766 248.728 35.766H239.537V41.4628ZM447.628 36.2926H448.777C452.271 36.2926 454.33 34.4255 454.33 31.3617C454.33 28.25 452.271 26.4309 448.777 26.4309H437.671V43.6649H440.208V28.5372H448.777C450.74 28.5372 451.793 29.5426 451.793 31.3138C451.793 33.0851 450.74 34.0904 448.777 34.0904H444.325V36.2447L451.553 43.617H455L447.628 36.2926Z" fill="white"/>
</g>
<g clip-path="url(#clip1_124_139)">
<path d="M604.873 37.3253H597.786L601.329 28.0641L604.873 37.3253ZM638.01 47.8278H649.188V22.1361H639.579V35.677L629.46 22.1361H617.294V43.0855L609.222 22.1361H593.621L587.77 37.3253H578.241C577.766 40.3614 576.012 41.9715 572.944 41.9715C569.399 41.9715 567.426 39.2274 567.426 34.9821C567.426 30.7373 569.437 28.0276 572.944 28.0276C575.83 28.0276 577.692 29.566 578.095 32.0553H588.653V31.3582C588.654 25.6853 583.756 21 573.053 21C561.508 21 557.124 26.7834 557.124 34.9818C557.124 35.1696 557.13 35.3551 557.134 35.5418C555.686 33.7773 552.907 32.749 548.321 32.0899L541.636 31.1378C539.115 30.7732 537.544 30.4817 537.544 29.2363C537.544 28.1746 538.53 27.0388 541.271 27.0388C544.303 27.0388 545.985 28.2113 545.985 30.1143H556.724V29.566C556.724 24.4402 551.609 21.0729 541.562 21.0729C531.225 21.0729 526.693 24.844 526.693 30.1508C526.693 34.2865 529.396 36.7026 535.753 37.5819L543.316 38.6406C546.018 39.0076 546.896 39.556 546.896 40.6909C546.896 42.1546 545.508 42.9624 542.402 42.9624C538.895 42.9624 537.29 41.4605 537.29 39.3747H526V39.9612C526 45.6685 531.37 48.9618 541.928 48.9618C551.685 48.9618 557.341 46.8031 558.268 41.35C560.22 46.0311 564.81 48.9997 573.053 48.9997C579.305 48.9997 582.813 47.2935 584.919 44.7215L583.723 47.8272H593.767L595.192 44.1319H607.467L608.891 47.8272H617.294H619.119H626.903V33.0408L638.01 47.8278ZM680.75 37.3253H673.664L677.207 28.0641L680.75 37.3253ZM695 47.8278L685.099 22.1361H669.499L661.427 43.0855V22.1331H651.599V47.8278H659.598H661.427H669.644L671.067 44.1325H683.344L684.77 47.8278H695Z" fill="white"/>
</g>
<path d="M904.956 30.3386H905.027C905.518 30.3472 905.948 30.3694 906.318 30.4075C906.779 30.4568 907.172 30.5627 907.487 30.7228C907.82 30.8952 908.066 31.1414 908.202 31.4518C908.322 31.7202 908.386 32.0441 908.394 32.4517C908.395 32.4763 908.404 33.039 908.385 33.3186C908.368 33.6018 908.304 33.8973 908.2 34.1165C908.076 34.403 907.86 34.6406 907.587 34.7925C907.311 34.9403 906.947 35.045 906.496 35.093C905.981 35.1445 905.464 35.1679 904.947 35.1632H896.305V30.3386H904.956ZM906.948 36.4254L907.808 36.3539C908.161 36.3256 908.508 36.2875 908.839 36.2382C909.684 36.1126 910.413 35.8897 910.998 35.588C911.217 35.4747 911.338 35.391 911.588 35.2161C912.337 34.6879 912.721 33.9675 912.769 32.991C912.78 32.7927 912.769 32.645 912.756 32.4763C912.72 31.8692 912.572 31.352 912.322 30.9444C912.024 30.4593 911.6 30.0861 911.037 29.8029C910.465 29.5197 909.751 29.3104 908.911 29.1909C908.911 29.1909 907.688 28.9964 905.864 29.0001H891.929V40.5949H896.305V36.5029H902.259L908.961 40.5949H913.767L906.948 36.4254ZM880.059 36.8342H869.454L874.752 30.7166L880.059 36.8342ZM873.62 29.0001L863.464 40.7353H866.094L868.387 38.0853H881.145L883.439 40.734H888.334L878.157 29.0001H873.62ZM857.081 29.0001V34.944C857.081 35.4513 857.017 35.9143 856.905 36.3429C856.335 38.5052 854.298 39.6073 850.815 39.611H850.375C846.866 39.6073 844.822 38.488 844.269 36.2899C844.162 35.8493 844.109 35.3974 844.11 34.944V29.0001H839.713V35.1275C839.713 36.4044 839.988 37.4388 840.528 38.2084C840.863 38.6813 841.296 39.0926 841.811 39.4337C842.124 39.6356 842.47 39.8154 842.845 39.9681C843.227 40.1282 843.646 40.2636 844.089 40.3806C844.847 40.5776 845.698 40.7229 846.628 40.8116C847.808 40.9249 849.145 40.9938 850.593 41C851.918 40.9967 853.242 40.9339 854.561 40.8116C855.49 40.7229 856.339 40.5776 857.095 40.3818C857.521 40.2735 857.938 40.1352 858.345 39.9681C858.724 39.8142 859.065 39.6356 859.38 39.4337C859.899 39.0926 860.329 38.6813 860.666 38.2084C861.202 37.4413 861.479 36.4044 861.479 35.1275V29.0001H857.081ZM830.395 35.2728V39.0458H823.592C820.023 39.0458 817.956 37.9351 817.391 35.7481C817.227 35.06 817.226 34.3432 817.389 33.6547C817.943 31.4555 819.973 30.3768 823.592 30.3768H834.245V29.0001H824.991C823.049 29.0001 821.288 29.0678 819.76 29.1971C818.258 29.3251 816.967 29.5997 815.928 30.0061C814.912 30.4063 814.13 30.9851 813.596 31.7301C813.08 32.4455 812.812 33.4084 812.787 34.5869C812.787 34.6177 812.787 34.6485 812.789 34.6805L812.783 34.8578C812.795 36.0793 813.073 37.0706 813.607 37.807C814.15 38.5581 814.939 39.1455 815.953 39.5482C816.995 39.9644 818.285 40.2427 819.787 40.3855C821.518 40.5324 823.254 40.6023 824.991 40.5949H834.85V35.2728H830.395ZM798.181 30.6957L803.437 36.7295H792.933L798.181 30.6957ZM801.559 29.0001H797.056L786.974 40.5949H789.584L791.852 37.9868H804.533L806.805 40.5949H811.66L801.559 29.0001ZM780.38 29.0001V34.4551C780.38 36.0855 779.772 37.2947 778.573 38.0582C777.539 38.7133 776.046 39.0433 774.133 39.0433H766V40.5949H772.76C774.644 40.5949 776.366 40.5235 777.874 40.3831C779.351 40.2427 780.617 39.9644 781.639 39.5482C782.631 39.1455 783.409 38.5569 783.944 37.807C784.427 37.1285 784.698 36.2308 784.743 35.1287C784.748 35.0314 784.753 34.9034 784.753 34.7667V29.0001H780.38Z" fill="white"/>
<defs>
<clipPath id="clip0_124_139">
<rect width="218" height="18" fill="white" transform="translate(237 26)"/>
</clipPath>
<clipPath id="clip1_124_139">
<rect width="169" height="28" fill="white" transform="translate(526 21)"/>
</clipPath>
</defs>
</svg>
